<svg id="svg" version="1.1" xmlns="http://www.w3.org/2000/svg" xmlns:xlink="http://www.w3.org/1999/xlink" width="400" height="400" viewBox="0, 0, 400,400"><g id="svgg"><path id="path0" d="M74.885 12.631 C 67.682 14.209,59.573 19.784,56.444 25.310 C 54.455 28.821,54.136 29.492,53.640 31.200 C 53.352 32.190,52.910 33.450,52.658 34.000 C 52.328 34.720,52.144 45.923,52.000 74.000 C 51.847 103.778,51.684 113.203,51.309 113.857 C 50.586 115.118,48.493 116.766,47.269 117.037 C 44.561 117.638,44.771 116.960,44.891 124.730 L 45.000 131.800 47.301 132.528 C 49.010 133.069,49.886 133.628,50.701 134.697 L 51.800 136.136 51.922 148.511 L 52.043 160.885 53.122 160.561 C 55.323 159.898,292.527 159.927,294.113 160.589 C 295.638 161.226,296.849 162.671,297.476 164.600 L 297.866 165.800 304.981 165.909 C 312.231 166.021,313.200 165.854,313.200 164.489 C 313.200 163.556,315.091 161.277,316.446 160.576 C 317.742 159.906,344.480 159.916,346.900 160.588 L 348.000 160.893 348.000 145.302 C 348.000 136.728,347.886 128.877,347.746 127.856 L 347.491 126.000 303.492 126.000 C 273.291 126.000,258.977 125.865,257.846 125.568 C 253.952 124.547,252.843 124.142,250.073 122.725 C 239.607 117.375,234.286 108.333,234.228 95.800 C 234.194 88.440,234.825 87.199,239.300 85.838 C 239.933 85.645,240.000 84.933,240.000 78.398 L 240.000 71.172 238.175 70.389 C 233.790 68.510,234.000 70.077,234.000 39.252 L 234.000 12.878 232.740 12.439 C 230.682 11.722,78.191 11.907,74.885 12.631 M174.400 343.405 C 174.400 344.702,172.328 347.481,170.970 348.006 C 169.888 348.424,56.405 348.620,53.846 348.208 L 51.892 347.893 52.090 356.446 C 52.199 361.151,52.474 365.450,52.702 366.000 C 52.930 366.550,53.352 367.810,53.640 368.800 C 54.133 370.497,54.466 371.198,56.387 374.589 C 59.152 379.469,65.318 384.281,71.630 386.484 L 75.400 387.800 200.200 387.800 L 325.000 387.800 327.800 386.866 C 336.624 383.922,343.488 377.329,346.401 369.000 C 346.554 368.560,346.912 367.570,347.194 366.800 C 347.527 365.894,347.775 362.363,347.897 356.800 L 348.085 348.200 270.412 348.200 L 192.739 348.200 191.358 346.694 C 190.599 345.865,189.870 344.650,189.739 343.994 L 189.500 342.800 181.950 342.800 C 175.475 342.800,174.400 342.886,174.400 343.405 " stroke="none" fill="#f7f7f7" fill-rule="evenodd"></path><path id="path1" d="M70.900 0.290 C 69.965 0.376,69.200 0.616,69.200 0.823 C 69.200 1.030,68.671 1.200,68.024 1.200 C 67.377 1.200,66.736 1.380,66.600 1.600 C 66.464 1.820,65.913 2.000,65.376 2.000 C 64.839 2.000,64.400 2.180,64.400 2.400 C 64.400 2.620,64.040 2.800,63.600 2.800 C 63.160 2.800,62.800 2.980,62.800 3.200 C 62.800 3.420,62.440 3.600,62.000 3.600 C 61.560 3.600,61.200 3.780,61.200 4.000 C 61.200 4.220,60.840 4.400,60.400 4.400 C 59.960 4.400,59.600 4.580,59.600 4.800 C 59.600 5.020,59.370 5.200,59.088 5.200 C 58.807 5.200,58.317 5.560,58.000 6.000 C 57.683 6.440,57.169 6.800,56.859 6.800 C 56.548 6.800,56.003 7.117,55.647 7.503 C 55.291 7.890,54.227 8.730,53.282 9.370 C 52.337 10.010,50.987 11.241,50.282 12.106 C 49.577 12.971,48.415 14.326,47.700 15.117 C 46.985 15.909,46.400 16.709,46.400 16.895 C 46.400 17.081,46.040 17.620,45.600 18.092 C 45.160 18.564,44.800 19.187,44.800 19.475 C 44.800 19.764,44.620 20.000,44.400 20.000 C 44.180 20.000,44.000 20.360,44.000 20.800 C 44.000 21.240,43.820 21.600,43.600 21.600 C 43.380 21.600,43.200 21.849,43.200 22.154 C 43.200 22.459,42.931 23.224,42.602 23.854 C 42.274 24.484,42.004 25.304,42.002 25.676 C 42.001 26.048,41.820 26.464,41.600 26.600 C 41.380 26.736,41.200 27.366,41.200 28.000 C 41.200 28.634,41.020 29.264,40.800 29.400 C 40.580 29.536,40.400 30.447,40.400 31.424 C 40.400 32.401,40.220 33.200,40.000 33.200 C 39.736 33.200,39.600 46.937,39.600 73.611 L 39.600 114.021 41.389 115.811 C 43.279 117.700,44.110 117.945,45.376 116.987 C 45.804 116.664,46.507 116.400,46.939 116.400 C 47.892 116.400,50.200 114.699,50.895 113.484 C 51.288 112.795,51.445 103.943,51.604 73.400 C 51.837 28.729,51.469 32.864,55.905 25.136 C 58.651 20.354,67.578 13.200,70.801 13.200 C 71.026 13.200,71.523 13.041,71.905 12.847 C 74.273 11.645,77.248 11.600,154.926 11.600 C 215.459 11.600,233.550 11.710,233.920 12.080 C 234.283 12.443,234.401 18.878,234.402 38.580 C 234.404 54.484,234.558 65.153,234.800 66.023 C 235.724 69.349,239.526 71.088,242.610 69.595 C 245.899 68.003,245.785 68.922,245.910 43.100 C 245.970 30.615,246.150 20.400,246.310 20.400 C 247.176 20.400,340.035 113.901,339.408 114.142 C 337.775 114.768,262.461 114.423,259.616 113.776 C 253.544 112.395,249.150 108.366,246.557 101.800 C 246.383 101.360,246.141 98.750,246.020 96.000 C 245.845 92.020,245.632 90.679,244.974 89.426 C 242.617 84.933,236.151 85.823,234.787 90.828 C 233.969 93.829,234.942 103.385,236.403 106.700 C 236.621 107.195,237.021 108.095,237.291 108.700 C 239.749 114.208,245.770 120.203,251.400 122.750 C 252.060 123.049,252.870 123.425,253.200 123.586 C 253.530 123.746,254.790 124.101,256.000 124.374 C 257.210 124.646,258.851 125.034,259.646 125.235 C 260.475 125.444,279.644 125.600,304.528 125.600 L 347.964 125.600 348.282 127.100 C 348.457 127.925,348.600 135.890,348.600 144.800 L 348.600 161.000 346.400 160.883 C 334.062 160.224,318.168 160.394,316.597 161.201 C 312.647 163.233,312.384 168.539,316.122 170.818 C 317.310 171.542,318.216 171.598,329.000 171.606 C 344.210 171.619,347.387 172.105,352.614 175.221 C 359.569 179.368,363.704 185.484,365.038 193.600 C 365.910 198.907,365.865 310.359,364.988 315.448 C 363.563 323.721,358.737 330.312,351.400 334.005 C 345.413 337.020,351.877 336.800,269.229 336.800 C 205.986 336.800,194.695 336.885,193.541 337.367 C 189.152 339.201,188.924 345.373,193.167 347.486 C 194.573 348.187,331.569 348.652,344.600 348.000 L 348.600 347.800 348.725 354.000 C 349.100 372.667,341.367 384.028,325.600 387.974 C 323.113 388.596,75.738 388.364,73.400 387.737 C 58.958 383.864,52.022 373.933,51.696 356.663 L 51.523 347.525 54.062 347.797 C 58.589 348.282,166.746 348.468,169.025 347.995 C 173.543 347.057,175.398 342.019,172.459 338.667 C 170.764 336.734,172.859 336.800,113.051 336.798 C 76.452 336.796,56.445 336.655,55.400 336.389 C 45.668 333.920,39.720 328.801,36.118 319.796 L 35.000 317.000 35.000 254.800 C 35.000 186.623,34.839 191.171,37.431 186.000 C 40.760 179.360,46.277 174.842,53.882 172.529 C 56.067 171.865,63.036 171.812,175.000 171.612 C 287.453 171.411,293.855 171.362,294.834 170.697 C 298.122 168.463,297.618 163.046,293.948 161.174 C 292.364 160.365,58.712 160.184,53.500 160.988 L 51.600 161.281 51.598 149.940 C 51.595 135.637,51.203 134.217,46.962 133.149 C 46.023 132.912,45.158 132.467,45.040 132.159 C 44.796 131.523,43.600 131.391,43.600 132.000 C 43.600 132.220,43.309 132.400,42.954 132.400 C 42.599 132.400,41.699 133.065,40.954 133.878 L 39.600 135.356 39.600 150.124 L 39.600 164.892 38.122 166.246 C 37.309 166.991,36.487 167.600,36.295 167.600 C 35.772 167.600,30.000 173.608,30.000 174.153 C 30.000 174.412,29.640 174.883,29.200 175.200 C 28.760 175.517,28.400 175.948,28.400 176.157 C 28.400 176.366,28.143 176.821,27.829 177.169 C 26.838 178.264,24.800 182.712,24.800 183.778 C 24.800 184.340,24.620 184.800,24.400 184.800 C 24.180 184.800,24.000 185.340,24.000 186.000 C 24.000 186.660,23.820 187.200,23.600 187.200 C 23.380 187.200,23.200 188.089,23.200 189.176 C 23.200 190.263,23.020 191.264,22.800 191.400 C 22.246 191.742,22.246 317.200,22.800 317.200 C 23.020 317.200,23.200 318.100,23.200 319.200 C 23.200 320.300,23.380 321.200,23.600 321.200 C 23.820 321.200,24.000 321.729,24.000 322.376 C 24.000 323.023,24.180 323.664,24.400 323.800 C 24.620 323.936,24.800 324.399,24.800 324.828 C 24.800 325.825,27.564 331.600,28.041 331.600 C 28.238 331.600,28.400 331.878,28.400 332.218 C 28.400 332.558,28.850 333.286,29.400 333.836 C 29.950 334.386,30.400 335.009,30.400 335.221 C 30.400 335.815,35.154 340.356,36.510 341.057 C 37.175 341.401,38.141 342.105,38.659 342.623 L 39.600 343.564 39.600 355.182 C 39.600 362.661,39.743 366.800,40.000 366.800 C 40.220 366.800,40.400 367.599,40.400 368.576 C 40.400 369.553,40.580 370.464,40.800 370.600 C 41.020 370.736,41.200 371.366,41.200 372.000 C 41.200 372.634,41.380 373.264,41.600 373.400 C 41.820 373.536,42.001 373.952,42.002 374.324 C 42.004 374.696,42.274 375.516,42.602 376.146 C 42.931 376.776,43.200 377.541,43.200 377.846 C 43.200 378.151,43.380 378.400,43.600 378.400 C 43.820 378.400,44.000 378.760,44.000 379.200 C 44.000 379.640,44.180 380.000,44.400 380.000 C 44.620 380.000,44.800 380.236,44.800 380.525 C 44.800 380.813,45.160 381.436,45.600 381.908 C 46.040 382.380,46.400 382.911,46.400 383.087 C 46.400 383.801,51.967 389.800,53.556 390.800 C 54.081 391.130,54.927 391.805,55.437 392.300 C 55.947 392.795,56.602 393.200,56.894 393.200 C 57.185 393.200,57.683 393.560,58.000 394.000 C 58.317 394.440,58.807 394.800,59.088 394.800 C 59.370 394.800,59.600 394.980,59.600 395.200 C 59.600 395.420,59.960 395.600,60.400 395.600 C 60.840 395.600,61.200 395.780,61.200 396.000 C 61.200 396.220,61.560 396.400,62.000 396.400 C 62.440 396.400,62.800 396.580,62.800 396.800 C 62.800 397.020,63.160 397.200,63.600 397.200 C 64.040 397.200,64.400 397.380,64.400 397.600 C 64.400 397.820,64.940 398.000,65.600 398.000 C 66.260 398.000,66.800 398.180,66.800 398.400 C 66.800 398.620,67.325 398.800,67.967 398.800 C 68.608 398.800,69.208 399.025,69.300 399.300 C 69.545 400.036,330.455 400.036,330.700 399.300 C 330.792 399.025,331.392 398.800,332.033 398.800 C 332.675 398.800,333.200 398.620,333.200 398.400 C 333.200 398.180,333.740 398.000,334.400 398.000 C 335.060 398.000,335.600 397.820,335.600 397.600 C 335.600 397.380,335.960 397.200,336.400 397.200 C 336.840 397.200,337.200 397.020,337.200 396.800 C 337.200 396.580,337.560 396.400,338.000 396.400 C 338.440 396.400,338.800 396.220,338.800 396.000 C 338.800 395.780,339.160 395.600,339.600 395.600 C 340.040 395.600,340.400 395.420,340.400 395.200 C 340.400 394.980,340.630 394.800,340.912 394.800 C 341.193 394.800,341.683 394.440,342.000 394.000 C 342.317 393.560,342.831 393.200,343.141 393.200 C 343.452 393.200,343.997 392.883,344.353 392.497 C 344.709 392.110,345.744 391.290,346.654 390.674 C 348.190 389.634,350.400 387.470,350.400 387.004 C 350.400 386.892,351.120 386.059,352.000 385.152 C 352.880 384.245,353.600 383.338,353.600 383.135 C 353.600 382.932,353.960 382.380,354.400 381.908 C 354.840 381.436,355.200 380.813,355.200 380.525 C 355.200 380.236,355.380 380.000,355.600 380.000 C 355.820 380.000,356.000 379.640,356.000 379.200 C 356.000 378.760,356.180 378.400,356.400 378.400 C 356.620 378.400,356.800 378.040,356.800 377.600 C 356.800 377.160,356.980 376.800,357.200 376.800 C 357.420 376.800,357.600 376.451,357.600 376.024 C 357.600 375.597,357.775 375.139,357.988 375.007 C 358.202 374.875,358.496 373.870,358.641 372.775 C 358.787 371.679,359.062 370.685,359.253 370.567 C 359.444 370.449,359.600 369.553,359.600 368.576 C 359.600 367.599,359.780 366.800,360.000 366.800 C 360.257 366.800,360.400 362.661,360.400 355.182 L 360.400 343.564 361.341 342.623 C 361.859 342.105,362.804 341.411,363.441 341.079 C 364.901 340.321,367.931 337.436,369.197 335.600 C 369.728 334.830,370.486 333.909,370.881 333.553 C 371.276 333.197,371.600 332.612,371.600 332.253 C 371.600 331.894,371.759 331.600,371.952 331.600 C 372.449 331.600,375.200 325.919,375.200 324.894 C 375.200 324.428,375.380 323.936,375.600 323.800 C 375.820 323.664,376.000 323.023,376.000 322.376 C 376.000 321.729,376.180 321.200,376.400 321.200 C 376.620 321.200,376.800 320.311,376.800 319.224 C 376.800 318.137,376.980 317.136,377.200 317.000 C 377.754 316.658,377.754 192.142,377.200 191.800 C 376.980 191.664,376.800 190.674,376.800 189.600 C 376.800 188.526,376.620 187.536,376.400 187.400 C 376.180 187.264,376.000 186.623,376.000 185.976 C 376.000 185.329,375.820 184.800,375.600 184.800 C 375.380 184.800,375.200 184.340,375.200 183.778 C 375.200 182.712,373.162 178.264,372.171 177.169 C 371.857 176.821,371.600 176.366,371.600 176.157 C 371.600 175.948,371.240 175.517,370.800 175.200 C 370.360 174.883,370.000 174.412,370.000 174.153 C 370.000 173.551,364.200 167.600,363.614 167.600 C 363.372 167.600,362.549 166.976,361.787 166.213 L 360.400 164.827 360.400 144.413 C 360.400 131.071,360.261 124.000,360.000 124.000 C 359.780 124.000,359.600 123.280,359.600 122.400 C 359.600 121.520,359.420 120.800,359.200 120.800 C 358.980 120.800,358.800 120.323,358.800 119.740 C 358.800 118.060,356.181 113.058,353.618 109.842 C 352.046 107.870,250.784 6.800,250.380 6.800 C 250.127 6.800,249.417 6.260,248.800 5.600 C 248.183 4.940,247.391 4.400,247.040 4.400 C 246.688 4.400,246.400 4.220,246.400 4.000 C 246.400 3.780,246.040 3.600,245.600 3.600 C 245.160 3.600,244.800 3.420,244.800 3.200 C 244.800 2.980,244.440 2.800,244.000 2.800 C 243.560 2.800,243.200 2.620,243.200 2.400 C 243.200 2.180,242.840 2.000,242.400 2.000 C 241.960 2.000,241.600 1.820,241.600 1.600 C 241.600 1.380,241.165 1.200,240.633 1.200 C 240.102 1.200,239.592 0.975,239.500 0.700 C 239.342 0.227,75.922 -0.170,70.900 0.290 M97.685 204.584 C 95.986 205.522,94.890 206.849,94.429 208.528 C 93.559 211.698,94.024 299.877,94.919 301.518 C 97.162 305.626,103.197 305.266,105.052 300.913 C 105.487 299.891,105.600 296.169,105.600 282.856 C 105.600 267.933,105.670 266.059,106.233 265.843 C 106.581 265.709,111.825 265.600,117.886 265.600 C 124.489 265.600,129.567 265.427,130.554 265.168 C 134.677 264.087,135.559 263.790,138.000 262.660 C 157.296 253.729,161.925 228.722,147.092 213.545 C 142.401 208.745,137.052 206.010,129.269 204.432 C 126.104 203.790,98.885 203.921,97.685 204.584 M262.270 204.981 C 261.429 205.281,260.696 205.588,260.641 205.663 C 260.586 205.738,260.149 206.368,259.670 207.062 L 258.800 208.323 258.800 254.182 C 258.800 304.426,258.654 301.387,261.156 303.168 C 262.671 304.247,265.752 304.290,267.322 303.255 C 269.903 301.553,269.780 302.621,270.000 280.000 L 270.200 259.400 284.618 259.200 C 297.979 259.015,299.123 258.944,300.218 258.230 C 302.751 256.580,303.607 254.026,302.475 251.496 C 300.932 248.047,301.828 248.228,285.059 247.983 C 276.886 247.864,270.155 247.729,270.100 247.683 C 269.878 247.499,270.018 216.820,270.243 216.233 C 270.459 215.670,272.253 215.600,286.352 215.600 L 302.218 215.600 303.699 214.379 C 307.199 211.494,305.872 205.514,301.541 204.648 C 298.856 204.111,263.878 204.407,262.270 204.981 M174.893 206.132 C 174.394 206.409,173.539 207.293,172.993 208.097 L 172.000 209.558 172.000 253.941 L 172.000 298.324 172.885 299.982 C 174.613 303.220,174.508 303.200,189.718 303.200 C 207.245 303.200,211.668 302.609,218.600 299.344 C 249.398 284.833,251.054 226.799,221.143 210.250 C 217.706 208.348,214.963 207.381,209.600 206.182 C 206.078 205.394,176.299 205.351,174.893 206.132 M130.768 216.562 C 146.855 222.005,149.420 242.754,135.069 251.349 C 130.595 254.029,129.510 254.200,117.000 254.200 L 105.800 254.200 105.696 234.900 L 105.592 215.600 116.758 215.600 C 127.497 215.600,128.032 215.637,130.768 216.562 M210.000 217.757 C 223.253 221.559,231.204 235.135,231.198 253.952 C 231.195 263.835,229.695 269.910,225.159 278.395 C 224.157 280.271,217.164 287.600,216.377 287.600 C 216.128 287.600,215.446 287.929,214.862 288.330 C 214.278 288.732,213.170 289.290,212.400 289.571 C 211.630 289.851,210.640 290.219,210.200 290.387 C 207.596 291.384,204.824 291.600,194.660 291.600 L 183.731 291.600 183.478 254.800 C 183.339 234.560,183.336 217.711,183.471 217.358 C 183.824 216.440,206.605 216.783,210.000 217.757 " stroke="none" fill="#050404" fill-rule="evenodd"></path><path id="path2" d="M246.400 43.252 C 246.400 67.682,246.436 67.289,243.984 69.352 C 243.299 69.929,242.077 70.506,241.269 70.635 L 239.800 70.870 239.800 78.406 L 239.800 85.941 240.887 85.910 C 244.347 85.812,246.400 89.207,246.400 95.028 C 246.400 104.447,251.340 111.235,259.722 113.336 C 261.694 113.830,338.800 114.190,338.800 113.705 C 338.800 113.537,318.010 92.609,292.600 67.200 L 246.400 21.001 246.400 43.252 M312.542 165.618 C 312.273 165.887,309.533 165.994,304.857 165.918 C 299.043 165.824,297.630 165.903,297.789 166.317 C 298.143 167.237,296.431 170.175,295.002 171.100 L 293.611 172.000 177.983 172.000 C 100.462 172.000,61.406 172.136,59.477 172.414 C 55.105 173.042,52.770 173.593,50.904 174.435 C 49.972 174.856,48.937 175.200,48.604 175.200 C 48.272 175.200,48.000 175.350,48.000 175.532 C 48.000 175.715,47.505 176.120,46.900 176.431 C 42.927 178.476,37.573 185.929,36.147 191.400 C 35.729 193.006,35.744 315.868,36.163 317.400 C 37.677 322.935,43.187 330.503,46.787 331.995 C 47.454 332.271,48.000 332.655,48.000 332.849 C 48.000 333.042,48.360 333.200,48.800 333.200 C 49.240 333.200,49.600 333.380,49.600 333.600 C 49.600 333.820,49.949 334.000,50.376 334.000 C 50.803 334.000,51.264 334.180,51.400 334.400 C 51.536 334.620,52.051 334.800,52.544 334.800 C 53.037 334.800,53.611 334.963,53.820 335.163 C 54.676 335.981,60.957 336.103,114.400 336.346 C 167.480 336.588,170.259 336.636,171.406 337.331 C 172.909 338.242,174.400 340.464,174.400 341.794 L 174.400 342.800 182.000 342.800 L 189.600 342.800 189.600 341.774 C 189.600 339.967,190.560 338.622,192.842 337.231 L 194.200 336.403 268.074 336.401 C 350.572 336.400,344.953 336.594,351.199 333.530 C 354.486 331.918,360.800 326.410,360.800 325.154 C 360.800 324.917,361.130 324.246,361.534 323.662 C 361.937 323.078,362.589 321.790,362.982 320.800 C 364.821 316.171,364.771 318.011,364.786 254.277 C 364.801 190.043,364.849 191.625,362.753 187.505 C 362.559 187.123,362.400 186.538,362.400 186.205 C 362.400 185.872,362.220 185.600,362.000 185.600 C 361.780 185.600,361.600 185.407,361.600 185.172 C 361.600 184.036,358.347 180.152,355.400 177.769 C 349.404 172.920,345.076 172.000,328.254 172.000 L 316.400 172.000 314.855 170.455 C 313.365 168.965,312.433 166.517,313.004 165.593 C 313.323 165.077,313.069 165.091,312.542 165.618 M130.600 204.154 C 134.273 204.879,135.054 205.153,139.275 207.198 C 140.747 207.911,142.314 208.833,142.759 209.247 C 143.203 209.661,143.718 210.000,143.903 210.000 C 144.089 210.000,145.450 211.198,146.928 212.662 C 162.599 228.179,158.308 253.551,138.400 263.079 C 132.536 265.886,131.346 266.077,118.000 266.355 L 106.200 266.600 106.000 283.800 C 105.803 300.780,105.789 301.016,104.910 302.247 C 102.027 306.289,96.144 305.655,94.100 301.081 C 93.292 299.274,93.379 208.967,94.190 207.341 C 94.815 206.087,96.080 204.797,97.400 204.067 C 98.658 203.371,127.012 203.445,130.600 204.154 M303.673 205.000 C 307.218 207.643,307.231 212.409,303.701 215.103 L 302.264 216.200 286.432 216.400 L 270.600 216.600 270.489 231.200 C 270.427 239.230,270.476 246.205,270.596 246.700 L 270.815 247.600 285.408 247.600 L 300.000 247.600 301.600 249.200 C 303.186 250.786,303.440 251.548,303.269 254.200 C 302.941 259.274,301.828 259.600,284.806 259.600 L 270.400 259.600 270.400 280.006 L 270.400 300.411 269.500 301.802 C 268.102 303.962,263.419 305.725,262.600 304.400 C 262.464 304.180,262.073 304.000,261.730 304.000 C 261.388 304.000,260.499 303.335,259.754 302.522 L 258.400 301.044 258.400 254.413 L 258.400 207.782 259.657 206.257 C 261.525 203.991,261.072 204.033,282.600 204.120 C 301.909 204.197,302.637 204.228,303.673 205.000 M210.200 205.505 C 210.860 205.726,212.210 206.128,213.200 206.399 C 216.344 207.259,223.600 210.649,223.600 211.258 C 223.600 211.446,223.835 211.600,224.122 211.600 C 225.269 211.600,231.429 217.733,233.978 221.413 C 249.399 243.671,244.565 282.752,224.725 296.228 C 223.776 296.873,222.940 297.535,222.867 297.700 C 222.793 297.865,222.551 298.000,222.328 298.000 C 222.106 298.000,221.446 298.327,220.862 298.727 C 215.496 302.402,210.664 303.240,193.000 303.558 C 174.893 303.885,174.548 303.831,172.433 300.361 C 171.606 299.005,171.603 298.834,171.601 254.094 L 171.600 209.189 172.500 207.814 C 173.342 206.527,174.278 205.848,176.200 205.128 C 177.390 204.683,208.783 205.030,210.200 205.505 M106.496 234.900 L 106.600 253.800 117.550 253.678 C 133.439 253.500,138.054 251.370,142.413 242.200 C 143.856 239.165,144.398 231.805,143.345 229.550 C 143.101 229.027,142.477 227.700,141.958 226.600 C 138.191 218.615,131.988 216.036,116.496 216.014 L 106.392 216.000 106.496 234.900 M184.000 254.164 L 184.000 291.225 194.900 291.077 C 207.522 290.906,209.154 290.649,214.377 288.012 C 217.135 286.619,223.273 280.855,224.399 278.600 C 224.729 277.940,225.091 277.310,225.205 277.200 C 225.991 276.437,228.177 270.986,229.135 267.400 C 230.925 260.698,231.130 249.684,229.597 242.600 C 229.359 241.500,229.060 240.060,228.932 239.400 C 228.804 238.740,228.568 238.020,228.408 237.800 C 228.248 237.580,227.871 236.545,227.571 235.500 C 227.271 234.455,226.885 233.600,226.713 233.600 C 226.541 233.600,226.396 233.285,226.391 232.900 C 226.386 232.515,226.030 231.750,225.600 231.200 C 225.170 230.650,224.814 230.054,224.809 229.877 C 224.780 228.810,219.830 223.505,217.198 221.719 C 211.876 218.108,209.202 217.570,195.300 217.313 L 184.000 217.104 184.000 254.164 " stroke="none" fill="#da4a52" fill-rule="evenodd"></path><path id="path3" d="M246.000 42.454 C 246.000 68.726,246.032 68.528,241.468 70.146 C 240.551 70.471,240.103 70.751,240.474 70.768 C 241.522 70.818,243.306 70.034,244.335 69.073 C 246.401 67.143,246.400 67.158,246.400 43.252 L 246.400 21.001 292.600 67.200 C 318.010 92.609,338.800 113.537,338.800 113.705 C 338.800 114.190,261.694 113.830,259.722 113.336 C 251.320 111.230,246.402 104.453,246.399 94.973 C 246.397 90.311,245.930 88.869,243.869 87.156 C 242.740 86.218,240.876 85.553,240.605 85.991 C 240.489 86.180,240.935 86.454,241.598 86.600 C 244.666 87.273,246.000 90.221,246.000 96.328 C 246.000 100.075,246.151 100.897,247.339 103.600 C 249.592 108.728,254.195 112.543,259.616 113.776 C 262.461 114.423,337.775 114.768,339.408 114.142 C 340.039 113.899,247.172 20.400,246.301 20.400 C 246.135 20.400,246.000 30.324,246.000 42.454 M313.054 167.194 C 313.876 171.755,314.659 172.000,328.416 172.000 C 345.059 172.000,349.419 172.932,355.400 177.769 C 358.347 180.152,361.600 184.036,361.600 185.172 C 361.600 185.407,361.780 185.600,362.000 185.600 C 362.220 185.600,362.400 185.872,362.400 186.205 C 362.400 186.538,362.559 187.123,362.753 187.505 C 364.849 191.625,364.801 190.043,364.786 254.277 C 364.771 318.011,364.821 316.171,362.982 320.800 C 362.589 321.790,361.937 323.078,361.534 323.662 C 361.130 324.246,360.800 324.917,360.800 325.154 C 360.800 326.410,354.486 331.918,351.199 333.530 C 344.953 336.594,350.572 336.400,268.074 336.401 L 194.200 336.403 192.842 337.231 C 190.581 338.609,189.575 340.002,189.632 341.674 C 189.651 342.230,189.742 342.360,189.861 342.000 C 190.263 340.779,190.983 339.379,191.575 338.667 C 193.194 336.718,189.793 336.800,269.229 336.800 C 351.877 336.800,345.413 337.020,351.400 334.005 C 358.737 330.312,363.563 323.721,364.988 315.448 C 365.865 310.359,365.910 198.907,365.038 193.600 C 363.704 185.484,359.569 179.368,352.614 175.221 C 347.392 172.108,344.202 171.618,329.080 171.608 C 315.426 171.599,314.980 171.478,313.406 167.373 L 312.802 165.800 313.054 167.194 M297.002 167.300 C 296.540 168.950,295.877 169.988,294.834 170.697 C 293.855 171.362,287.453 171.411,175.000 171.612 C 63.036 171.812,56.067 171.865,53.882 172.529 C 46.277 174.842,40.760 179.360,37.431 186.000 C 34.839 191.171,35.000 186.623,35.000 254.800 L 35.000 317.000 36.118 319.796 C 38.129 324.823,40.351 327.937,44.100 330.981 C 47.489 333.732,50.379 335.115,55.400 336.389 C 56.445 336.655,76.452 336.796,113.051 336.798 C 177.436 336.800,171.808 336.414,173.678 340.954 C 174.181 342.177,174.361 342.367,174.378 341.694 C 174.408 340.468,172.880 338.224,171.406 337.331 C 170.259 336.636,167.480 336.588,114.400 336.346 C 60.957 336.103,54.676 335.981,53.820 335.163 C 53.611 334.963,53.037 334.800,52.544 334.800 C 52.051 334.800,51.536 334.620,51.400 334.400 C 51.264 334.180,50.803 334.000,50.376 334.000 C 49.949 334.000,49.600 333.820,49.600 333.600 C 49.600 333.380,49.240 333.200,48.800 333.200 C 48.360 333.200,48.000 333.042,48.000 332.849 C 48.000 332.655,47.454 332.271,46.787 331.995 C 43.187 330.503,37.677 322.935,36.163 317.400 C 35.744 315.868,35.729 193.006,36.147 191.400 C 37.573 185.929,42.927 178.476,46.900 176.431 C 47.505 176.120,48.000 175.715,48.000 175.532 C 48.000 175.350,48.272 175.200,48.604 175.200 C 48.937 175.200,49.972 174.856,50.904 174.435 C 52.770 173.593,55.105 173.042,59.477 172.414 C 61.406 172.136,100.462 172.000,177.983 172.000 L 293.611 172.000 295.002 171.100 C 296.121 170.376,298.000 167.558,298.000 166.604 C 298.000 165.989,297.216 166.535,297.002 167.300 M97.400 204.067 C 96.080 204.797,94.815 206.087,94.190 207.341 C 93.379 208.967,93.292 299.274,94.100 301.081 C 96.144 305.655,102.027 306.289,104.910 302.247 C 105.789 301.016,105.803 300.780,106.000 283.800 L 106.200 266.600 118.000 266.355 C 131.346 266.077,132.536 265.886,138.400 263.079 C 158.308 253.551,162.599 228.179,146.928 212.662 C 145.450 211.198,144.089 210.000,143.903 210.000 C 143.718 210.000,143.203 209.661,142.759 209.247 C 141.774 208.330,137.172 206.041,134.200 204.990 C 130.283 203.604,99.626 202.836,97.400 204.067 M129.269 204.432 C 137.052 206.010,142.401 208.745,147.092 213.545 C 161.925 228.722,157.296 253.729,138.000 262.660 C 135.559 263.790,134.677 264.087,130.554 265.168 C 129.567 265.427,124.489 265.600,117.886 265.600 C 111.825 265.600,106.581 265.709,106.233 265.843 C 105.670 266.059,105.600 267.933,105.600 282.856 C 105.600 296.169,105.487 299.891,105.052 300.913 C 103.197 305.266,97.162 305.626,94.919 301.518 C 94.024 299.877,93.559 211.698,94.429 208.528 C 94.890 206.849,95.986 205.522,97.685 204.584 C 98.885 203.921,126.104 203.790,129.269 204.432 M261.757 204.386 C 261.294 204.576,260.349 205.418,259.657 206.257 L 258.400 207.782 258.400 254.413 L 258.400 301.044 259.754 302.522 C 260.499 303.335,261.354 303.994,261.654 303.987 C 261.954 303.980,261.700 303.602,261.089 303.146 C 258.663 301.336,258.800 304.265,258.800 254.214 L 258.800 208.389 259.700 207.014 C 261.305 204.561,260.884 204.611,281.000 204.477 C 291.120 204.410,300.147 204.463,301.060 204.596 C 305.782 205.282,307.408 211.322,303.695 214.382 L 302.218 215.600 286.352 215.600 C 272.253 215.600,270.459 215.670,270.243 216.233 C 270.018 216.820,269.878 247.499,270.100 247.683 C 270.155 247.729,276.886 247.864,285.059 247.983 C 301.828 248.228,300.932 248.047,302.475 251.496 C 303.607 254.026,302.751 256.580,300.218 258.230 C 299.123 258.944,297.979 259.015,284.618 259.200 L 270.200 259.400 270.000 280.000 C 269.820 298.519,269.732 300.697,269.122 301.558 C 267.975 303.178,266.353 303.995,264.276 303.997 C 263.096 303.999,262.448 304.155,262.600 304.400 C 263.419 305.725,268.102 303.962,269.500 301.802 L 270.400 300.411 270.400 280.006 L 270.400 259.600 284.806 259.600 C 301.828 259.600,302.941 259.274,303.269 254.200 C 303.440 251.548,303.186 250.786,301.600 249.200 L 300.000 247.600 285.408 247.600 L 270.815 247.600 270.596 246.700 C 270.476 246.205,270.427 239.230,270.489 231.200 L 270.600 216.600 286.432 216.400 L 302.264 216.200 303.701 215.103 C 307.231 212.409,307.218 207.643,303.673 205.000 C 302.511 204.134,263.754 203.566,261.757 204.386 M176.200 205.128 C 174.278 205.848,173.342 206.527,172.500 207.814 L 171.600 209.189 171.601 254.094 C 171.603 298.834,171.606 299.005,172.433 300.361 C 174.510 303.769,175.218 303.891,191.200 303.600 L 204.200 303.364 190.247 303.282 C 174.456 303.189,174.613 303.219,172.885 299.982 L 172.000 298.324 172.000 253.954 L 172.000 209.583 173.015 208.049 C 174.648 205.581,174.507 205.600,191.519 205.600 C 208.585 205.600,210.888 205.848,217.143 208.361 C 249.265 221.267,251.796 280.140,221.000 298.079 C 216.927 300.452,213.235 301.691,207.600 302.578 C 204.477 303.069,204.367 303.116,206.245 303.156 C 209.839 303.233,217.808 300.818,220.862 298.727 C 221.446 298.327,222.106 298.000,222.328 298.000 C 222.551 298.000,222.793 297.865,222.867 297.700 C 222.940 297.535,223.776 296.873,224.725 296.228 C 244.565 282.752,249.399 243.671,233.978 221.413 C 231.429 217.733,225.269 211.600,224.122 211.600 C 223.835 211.600,223.600 211.446,223.600 211.258 C 223.600 210.649,216.344 207.259,213.200 206.399 C 212.210 206.128,210.860 205.726,210.200 205.505 C 208.783 205.030,177.390 204.683,176.200 205.128 M105.696 234.900 L 105.800 254.200 117.000 254.200 C 129.510 254.200,130.595 254.029,135.069 251.349 C 149.420 242.754,146.855 222.005,130.768 216.562 C 128.032 215.637,127.497 215.600,116.758 215.600 L 105.592 215.600 105.696 234.900 M128.942 216.588 C 134.286 217.864,139.860 222.152,141.958 226.600 C 142.477 227.700,143.101 229.027,143.345 229.550 C 144.398 231.805,143.856 239.165,142.413 242.200 C 138.054 251.370,133.439 253.500,117.550 253.678 L 106.600 253.800 106.496 234.900 L 106.392 216.000 116.496 216.014 C 123.726 216.024,127.266 216.188,128.942 216.588 M183.471 217.358 C 183.336 217.711,183.339 234.560,183.478 254.800 L 183.731 291.600 194.660 291.600 C 204.824 291.600,207.596 291.384,210.200 290.387 C 210.640 290.219,211.630 289.851,212.400 289.571 C 213.170 289.290,214.278 288.732,214.862 288.330 C 215.446 287.929,216.128 287.600,216.377 287.600 C 217.164 287.600,224.157 280.271,225.159 278.395 C 229.695 269.910,231.195 263.835,231.198 253.952 C 231.204 235.135,223.253 221.559,210.000 217.757 C 206.605 216.783,183.824 216.440,183.471 217.358 M209.200 218.173 C 215.028 219.630,219.413 222.606,223.500 227.877 C 224.215 228.799,224.804 229.699,224.809 229.877 C 224.814 230.054,225.170 230.650,225.600 231.200 C 226.030 231.750,226.386 232.515,226.391 232.900 C 226.396 233.285,226.541 233.600,226.713 233.600 C 226.885 233.600,227.271 234.455,227.571 235.500 C 227.871 236.545,228.248 237.580,228.408 237.800 C 228.568 238.020,228.804 238.740,228.932 239.400 C 229.060 240.060,229.359 241.500,229.597 242.600 C 231.130 249.684,230.925 260.698,229.135 267.400 C 228.177 270.986,225.991 276.437,225.205 277.200 C 225.091 277.310,224.729 277.940,224.399 278.600 C 223.273 280.855,217.135 286.619,214.377 288.012 C 209.154 290.649,207.522 290.906,194.900 291.077 L 184.000 291.225 184.000 254.164 L 184.000 217.104 195.300 217.313 C 203.830 217.471,207.237 217.682,209.200 218.173 " stroke="none" fill="#88333a" fill-rule="evenodd"></path><path id="path4" d="M74.200 12.090 C 73.320 12.304,72.287 12.641,71.905 12.839 C 71.523 13.038,71.026 13.200,70.801 13.200 C 67.578 13.200,58.651 20.354,55.905 25.136 C 51.469 32.864,51.837 28.729,51.604 73.400 C 51.445 103.943,51.288 112.795,50.895 113.484 C 50.200 114.699,47.892 116.400,46.939 116.400 C 46.260 116.400,44.211 117.553,44.827 117.587 C 46.149 117.661,49.321 116.168,50.362 114.982 C 51.043 114.206,51.639 113.533,51.687 113.486 C 51.734 113.439,51.873 95.760,51.995 74.200 L 52.217 35.000 53.122 32.400 C 56.102 23.833,61.714 17.625,69.355 14.444 C 75.588 11.850,70.378 11.996,154.926 12.040 C 197.207 12.062,232.250 12.205,232.800 12.358 L 233.800 12.636 234.000 39.689 C 234.196 66.229,234.216 66.763,235.025 67.846 C 236.448 69.753,240.000 71.581,240.000 70.408 C 240.000 70.183,239.556 70.000,239.014 70.000 C 237.628 70.000,235.299 67.821,234.812 66.067 C 234.555 65.141,234.404 55.011,234.402 38.580 C 234.401 18.878,234.283 12.443,233.920 12.080 C 233.306 11.466,76.727 11.476,74.200 12.090 M237.287 86.665 C 232.501 89.024,232.936 102.595,238.080 111.400 C 240.563 115.651,245.789 120.580,250.060 122.698 C 257.074 126.177,253.985 125.987,303.646 125.994 L 347.491 126.000 347.746 127.856 C 347.886 128.877,348.000 136.728,348.000 145.302 L 348.000 160.893 346.900 160.588 C 344.480 159.916,317.742 159.906,316.446 160.576 C 314.343 161.664,312.149 165.551,313.254 166.233 C 313.444 166.351,313.600 166.001,313.600 165.456 C 313.600 163.880,314.865 162.093,316.618 161.191 C 318.167 160.394,334.157 160.229,346.400 160.883 L 348.600 161.000 348.600 144.800 C 348.600 135.890,348.457 127.925,348.282 127.100 L 347.964 125.600 304.528 125.600 C 279.644 125.600,260.475 125.444,259.646 125.235 C 258.851 125.034,257.210 124.646,256.000 124.374 C 254.790 124.101,253.530 123.746,253.200 123.586 C 252.870 123.425,252.060 123.049,251.400 122.750 C 245.814 120.223,239.677 114.133,237.344 108.800 C 237.104 108.250,236.704 107.350,236.457 106.800 C 233.007 99.139,234.291 86.824,238.542 86.794 C 239.014 86.791,239.670 86.613,240.000 86.400 C 241.053 85.719,238.750 85.945,237.287 86.665 M45.071 132.241 C 45.172 132.504,46.023 132.912,46.962 133.149 C 51.203 134.217,51.595 135.637,51.598 149.940 L 51.600 161.281 53.500 160.988 C 58.712 160.184,292.364 160.365,293.948 161.174 C 295.572 162.002,296.796 163.506,296.806 164.686 C 296.809 165.079,297.004 165.670,297.239 166.000 C 297.562 166.453,297.616 166.235,297.460 165.108 C 297.178 163.074,295.533 161.035,293.702 160.449 C 291.941 159.885,54.997 160.000,53.100 160.565 L 52.000 160.893 52.000 149.497 C 52.000 136.502,51.937 135.962,50.224 134.254 C 48.925 132.960,44.716 131.315,45.071 132.241 M173.642 343.880 C 172.932 346.021,171.414 347.474,169.391 347.947 C 167.885 348.300,167.866 348.322,169.041 348.360 C 171.401 348.436,174.627 345.191,174.321 343.048 C 174.232 342.423,174.054 342.641,173.642 343.880 M189.632 343.120 C 189.555 345.357,191.903 347.945,194.243 348.203 C 195.099 348.298,195.440 348.273,195.000 348.148 C 192.265 347.372,190.907 345.959,189.862 342.800 C 189.741 342.437,189.651 342.563,189.632 343.120 M51.695 356.638 C 52.022 373.935,58.949 383.862,73.400 387.737 C 75.738 388.364,323.113 388.596,325.600 387.974 C 341.223 384.064,348.800 373.117,348.800 354.455 C 348.800 346.850,349.147 347.310,343.875 347.920 L 340.200 348.344 344.144 348.180 L 348.088 348.016 347.898 356.708 C 347.776 362.288,347.526 365.901,347.199 366.800 C 343.247 377.661,337.465 383.642,327.800 386.866 L 325.000 387.800 200.200 387.800 L 75.400 387.800 72.600 386.866 C 62.752 383.583,56.367 377.253,53.164 367.600 C 52.423 365.368,52.272 363.788,52.100 356.447 L 51.900 347.895 53.250 348.150 C 53.992 348.291,57.930 348.474,62.000 348.556 C 69.093 348.700,69.168 348.694,63.800 348.405 C 60.720 348.240,56.698 347.963,54.861 347.790 L 51.522 347.475 51.695 356.638 " stroke="none" fill="#5c5c5c" fill-rule="evenodd"></path></g></svg>