<svg id="svg" version="1.1" xmlns="http://www.w3.org/2000/svg" xmlns:xlink="http://www.w3.org/1999/xlink" width="400" height="400" viewBox="0, 0, 400,400"><g id="svgg"><path id="path0" d="M65.412 109.981 C 65.269 110.212,64.184 110.400,63.000 110.400 C 61.816 110.400,60.736 110.580,60.600 110.800 C 60.464 111.020,59.913 111.200,59.376 111.200 C 58.839 111.200,58.400 111.380,58.400 111.600 C 58.400 111.820,57.860 112.000,57.200 112.000 C 56.540 112.000,56.000 112.180,56.000 112.400 C 56.000 112.620,55.640 112.800,55.200 112.800 C 54.760 112.800,54.400 112.980,54.400 113.200 C 54.400 113.420,54.165 113.600,53.878 113.600 C 53.103 113.600,50.400 116.207,50.400 116.954 C 50.400 117.309,50.220 117.600,50.000 117.600 C 49.752 117.600,49.600 119.725,49.600 123.176 C 49.600 126.463,49.764 128.854,50.000 129.000 C 50.220 129.136,50.400 129.856,50.400 130.600 C 50.400 131.344,50.580 132.064,50.800 132.200 C 51.020 132.336,51.200 132.887,51.200 133.424 C 51.200 133.961,51.380 134.400,51.600 134.400 C 51.820 134.400,52.000 134.839,52.000 135.376 C 52.000 135.913,52.180 136.464,52.400 136.600 C 52.620 136.736,52.800 137.297,52.800 137.847 C 52.800 138.412,52.974 138.740,53.200 138.600 C 53.433 138.456,53.600 138.863,53.600 139.576 C 53.600 140.249,53.780 140.800,54.000 140.800 C 54.220 140.800,54.400 141.160,54.400 141.600 C 54.400 142.040,54.580 142.400,54.800 142.400 C 55.020 142.400,55.200 142.760,55.200 143.200 C 55.200 143.640,55.380 144.000,55.600 144.000 C 55.820 144.000,56.000 144.272,56.000 144.605 C 56.000 144.938,56.180 145.568,56.400 146.005 C 56.620 146.442,56.980 147.158,57.200 147.595 C 57.420 148.032,57.600 148.672,57.600 149.018 C 57.600 149.364,57.780 149.536,58.000 149.400 C 58.222 149.263,58.401 149.563,58.401 150.076 C 58.402 150.584,58.740 151.552,59.152 152.228 C 59.563 152.903,60.036 153.893,60.203 154.428 C 60.369 154.962,60.841 155.878,61.252 156.462 C 61.664 157.046,62.000 157.811,62.000 158.162 C 62.000 158.513,62.180 158.800,62.400 158.800 C 62.620 158.800,62.800 159.160,62.800 159.600 C 62.800 160.040,62.935 160.401,63.100 160.403 C 63.459 160.407,64.400 162.344,64.400 163.080 C 64.400 163.366,64.558 163.600,64.751 163.600 C 64.945 163.600,65.327 164.140,65.600 164.800 C 65.873 165.460,66.255 166.000,66.449 166.000 C 66.642 166.000,66.800 166.360,66.800 166.800 C 66.800 167.240,66.935 167.601,67.100 167.603 C 67.459 167.607,68.400 169.544,68.400 170.280 C 68.400 170.566,68.580 170.800,68.800 170.800 C 69.020 170.800,69.200 171.070,69.200 171.400 C 69.200 171.730,69.380 172.000,69.600 172.000 C 69.820 172.000,70.000 172.270,70.000 172.600 C 70.000 172.930,70.180 173.200,70.400 173.200 C 70.620 173.200,70.800 173.560,70.800 174.000 C 70.800 174.440,70.980 174.800,71.200 174.800 C 71.420 174.800,71.600 175.070,71.600 175.400 C 71.600 175.730,71.780 176.000,72.000 176.000 C 72.220 176.000,72.400 176.236,72.400 176.525 C 72.400 176.813,72.760 177.436,73.200 177.908 C 73.640 178.380,74.000 179.044,74.000 179.383 C 74.000 179.722,74.159 180.000,74.353 180.000 C 74.548 180.000,74.806 180.315,74.928 180.700 C 75.150 181.404,76.826 184.427,77.201 184.800 C 77.669 185.265,80.000 189.285,80.000 189.627 C 80.000 189.832,80.150 190.000,80.332 190.000 C 80.515 190.000,80.919 190.495,81.230 191.100 C 81.540 191.705,82.111 192.491,82.497 192.847 C 82.884 193.203,83.200 193.706,83.200 193.965 C 83.200 194.224,83.637 194.873,84.171 195.407 C 84.705 195.941,85.464 196.923,85.857 197.589 C 86.251 198.255,86.714 198.800,86.886 198.800 C 87.059 198.800,87.200 199.078,87.200 199.418 C 87.200 199.758,87.637 200.473,88.171 201.007 C 88.705 201.541,89.464 202.523,89.857 203.189 C 90.251 203.855,90.714 204.400,90.886 204.400 C 91.059 204.400,91.202 204.625,91.204 204.900 C 91.209 205.547,93.625 208.690,97.129 212.609 C 97.419 212.934,97.575 213.200,97.475 213.200 C 97.375 213.200,97.992 213.942,98.847 214.849 C 99.701 215.757,100.400 216.661,100.400 216.859 C 100.400 217.057,101.165 218.038,102.100 219.039 C 106.265 223.501,106.800 224.113,106.800 224.420 C 106.800 224.599,107.160 224.860,107.600 225.000 C 108.040 225.140,108.400 225.402,108.400 225.583 C 108.400 225.764,109.479 227.057,110.797 228.456 C 112.115 229.855,113.195 231.132,113.197 231.294 C 113.205 232.005,122.826 241.051,124.564 241.981 C 125.134 242.286,125.600 242.682,125.600 242.861 C 125.600 243.320,131.530 249.200,131.993 249.200 C 132.202 249.200,132.964 249.788,133.687 250.507 C 134.409 251.225,135.630 252.253,136.400 252.791 C 137.170 253.329,138.250 254.233,138.800 254.800 C 139.350 255.367,140.430 256.265,141.200 256.796 C 141.970 257.327,142.713 257.924,142.850 258.123 C 143.524 259.099,143.604 257.184,143.036 253.684 C 140.081 235.467,141.772 221.052,148.349 208.400 C 154.067 197.401,162.286 190.248,175.500 184.773 C 182.266 181.969,183.580 181.942,183.594 184.603 C 183.601 186.034,183.864 186.944,185.786 192.200 C 186.590 194.400,187.517 197.010,187.844 198.000 C 188.172 198.990,188.593 200.160,188.780 200.600 C 188.966 201.040,189.336 202.030,189.600 202.800 C 190.182 204.493,190.771 205.960,191.247 206.895 C 191.441 207.277,191.600 207.941,191.600 208.371 C 191.600 208.801,191.780 209.264,192.000 209.400 C 192.220 209.536,192.400 209.999,192.400 210.429 C 192.400 210.859,192.559 211.523,192.753 211.905 C 193.229 212.840,193.818 214.307,194.400 216.000 C 194.664 216.770,195.024 217.760,195.200 218.200 C 195.376 218.640,195.736 219.630,196.000 220.400 C 196.264 221.170,196.667 222.250,196.894 222.800 C 197.778 224.939,197.996 225.526,199.345 229.400 C 200.111 231.600,201.397 235.200,202.202 237.400 C 203.007 239.600,203.756 241.760,203.866 242.200 C 203.977 242.640,204.256 243.450,204.487 244.000 C 205.063 245.371,205.435 246.355,206.000 248.000 C 206.264 248.770,206.621 249.760,206.791 250.200 C 207.352 251.645,209.779 256.596,210.026 256.800 C 210.159 256.910,211.407 258.710,212.801 260.800 C 215.480 264.818,222.488 274.187,223.574 275.200 C 223.927 275.530,224.719 276.430,225.334 277.200 C 225.949 277.970,227.925 280.093,229.726 281.917 C 233.886 286.131,233.768 286.797,231.976 269.200 C 231.763 267.110,231.388 262.790,231.142 259.600 C 230.895 256.410,230.566 252.360,230.409 250.600 C 230.132 247.475,228.997 241.398,228.393 239.800 C 228.227 239.360,227.866 238.190,227.592 237.200 C 226.473 233.172,226.287 232.571,225.951 231.905 C 225.758 231.523,225.600 230.846,225.600 230.400 C 225.600 229.954,225.441 229.277,225.246 228.895 C 225.051 228.513,224.502 226.940,224.026 225.400 C 223.549 223.860,222.988 222.195,222.779 221.700 C 222.571 221.205,222.244 220.395,222.054 219.900 C 221.863 219.405,221.520 218.550,221.291 218.000 C 221.062 217.450,220.101 215.020,219.156 212.600 C 218.210 210.180,216.781 206.850,215.980 205.200 C 215.178 203.550,214.006 201.030,213.374 199.600 C 212.743 198.170,211.725 196.037,211.113 194.859 C 210.501 193.682,210.000 192.467,210.000 192.159 C 210.000 191.852,209.865 191.599,209.700 191.597 C 209.535 191.595,209.201 191.190,208.959 190.697 C 208.078 188.908,204.782 182.935,202.546 179.079 C 201.806 177.802,201.200 176.602,201.200 176.412 C 201.200 176.222,201.035 176.007,200.834 175.933 C 200.455 175.795,196.000 169.364,196.000 168.955 C 196.000 168.828,195.666 168.246,195.258 167.662 C 194.849 167.078,194.397 165.834,194.253 164.899 C 194.014 163.353,193.553 162.515,192.100 160.984 C 191.825 160.694,191.600 160.270,191.600 160.040 C 191.600 159.811,190.876 159.292,189.992 158.886 C 189.108 158.481,188.519 158.015,188.683 157.851 C 188.847 157.687,187.686 157.590,186.104 157.636 C 184.522 157.683,183.302 157.841,183.392 157.988 C 183.483 158.134,182.937 158.479,182.179 158.753 C 181.235 159.095,180.800 159.503,180.800 160.049 C 180.800 160.488,180.657 160.759,180.483 160.651 C 180.309 160.544,180.123 161.025,180.069 161.721 C 180.016 162.417,179.820 163.140,179.634 163.326 C 179.447 163.513,179.484 164.280,179.714 165.032 C 180.484 167.539,179.278 167.162,175.769 163.800 C 172.922 161.072,170.122 158.721,168.863 158.000 C 168.287 157.670,167.334 156.905,166.747 156.300 C 166.160 155.695,165.471 155.200,165.216 155.200 C 164.961 155.200,164.864 155.020,165.000 154.800 C 165.136 154.580,164.949 154.400,164.584 154.400 C 164.219 154.400,163.417 153.860,162.800 153.200 C 162.183 152.540,161.516 152.000,161.318 152.000 C 161.119 152.000,160.259 151.361,159.406 150.580 C 158.553 149.799,157.348 148.860,156.728 148.494 C 156.108 148.127,155.600 147.686,155.600 147.514 C 155.600 147.341,155.330 147.200,155.000 147.200 C 154.670 147.200,154.400 147.050,154.400 146.868 C 154.400 146.685,153.905 146.280,153.300 145.968 C 152.695 145.656,152.110 145.306,152.000 145.189 C 151.332 144.480,147.512 142.000,147.087 142.000 C 146.806 142.000,146.317 141.640,146.000 141.200 C 145.683 140.760,145.103 140.400,144.712 140.400 C 144.320 140.400,144.000 140.220,144.000 140.000 C 144.000 139.780,143.680 139.600,143.288 139.600 C 142.897 139.600,142.317 139.240,142.000 138.800 C 141.683 138.360,141.227 138.000,140.987 138.000 C 140.747 138.000,140.202 137.685,139.775 137.300 C 139.349 136.915,138.460 136.330,137.800 136.000 C 137.140 135.670,136.251 135.085,135.825 134.700 C 135.398 134.315,134.813 134.000,134.525 134.000 C 134.236 134.000,134.000 133.820,134.000 133.600 C 134.000 133.380,133.640 133.200,133.200 133.200 C 132.760 133.200,132.400 133.020,132.400 132.800 C 132.400 132.580,132.040 132.400,131.600 132.400 C 131.160 132.400,130.800 132.220,130.800 132.000 C 130.800 131.780,130.440 131.600,130.000 131.600 C 129.560 131.600,129.200 131.448,129.200 131.263 C 129.200 131.077,128.345 130.492,127.300 129.963 C 126.255 129.433,125.340 128.865,125.267 128.700 C 125.193 128.535,124.886 128.400,124.584 128.400 C 124.282 128.400,123.172 127.900,122.118 127.289 C 121.063 126.677,119.390 125.849,118.400 125.448 C 117.410 125.046,116.287 124.556,115.905 124.359 C 115.523 124.162,114.848 124.000,114.405 124.000 C 113.962 124.000,113.600 123.820,113.600 123.600 C 113.600 123.380,113.240 123.200,112.800 123.200 C 112.360 123.200,112.000 123.020,112.000 122.800 C 112.000 122.580,111.640 122.400,111.200 122.400 C 110.760 122.400,110.400 122.220,110.400 122.000 C 110.400 121.780,110.040 121.600,109.600 121.600 C 109.160 121.600,108.800 121.420,108.800 121.200 C 108.800 120.980,108.445 120.800,108.012 120.800 C 107.579 120.800,106.583 120.440,105.800 120.000 C 105.017 119.560,104.109 119.200,103.782 119.200 C 103.456 119.200,102.832 119.020,102.395 118.800 C 101.958 118.580,101.242 118.220,100.805 118.000 C 100.368 117.780,99.738 117.600,99.405 117.600 C 99.072 117.600,98.800 117.420,98.800 117.200 C 98.800 116.980,98.260 116.800,97.600 116.800 C 96.940 116.800,96.400 116.664,96.400 116.497 C 96.400 116.131,93.533 115.200,92.406 115.200 C 91.963 115.200,91.600 115.020,91.600 114.800 C 91.600 114.580,91.161 114.400,90.624 114.400 C 90.087 114.400,89.536 114.220,89.400 114.000 C 89.264 113.780,88.724 113.600,88.200 113.600 C 87.676 113.600,87.136 113.420,87.000 113.200 C 86.864 112.980,86.144 112.800,85.400 112.800 C 84.656 112.800,83.936 112.620,83.800 112.400 C 83.664 112.180,83.113 112.000,82.576 112.000 C 82.039 112.000,81.600 111.820,81.600 111.600 C 81.600 111.380,80.826 111.200,79.880 111.200 C 78.934 111.200,77.989 111.039,77.780 110.842 C 77.052 110.156,65.788 109.373,65.412 109.981 " stroke="none" fill="#04a3e3" fill-rule="evenodd"></path><path id="path1" d="M180.200 183.067 C 179.100 183.406,177.750 183.869,177.200 184.096 C 176.650 184.322,175.840 184.651,175.400 184.826 C 157.850 191.833,147.298 204.282,143.213 222.800 C 141.363 231.188,141.140 242.054,142.632 251.200 C 143.008 253.510,143.335 256.057,143.358 256.860 C 143.381 257.663,143.545 258.231,143.723 258.122 C 143.901 258.014,146.170 259.194,148.765 260.747 C 155.503 264.775,160.244 266.927,165.500 268.342 C 166.435 268.594,167.887 268.998,168.727 269.240 C 170.442 269.734,180.139 269.495,183.400 268.878 C 188.152 267.979,197.481 263.803,204.711 259.338 C 206.971 257.942,208.996 256.800,209.211 256.800 C 209.823 256.800,209.687 256.291,208.347 253.556 C 207.035 250.878,206.786 250.288,206.000 248.000 C 205.435 246.355,205.063 245.371,204.487 244.000 C 204.256 243.450,203.977 242.640,203.866 242.200 C 203.756 241.760,203.007 239.600,202.202 237.400 C 201.397 235.200,200.111 231.600,199.345 229.400 C 198.579 227.200,197.759 224.950,197.522 224.400 C 196.962 223.095,196.588 222.112,196.000 220.400 C 195.736 219.630,195.376 218.640,195.200 218.200 C 195.024 217.760,194.664 216.770,194.400 216.000 C 193.818 214.307,193.229 212.840,192.753 211.905 C 192.559 211.523,192.400 210.859,192.400 210.429 C 192.400 209.999,192.220 209.536,192.000 209.400 C 191.780 209.264,191.600 208.801,191.600 208.371 C 191.600 207.941,191.441 207.277,191.247 206.895 C 190.771 205.960,190.182 204.493,189.600 202.800 C 189.336 202.030,188.966 201.040,188.780 200.600 C 188.593 200.160,188.172 198.990,187.844 198.000 C 187.517 197.010,186.582 194.400,185.768 192.200 C 184.468 188.687,184.090 187.295,183.351 183.300 C 183.158 182.255,182.892 182.236,180.200 183.067 M210.000 256.947 C 210.000 257.427,216.204 266.435,217.613 268.000 L 218.872 269.400 217.576 267.667 C 216.863 266.713,214.867 263.842,213.140 261.286 C 211.413 258.731,210.000 256.778,210.000 256.947 M231.709 266.000 C 231.709 266.990,231.787 267.395,231.882 266.900 C 231.978 266.405,231.978 265.595,231.882 265.100 C 231.787 264.605,231.709 265.010,231.709 266.000 M219.540 270.716 C 220.033 271.409,220.644 272.104,220.897 272.260 C 221.150 272.417,220.954 271.977,220.460 271.284 C 219.967 270.591,219.356 269.896,219.103 269.740 C 218.850 269.583,219.046 270.023,219.540 270.716 M232.501 274.600 C 232.505 275.480,232.587 275.793,232.683 275.295 C 232.779 274.798,232.775 274.078,232.675 273.695 C 232.575 273.313,232.496 273.720,232.501 274.600 M223.600 275.725 C 223.600 275.794,224.173 276.379,224.874 277.025 L 226.149 278.200 225.174 276.922 C 224.347 275.837,223.600 275.269,223.600 275.725 M226.000 278.525 C 226.000 278.594,226.585 279.179,227.300 279.825 L 228.600 281.000 227.425 279.700 C 226.330 278.488,226.000 278.216,226.000 278.525 M230.786 283.300 C 233.187 285.825,233.623 286.046,233.554 284.700 C 233.515 283.951,233.475 283.926,233.315 284.548 C 233.153 285.181,232.773 284.964,230.861 283.148 L 228.600 281.000 230.786 283.300 " stroke="none" fill="#04ab5c" fill-rule="evenodd"></path><path id="path2" d="M241.400 166.791 C 240.300 166.977,238.379 167.146,237.131 167.165 C 235.882 167.184,233.992 167.371,232.931 167.581 C 231.869 167.790,229.650 168.170,228.000 168.425 C 226.350 168.679,224.460 169.027,223.800 169.198 C 223.140 169.369,221.520 169.728,220.200 169.997 C 218.880 170.266,217.350 170.625,216.800 170.796 C 216.250 170.967,214.990 171.332,214.000 171.607 C 211.591 172.276,207.591 173.570,206.600 174.000 C 206.160 174.191,205.080 174.575,204.200 174.853 C 202.118 175.512,201.337 176.193,201.878 176.880 C 202.104 177.166,203.064 178.840,204.012 180.600 C 205.815 183.946,206.624 185.402,208.067 187.900 C 209.108 189.701,214.800 201.095,214.800 201.376 C 214.800 201.485,215.483 202.975,216.318 204.687 C 217.153 206.399,218.610 209.780,219.556 212.200 C 220.501 214.620,221.438 217.005,221.638 217.500 C 221.837 217.995,222.162 218.805,222.361 219.300 C 223.105 221.156,224.357 224.648,224.763 226.000 C 224.994 226.770,225.522 228.480,225.938 229.800 C 226.353 231.120,226.923 233.010,227.204 234.000 C 227.485 234.990,227.965 236.586,228.269 237.547 C 230.144 243.466,231.737 256.642,233.836 283.600 C 234.137 287.475,234.721 289.165,236.185 290.400 C 236.837 290.950,238.499 292.525,239.878 293.900 C 241.257 295.275,242.480 296.400,242.596 296.400 C 242.712 296.400,243.372 296.940,244.063 297.600 C 244.754 298.260,245.483 298.800,245.683 298.800 C 245.883 298.800,245.936 298.980,245.800 299.200 C 245.664 299.420,245.833 299.600,246.176 299.600 C 246.519 299.600,246.800 299.780,246.800 300.000 C 246.800 300.220,246.980 300.400,247.200 300.400 C 247.419 300.400,248.341 301.120,249.248 302.000 C 250.155 302.880,251.062 303.600,251.265 303.600 C 251.468 303.600,252.031 303.972,252.517 304.426 C 253.342 305.197,256.093 306.955,258.805 308.444 C 259.450 308.798,259.863 309.203,259.723 309.344 C 259.582 309.485,259.671 309.600,259.920 309.600 C 260.345 309.600,264.826 312.299,265.883 313.192 C 266.149 313.416,266.644 313.600,266.983 313.600 C 267.322 313.600,267.600 313.780,267.600 314.000 C 267.600 314.220,267.960 314.400,268.400 314.400 C 268.840 314.400,269.200 314.580,269.200 314.800 C 269.200 315.020,269.560 315.200,270.000 315.200 C 270.440 315.200,270.800 315.380,270.800 315.600 C 270.800 315.820,271.160 316.000,271.600 316.000 C 272.040 316.000,272.400 316.180,272.400 316.400 C 272.400 316.620,272.760 316.800,273.200 316.800 C 273.640 316.800,274.000 316.980,274.000 317.200 C 274.000 317.420,274.360 317.600,274.800 317.600 C 275.240 317.600,275.600 317.780,275.600 318.000 C 275.600 318.220,275.960 318.400,276.400 318.400 C 276.840 318.400,277.200 318.580,277.200 318.800 C 277.200 319.020,277.639 319.200,278.176 319.200 C 278.713 319.200,279.264 319.380,279.400 319.600 C 279.536 319.820,280.267 320.000,281.024 320.000 C 281.781 320.000,282.400 320.180,282.400 320.400 C 282.400 320.639,283.933 320.800,286.200 320.800 C 288.467 320.800,290.000 320.639,290.000 320.400 C 290.000 320.180,290.463 320.000,291.029 320.000 C 291.594 320.000,292.329 319.728,292.661 319.396 C 292.993 319.064,293.430 318.895,293.632 319.020 C 293.835 319.145,294.000 319.087,294.000 318.891 C 294.000 318.695,294.492 318.280,295.093 317.968 C 295.694 317.655,296.711 316.905,297.352 316.300 C 297.994 315.695,298.665 315.200,298.843 315.200 C 299.155 315.200,307.443 307.391,308.761 305.856 C 309.112 305.446,310.525 303.940,311.900 302.509 C 313.275 301.078,314.400 299.742,314.400 299.540 C 314.400 299.338,315.030 298.543,315.800 297.773 C 316.570 297.003,317.200 296.227,317.200 296.049 C 317.200 295.870,317.650 295.201,318.200 294.562 C 318.749 293.923,319.199 293.215,319.200 292.988 C 319.200 292.762,319.560 292.317,320.000 292.000 C 320.440 291.683,320.800 291.271,320.800 291.084 C 320.800 290.897,321.340 289.959,322.000 289.000 C 322.660 288.041,323.200 287.105,323.200 286.921 C 323.200 286.736,323.650 285.923,324.200 285.114 C 324.750 284.305,325.200 283.363,325.200 283.021 C 325.200 282.680,325.380 282.400,325.600 282.400 C 325.820 282.400,326.000 282.040,326.000 281.600 C 326.000 281.160,326.180 280.800,326.400 280.800 C 326.620 280.800,326.800 280.440,326.800 280.000 C 326.800 279.560,326.980 279.200,327.200 279.200 C 327.420 279.200,327.600 278.840,327.600 278.400 C 327.600 277.960,327.780 277.600,328.000 277.600 C 328.220 277.600,328.400 277.060,328.400 276.400 C 328.400 275.740,328.536 275.200,328.702 275.200 C 328.869 275.200,329.240 274.615,329.529 273.900 C 329.817 273.185,330.221 272.287,330.426 271.905 C 330.632 271.523,330.800 270.938,330.800 270.605 C 330.800 270.272,330.980 270.000,331.200 270.000 C 331.420 270.000,331.600 269.460,331.600 268.800 C 331.600 268.140,331.780 267.600,332.000 267.600 C 332.220 267.600,332.400 267.060,332.400 266.400 C 332.400 265.740,332.560 265.200,332.756 265.200 C 332.952 265.200,333.222 264.570,333.356 263.800 C 333.490 263.030,333.710 261.770,333.844 261.000 C 333.978 260.230,334.248 259.600,334.444 259.600 C 334.640 259.600,334.800 258.891,334.800 258.024 C 334.800 257.157,334.980 256.336,335.200 256.200 C 335.420 256.064,335.600 255.164,335.600 254.200 C 335.600 253.236,335.780 252.336,336.000 252.200 C 336.220 252.064,336.400 251.099,336.400 250.056 C 336.400 249.013,336.569 247.989,336.775 247.780 C 337.123 247.428,337.273 245.361,337.779 233.914 C 337.891 231.387,337.811 229.530,337.584 229.390 C 337.373 229.260,337.200 227.093,337.200 224.576 C 337.200 221.792,337.043 220.000,336.800 220.000 C 336.575 220.000,336.400 218.875,336.400 217.424 C 336.400 216.007,336.220 214.736,336.000 214.600 C 335.780 214.464,335.600 213.631,335.600 212.748 C 335.600 211.270,334.925 210.007,334.129 209.995 C 333.807 209.990,332.000 207.433,332.000 206.984 C 332.000 206.703,328.969 202.178,327.833 200.763 C 327.375 200.192,326.471 199.022,325.824 198.163 C 324.622 196.567,316.047 187.886,314.600 186.800 C 314.160 186.470,312.630 185.324,311.200 184.254 C 306.742 180.918,301.780 178.182,292.600 173.995 C 291.295 173.400,283.131 170.725,281.400 170.326 C 279.858 169.970,278.575 169.682,274.500 168.779 C 266.917 167.098,246.739 165.887,241.400 166.791 " stroke="none" fill="#f7b84c" fill-rule="evenodd"></path><path id="path3" d="M306.800 64.000 C 306.800 64.225,305.675 64.400,304.224 64.400 C 302.807 64.400,301.536 64.580,301.400 64.800 C 301.264 65.020,300.544 65.200,299.800 65.200 C 299.056 65.200,298.336 65.380,298.200 65.600 C 298.064 65.820,297.513 66.000,296.976 66.000 C 296.439 66.000,296.000 66.180,296.000 66.400 C 296.000 66.620,295.550 66.800,295.000 66.800 C 294.450 66.800,294.000 66.980,294.000 67.200 C 294.000 67.420,293.550 67.600,293.000 67.600 C 292.450 67.600,292.000 67.780,292.000 68.000 C 292.000 68.220,291.640 68.400,291.200 68.400 C 290.760 68.400,290.400 68.580,290.400 68.800 C 290.400 69.020,290.040 69.200,289.600 69.200 C 289.160 69.200,288.800 69.380,288.800 69.600 C 288.800 69.820,288.455 70.000,288.033 70.000 C 287.612 70.000,287.207 70.135,287.133 70.300 C 287.013 70.570,284.911 71.778,282.503 72.960 C 282.010 73.202,281.605 73.535,281.603 73.700 C 281.601 73.865,281.240 74.000,280.800 74.000 C 280.360 74.000,280.000 74.180,280.000 74.400 C 280.000 74.620,279.741 74.800,279.425 74.800 C 278.687 74.800,270.243 79.169,270.067 79.643 C 269.993 79.839,269.628 80.000,269.255 80.000 C 268.882 80.000,268.317 80.360,268.000 80.800 C 267.683 81.240,267.186 81.600,266.895 81.600 C 266.604 81.600,265.980 81.960,265.508 82.400 C 265.036 82.840,264.413 83.200,264.125 83.200 C 263.836 83.200,263.600 83.380,263.600 83.600 C 263.600 83.820,263.364 84.000,263.075 84.000 C 262.787 84.000,262.202 84.315,261.775 84.700 C 261.349 85.085,260.505 85.655,259.900 85.968 C 259.295 86.280,258.800 86.685,258.800 86.868 C 258.800 87.050,258.530 87.200,258.200 87.200 C 257.870 87.200,257.600 87.380,257.600 87.600 C 257.600 87.820,257.364 88.000,257.075 88.000 C 256.787 88.000,256.164 88.360,255.692 88.800 C 255.220 89.240,254.622 89.600,254.364 89.600 C 254.105 89.600,253.603 89.917,253.247 90.306 C 252.891 90.694,251.925 91.364,251.100 91.796 C 250.275 92.228,249.600 92.709,249.600 92.864 C 249.600 93.019,249.285 93.246,248.900 93.369 C 248.515 93.491,247.743 94.016,247.183 94.534 C 246.624 95.053,245.977 95.550,245.744 95.639 C 245.188 95.851,242.373 98.173,240.094 100.300 C 239.092 101.235,238.118 102.000,237.929 102.000 C 237.740 102.000,236.439 103.125,235.038 104.500 C 233.637 105.875,231.454 107.900,230.187 109.000 C 226.461 112.234,225.600 113.094,225.600 113.584 C 225.600 113.839,225.447 113.953,225.260 113.837 C 225.073 113.722,224.683 114.071,224.393 114.614 C 224.102 115.156,223.715 115.600,223.532 115.600 C 223.350 115.600,223.200 115.789,223.200 116.019 C 223.200 116.250,221.940 117.681,220.400 119.200 C 218.860 120.719,217.600 122.164,217.600 122.412 C 217.600 122.660,216.880 123.554,216.000 124.400 C 215.120 125.246,214.400 126.043,214.400 126.172 C 214.400 126.302,213.860 126.972,213.200 127.663 C 212.540 128.354,212.000 129.140,212.000 129.410 C 212.000 129.681,211.725 130.130,211.389 130.409 C 210.598 131.065,208.400 134.322,208.400 134.837 C 208.400 135.055,208.040 135.620,207.600 136.092 C 207.160 136.564,206.800 137.187,206.800 137.475 C 206.800 137.764,206.620 138.000,206.400 138.000 C 206.180 138.000,206.000 138.360,206.000 138.800 C 206.000 139.240,205.820 139.600,205.600 139.600 C 205.380 139.600,205.200 139.836,205.200 140.125 C 205.200 140.413,204.875 140.998,204.478 141.425 C 204.080 141.851,203.497 142.785,203.180 143.500 C 202.864 144.215,202.469 144.800,202.302 144.800 C 202.136 144.800,202.000 145.160,202.000 145.600 C 202.000 146.040,201.820 146.400,201.600 146.400 C 201.380 146.400,201.200 146.760,201.200 147.200 C 201.200 147.640,201.020 148.000,200.800 148.000 C 200.580 148.000,200.400 148.360,200.400 148.800 C 200.400 149.240,200.220 149.600,200.000 149.600 C 199.780 149.600,199.600 149.960,199.600 150.400 C 199.600 150.840,199.420 151.200,199.200 151.200 C 198.980 151.200,198.800 151.740,198.800 152.400 C 198.800 153.060,198.620 153.600,198.400 153.600 C 198.180 153.600,198.000 153.960,198.000 154.400 C 198.000 154.840,197.820 155.200,197.600 155.200 C 197.380 155.200,197.200 155.740,197.200 156.400 C 197.200 157.060,197.020 157.600,196.800 157.600 C 196.580 157.600,196.400 157.960,196.400 158.400 C 196.400 158.840,196.209 159.200,195.976 159.200 C 195.743 159.200,195.638 159.339,195.743 159.508 C 195.848 159.677,195.605 160.747,195.204 161.886 C 194.491 163.912,194.565 165.801,195.415 167.253 C 198.925 173.246,201.334 176.288,202.118 175.718 C 202.383 175.525,203.320 175.137,204.200 174.857 C 205.080 174.577,206.160 174.191,206.600 174.000 C 207.591 173.570,211.591 172.276,214.000 171.607 C 214.990 171.332,216.250 170.967,216.800 170.796 C 217.350 170.625,218.880 170.266,220.200 169.997 C 221.520 169.728,223.140 169.369,223.800 169.198 C 224.460 169.027,226.350 168.677,228.000 168.419 C 229.650 168.161,231.990 167.789,233.200 167.592 C 243.680 165.885,264.174 166.473,274.500 168.776 C 275.545 169.009,277.165 169.370,278.100 169.578 C 279.035 169.786,280.520 170.122,281.400 170.326 C 283.131 170.725,291.295 173.400,292.600 173.995 C 301.780 178.182,306.742 180.918,311.200 184.254 C 312.630 185.324,314.160 186.470,314.600 186.800 C 316.047 187.886,324.622 196.567,325.824 198.163 C 326.471 199.022,327.375 200.192,327.833 200.763 C 328.969 202.178,332.000 206.703,332.000 206.984 C 332.000 207.562,333.855 209.991,334.300 209.995 C 334.575 209.998,334.803 210.225,334.806 210.500 C 334.817 211.413,335.587 209.849,335.594 208.900 C 335.597 208.405,335.780 208.000,336.000 208.000 C 336.220 208.000,336.400 207.561,336.400 207.024 C 336.400 206.487,336.580 205.936,336.800 205.800 C 337.020 205.664,337.200 205.124,337.200 204.600 C 337.200 204.076,337.380 203.536,337.600 203.400 C 337.820 203.264,338.000 202.724,338.000 202.200 C 338.000 201.676,338.180 201.136,338.400 201.000 C 338.620 200.864,338.800 200.324,338.800 199.800 C 338.800 199.276,338.980 198.736,339.200 198.600 C 339.420 198.464,339.600 197.924,339.600 197.400 C 339.600 196.876,339.780 196.336,340.000 196.200 C 340.220 196.064,340.400 195.524,340.400 195.000 C 340.400 194.476,340.572 193.941,340.782 193.811 C 340.991 193.682,341.285 192.501,341.433 191.188 C 341.582 189.875,341.860 188.800,342.052 188.800 C 342.243 188.800,342.400 188.170,342.400 187.400 C 342.400 186.630,342.580 186.000,342.800 186.000 C 343.020 186.000,343.200 185.370,343.200 184.600 C 343.200 183.830,343.380 183.200,343.600 183.200 C 343.820 183.200,344.000 182.480,344.000 181.600 C 344.000 180.720,344.180 180.000,344.400 180.000 C 344.620 180.000,344.800 179.280,344.800 178.400 C 344.800 177.520,344.980 176.800,345.200 176.800 C 345.420 176.800,345.600 176.181,345.600 175.424 C 345.600 174.667,345.780 173.936,346.000 173.800 C 346.220 173.664,346.400 172.753,346.400 171.776 C 346.400 170.799,346.580 170.000,346.800 170.000 C 347.020 170.000,347.200 169.111,347.200 168.024 C 347.200 166.937,347.380 165.936,347.600 165.800 C 347.820 165.664,348.000 164.573,348.000 163.376 C 348.000 162.179,348.180 161.200,348.400 161.200 C 348.620 161.200,348.800 160.210,348.800 159.000 C 348.800 157.790,348.980 156.800,349.200 156.800 C 349.433 156.800,349.600 155.467,349.600 153.600 C 349.600 151.733,349.767 150.400,350.000 150.400 C 350.259 150.400,350.400 145.200,350.400 135.600 C 350.400 126.000,350.259 120.800,350.000 120.800 C 349.769 120.800,349.600 119.541,349.600 117.824 C 349.600 116.187,349.420 114.736,349.200 114.600 C 348.980 114.464,348.800 113.373,348.800 112.176 C 348.800 110.979,348.620 110.000,348.400 110.000 C 348.180 110.000,348.000 109.280,348.000 108.400 C 348.000 107.520,347.820 106.800,347.600 106.800 C 347.380 106.800,347.200 106.080,347.200 105.200 C 347.200 104.320,347.020 103.600,346.800 103.600 C 346.580 103.600,346.400 103.071,346.400 102.424 C 346.400 101.777,346.220 101.136,346.000 101.000 C 345.780 100.864,345.600 100.234,345.600 99.600 C 345.600 98.966,345.420 98.336,345.200 98.200 C 344.980 98.064,344.800 97.524,344.800 97.000 C 344.800 96.476,344.620 95.936,344.400 95.800 C 344.180 95.664,344.000 95.203,344.000 94.776 C 344.000 94.349,343.820 94.000,343.600 94.000 C 343.380 94.000,343.200 93.550,343.200 93.000 C 343.200 92.450,343.020 92.000,342.800 92.000 C 342.580 92.000,342.400 91.640,342.400 91.200 C 342.400 90.760,342.220 90.400,342.000 90.400 C 341.780 90.400,341.600 90.003,341.600 89.518 C 341.600 88.465,338.820 82.400,338.337 82.400 C 338.152 82.400,338.000 82.040,338.000 81.600 C 338.000 81.160,337.859 80.800,337.686 80.800 C 337.514 80.800,337.051 80.255,336.657 79.589 C 336.264 78.923,335.505 77.941,334.971 77.407 C 334.437 76.873,334.000 76.346,334.000 76.235 C 334.000 75.876,329.470 71.600,329.090 71.600 C 328.887 71.600,328.217 71.060,327.600 70.400 C 326.983 69.740,326.257 69.200,325.986 69.200 C 325.716 69.200,325.203 68.871,324.847 68.470 C 324.491 68.068,323.615 67.484,322.900 67.172 C 322.185 66.860,321.600 66.469,321.600 66.302 C 321.600 66.136,321.251 66.000,320.824 66.000 C 320.397 66.000,319.936 65.820,319.800 65.600 C 319.664 65.380,319.113 65.200,318.576 65.200 C 318.039 65.200,317.600 65.020,317.600 64.800 C 317.600 64.580,316.711 64.400,315.624 64.400 C 314.537 64.400,313.536 64.220,313.400 64.000 C 313.264 63.780,311.723 63.600,309.976 63.600 C 308.125 63.600,306.800 63.767,306.800 64.000 M306.975 307.700 L 305.800 309.000 307.100 307.825 C 307.815 307.179,308.400 306.594,308.400 306.525 C 308.400 306.216,308.070 306.488,306.975 307.700 " stroke="none" fill="#ec643c" fill-rule="evenodd"></path><path id="path4" d="M194.441 165.309 C 194.418 165.918,194.874 167.133,195.453 168.009 C 196.768 169.995,197.182 170.113,195.973 168.157 C 195.483 167.363,194.946 166.148,194.782 165.457 C 194.484 164.208,194.482 164.207,194.441 165.309 M200.635 175.578 C 200.874 175.920,201.848 177.640,202.799 179.400 C 203.750 181.160,204.887 183.230,205.325 184.000 C 205.763 184.770,206.735 186.480,207.484 187.800 C 208.234 189.120,208.948 190.515,209.070 190.900 C 209.193 191.285,209.452 191.600,209.647 191.600 C 209.841 191.600,210.000 191.960,210.000 192.400 C 210.000 192.840,210.180 193.200,210.400 193.200 C 210.620 193.200,210.800 193.428,210.800 193.706 C 210.800 193.984,211.325 195.289,211.966 196.606 C 215.573 204.013,217.851 209.065,219.267 212.800 C 220.142 215.110,221.026 217.405,221.229 217.900 C 221.433 218.395,221.804 219.295,222.054 219.900 C 222.950 222.075,223.155 222.624,223.655 224.200 C 223.935 225.080,224.307 225.971,224.482 226.180 C 224.657 226.389,224.800 226.976,224.800 227.485 C 224.800 227.994,224.962 228.723,225.161 229.105 C 225.360 229.487,225.737 230.610,226.000 231.600 C 226.263 232.590,226.640 233.713,226.839 234.095 C 227.038 234.477,227.200 235.094,227.200 235.466 C 227.200 236.115,227.763 238.111,228.424 239.800 C 228.596 240.240,228.839 241.230,228.965 242.000 C 229.091 242.770,229.383 244.210,229.614 245.200 C 229.845 246.190,230.199 248.688,230.401 250.751 C 230.603 252.814,230.890 254.614,231.038 254.751 C 231.895 255.542,229.751 242.225,228.269 237.547 C 227.965 236.586,227.485 234.990,227.204 234.000 C 226.923 233.010,226.353 231.120,225.938 229.800 C 225.522 228.480,224.994 226.770,224.763 226.000 C 224.320 224.525,223.007 220.888,222.307 219.200 C 222.079 218.650,221.754 217.840,221.584 217.400 C 218.970 210.631,217.577 207.268,216.318 204.687 C 215.483 202.975,214.800 201.485,214.800 201.376 C 214.800 201.082,209.083 189.658,208.006 187.800 C 206.421 185.065,204.452 181.492,203.302 179.266 C 202.696 178.092,201.750 176.642,201.200 176.044 C 200.650 175.446,200.396 175.236,200.635 175.578 M231.389 259.200 C 231.564 264.002,232.375 272.911,232.661 273.177 C 232.950 273.446,232.518 267.183,231.793 260.600 C 231.300 256.123,231.273 256.029,231.389 259.200 M204.800 259.257 C 197.959 263.571,188.156 267.979,183.400 268.878 C 180.139 269.495,170.442 269.734,168.727 269.240 C 167.887 268.998,166.435 268.594,165.500 268.342 C 160.236 266.925,155.503 264.775,148.725 260.722 C 142.357 256.915,142.188 257.072,145.440 263.779 C 145.968 264.867,146.400 265.904,146.400 266.083 C 146.400 266.559,147.837 269.741,149.705 273.400 C 150.604 275.160,151.533 277.004,151.769 277.497 C 152.006 277.990,152.335 278.395,152.500 278.397 C 152.665 278.399,152.800 278.653,152.800 278.962 C 152.800 279.628,154.468 282.941,154.900 283.133 C 155.065 283.207,155.200 283.612,155.200 284.033 C 155.200 284.455,155.380 284.800,155.600 284.800 C 155.820 284.800,156.000 285.036,156.000 285.325 C 156.000 285.613,156.315 286.198,156.700 286.625 C 157.085 287.051,157.668 287.940,157.995 288.600 C 158.323 289.260,159.403 291.041,160.395 292.557 C 161.388 294.073,162.554 295.873,162.986 296.557 C 163.418 297.241,163.996 298.032,164.272 298.315 C 164.547 298.598,165.087 299.363,165.472 300.015 C 165.857 300.667,166.314 301.200,166.486 301.200 C 166.659 301.200,166.800 301.470,166.800 301.800 C 166.800 302.130,166.980 302.400,167.200 302.400 C 167.420 302.400,167.600 302.577,167.600 302.793 C 167.600 303.193,168.999 304.796,172.605 308.526 C 173.707 309.667,175.051 311.230,175.591 312.000 C 176.721 313.611,177.441 314.400,177.780 314.400 C 177.910 314.400,179.318 315.698,180.908 317.285 C 183.430 319.800,186.567 322.368,189.602 324.400 C 190.095 324.730,190.733 325.225,191.020 325.500 C 191.308 325.775,191.642 326.000,191.763 326.000 C 191.885 326.000,192.932 326.719,194.092 327.598 C 195.251 328.477,196.425 329.197,196.700 329.198 C 196.975 329.199,197.200 329.380,197.200 329.600 C 197.200 329.820,197.560 330.000,198.000 330.000 C 198.440 330.000,198.800 330.180,198.800 330.400 C 198.800 330.620,199.036 330.800,199.325 330.800 C 199.613 330.800,200.236 331.160,200.708 331.600 C 201.180 332.040,201.844 332.400,202.183 332.400 C 202.522 332.400,202.800 332.580,202.800 332.800 C 202.800 333.020,203.160 333.200,203.600 333.200 C 204.040 333.200,204.400 333.380,204.400 333.600 C 204.400 333.820,204.760 334.000,205.200 334.000 C 205.640 334.000,206.000 334.180,206.000 334.400 C 206.000 334.620,206.324 334.800,206.720 334.800 C 207.116 334.800,207.611 334.963,207.820 335.161 C 208.560 335.864,216.648 336.570,217.022 335.964 C 217.146 335.764,218.047 335.600,219.024 335.600 C 220.001 335.600,220.800 335.420,220.800 335.200 C 220.800 334.980,221.056 334.800,221.368 334.800 C 222.225 334.800,225.200 331.682,225.200 330.785 C 225.200 330.353,225.380 330.000,225.600 330.000 C 225.820 330.000,226.000 329.640,226.000 329.200 C 226.000 328.760,226.180 328.400,226.400 328.400 C 226.620 328.400,226.800 328.040,226.800 327.600 C 226.800 327.160,226.980 326.800,227.200 326.800 C 227.420 326.800,227.600 326.350,227.600 325.800 C 227.600 325.250,227.780 324.800,228.000 324.800 C 228.220 324.800,228.400 324.350,228.400 323.800 C 228.400 323.250,228.580 322.800,228.800 322.800 C 229.020 322.800,229.200 322.350,229.200 321.800 C 229.200 321.250,229.380 320.800,229.600 320.800 C 229.820 320.800,230.000 320.181,230.000 319.424 C 230.000 318.667,230.180 317.936,230.400 317.800 C 230.620 317.664,230.800 316.854,230.800 316.000 C 230.800 315.146,230.980 314.336,231.200 314.200 C 231.420 314.064,231.600 313.344,231.600 312.600 C 231.600 311.856,231.780 311.136,232.000 311.000 C 232.220 310.864,232.400 309.694,232.400 308.400 C 232.400 307.106,232.580 305.936,232.800 305.800 C 233.020 305.664,233.200 304.429,233.200 303.056 C 233.200 301.683,233.368 300.389,233.573 300.180 C 233.779 299.971,234.037 298.090,234.147 296.000 C 234.258 293.910,234.466 291.364,234.611 290.343 C 234.755 289.321,234.696 288.151,234.479 287.743 C 234.261 287.334,233.840 283.940,233.542 280.200 C 233.244 276.460,232.945 274.161,232.877 275.092 C 232.810 276.023,232.934 278.719,233.153 281.083 C 233.372 283.447,233.468 285.466,233.365 285.568 C 232.433 286.500,217.508 268.739,211.800 259.905 C 209.418 256.219,209.592 256.235,204.800 259.257 " stroke="none" fill="#74c35c" fill-rule="evenodd"></path></g></svg>