<?xml version="1.0" encoding="iso-8859-1"?>
<!-- Generator: Adobe Illustrator 19.1.0, SVG Export Plug-In . SVG Version: 6.00 Build 0)  -->
<svg version="1.1" id="Capa_1" xmlns="http://www.w3.org/2000/svg" xmlns:xlink="http://www.w3.org/1999/xlink" x="0px" y="0px"
	 viewBox="0 0 462.79 462.79" style="enable-background:new 0 0 462.79 462.79;" xml:space="preserve">
<g>
	<g id="XMLID_4_">
		<g>
			<path style="fill:#60A57C;" d="M371.565,9v81.16h-14.13V46.92h-247.02v43.24h-3.32c-22.37,0-40.57-18.21-40.57-40.59
				c0-10.83,4.22-21.02,11.88-28.68C86.065,13.22,96.255,9,107.095,9H371.565z"/>
			<path d="M354.125,161.23v43.71h-187.51v-43.71H354.125z M345.125,195.94v-25.71h-169.51v25.71H345.125z"/>
			<rect x="119.415" y="85.68" style="fill:#FFCC73;" width="229.02" height="4.48"/>
			<rect x="119.415" y="70.25" style="fill:#FFCC73;" width="229.02" height="6.43"/>
			<rect x="119.415" y="55.92" style="fill:#FFCC73;" width="229.02" height="5.33"/>
			<rect x="175.615" y="170.23" style="fill:#4489D3;" width="169.51" height="25.71"/>
			<path style="fill:#6BCE95;" d="M66.525,78.03c8.97,12.77,23.81,21.13,40.57,21.13h289.17v354.63h-290
				c-21.91,0-39.74-17.83-39.74-39.75v-25.79l14.87,8.26V214.32l-14.87-8.26v-24.18c9.76-4.48,16.53-18.15,16.53-34.34
				s-6.77-29.84-16.53-34.32V78.03z M354.125,204.94v-43.71h-187.51v43.71H354.125z"/>
			<path d="M66.525,49.57c0,22.38,18.2,40.59,40.57,40.59h3.32V46.92h247.02v43.24h14.13V9h-264.47c-10.84,0-21.03,4.22-28.69,11.89
				C70.745,28.55,66.525,38.74,66.525,49.57z M66.525,113.22c9.76,4.48,16.53,18.13,16.53,34.32s-6.77,29.86-16.53,34.34v24.18
				l14.87,8.26v182.19l-14.87-8.26v25.79c0,21.92,17.83,39.75,39.74,39.75h290V99.16h-289.17c-16.76,0-31.6-8.36-40.57-21.13V113.22
				z M405.265,90.16v372.63h-299c-26.88,0-48.74-21.87-48.74-48.75V49.57c0-13.24,5.15-25.69,14.52-35.05
				C81.405,5.16,93.855,0,107.095,0h273.47v90.16H405.265z M348.435,90.16v-4.48h-229.02v4.48H348.435z M348.435,76.68v-6.43
				h-229.02v6.43H348.435z M348.435,61.25v-5.33h-229.02v5.33H348.435z M74.055,147.54c0-10.63-3.33-18.92-7.53-23.34v46.69
				C70.725,166.47,74.055,158.18,74.055,147.54z M72.395,381.22V219.61l-5.87-3.26v161.61L72.395,381.22z"/>
			<polygon style="fill:#4489D3;" points="72.395,219.61 72.395,381.22 66.525,377.96 66.525,216.35 			"/>
			<path style="fill:#4489D3;" d="M66.525,124.2c4.2,4.42,7.53,12.71,7.53,23.34c0,10.64-3.33,18.93-7.53,23.35V124.2z"/>
		</g>
	</g>
</g>
<g>
</g>
<g>
</g>
<g>
</g>
<g>
</g>
<g>
</g>
<g>
</g>
<g>
</g>
<g>
</g>
<g>
</g>
<g>
</g>
<g>
</g>
<g>
</g>
<g>
</g>
<g>
</g>
<g>
</g>
</svg>
