<?xml version="1.0" encoding="utf-8"?>
<!-- Generator: Adobe Illustrator 22.0.0, SVG Export Plug-In . SVG Version: 6.00 Build 0)  -->
<svg version="1.1" xmlns="http://www.w3.org/2000/svg" xmlns:xlink="http://www.w3.org/1999/xlink" x="0px" y="0px"
	 viewBox="0 0 600 600" style="enable-background:new 0 0 600 600;" xml:space="preserve">
<style type="text/css">
	.st0{fill:#35312F;}
	.st1{fill:#F4A671;}
	.st2{opacity:0.25;}
	.st3{fill:#C66940;}
	.st4{fill:#3F3832;}
	.st5{opacity:0.5;fill:#C66940;}
	.st6{fill:#FF3B3B;}
	.st7{fill:#D6D351;}
	.st8{fill:none;stroke:#EFBD41;stroke-width:0.5;stroke-miterlimit:10;}
	.st9{fill:#EFBD41;}
	.st10{opacity:0.25;fill:#FF3B3B;}
	.st11{fill:#6678CE;}
	.st12{fill:#FFFFFF;}
	.st13{fill:#EFCB59;}
	.st14{fill:#E5A83C;}
	.st15{fill:#FCDEB4;}
	.st16{fill:#E29823;}
	.st17{fill:#A55E2F;}
	.st18{fill:#ABD4ED;}
	.st19{fill:#54719B;}
	.st20{fill:#DD5150;}
	.st21{fill:#FCA518;}
	.st22{fill:#7C3C28;}
	.st23{fill:#E8EAF3;}
	.st24{fill:#EF8484;}
	.st25{fill:#4D628C;}
	.st26{fill:#6981A8;}
	.st27{fill:#C4BE47;}
	.st28{fill:#60422B;}
	.st29{fill:#D36737;}
	.st30{fill:#C6BF44;}
	.st31{fill:#996D3C;}
	.st32{fill:#F9A61A;}
	.st33{fill:#665431;}
	.st34{fill:#CC6140;}
	.st35{fill:#49564A;}
	.st36{fill:#E2774D;}
	.st37{opacity:0.25;fill:#C66940;}
	.st38{fill:#E5BB67;}
	.st39{fill:#756052;}
	.st40{fill:#E89874;}
	.st41{fill:#965640;}
	.st42{fill:#995F3F;}
	.st43{fill:#E5B155;}
	.st44{fill:#C94845;}
	.st45{fill:#913A3A;}
	.st46{fill:#5B483B;}
	.st47{fill:#373F47;}
	.st48{fill:#EAB3A4;}
	.st49{fill:#3A3733;}
	.st50{fill:#527064;}
	.st51{fill:#C7BCE8;}
	.st52{fill:#B78C69;}
	.st53{fill:#D3A479;}
	.st54{fill:#4F4D49;}
	.st55{fill:#A89F91;}
	.st56{fill:#F7AAA1;}
	.st57{fill:#726358;}
	.st58{fill:#AFADAA;}
	.st59{fill:#585D7F;}
	.st60{fill:#686E8E;}
	.st61{fill:#AF754A;}
	.st62{fill:#A55E73;}
	.st63{fill:#CC503B;}
	.st64{fill:#EFE4CA;}
	.st65{fill:#E0CEA9;}
	.st66{fill:#475B5E;}
	.st67{fill:#5F7B82;}
	.st68{fill:#73969B;}
</style>
<g id="Girl_01">
</g>
<g id="Girl_02">
</g>
<g id="Girl_03">
</g>
<g id="Girl_04">
</g>
<g id="Girl_05">
</g>
<g id="Boy_01">
</g>
<g id="Boy_02">
</g>
<g id="Boy_03">
</g>
<g id="Boy_04">
</g>
<g id="Boy_05">
</g>
<g id="Girl_06">
</g>
<g id="Girl_07">
</g>
<g id="Girl_08">
</g>
<g id="Girl_09">
</g>
<g id="Girl_10">
</g>
<g id="Boy_06">
	<g>
		<path class="st52" d="M363.6,121.9c-19.6-12.5-60.9-15.4-64.1-15.6v0c0,0,0,0-0.1,0c-0.1,0-0.1,0-0.1,0v0
			c-3.2,0.2-44.5,3.1-64.1,15.6c-9.8,6.3-16.3,50.7-16.3,50.7h80.5h0.2H380C380,172.6,373.4,128.2,363.6,121.9z"/>
		<path class="st53" d="M395.1,159.9c-42.7-33.1-95.1-30.6-95.1-30.6c-0.1,0-52.4-2.6-95.1,30.6c-42.7,33.2-49.2,83.7-35.6,111.3
			c41.6,84.6,130.7,55.7,130.7,55.7c0.1,0,89.1,28.9,130.7-55.7C444.3,243.5,437.9,193,395.1,159.9z"/>
		<path class="st4" d="M378.5,172.7c-20.2-18.4-57.9-25.2-78.5-25.2c-20.6,0-58.3,6.8-78.5,25.2c-20.2,18.4-17.4,56.2-14.9,68.2
			c2.5,12,21.3,54.9,34.7,55.2c13.5,0.4,58.7,0.2,58.7,0.2l0-74.4l0,74.4c0,0,45.2,0.2,58.7-0.2c13.5-0.4,32.3-43.3,34.7-55.2
			C395.9,228.9,398.7,191.2,378.5,172.7z"/>
		<path class="st1" d="M391.7,415.8H208.3c0,0,54.2-29.9,57.9-39.4c1.6-4,2.6-13.4,3.3-23c0.1-1,0.1-2,0.2-3c0.8-12.1,1-23.5,1-23.5
			h58.6c0,0,0.2,11.4,1,23.5c0.1,1,0.1,2,0.2,3c0.7,9.6,1.7,19,3.3,23C337.6,386,391.7,415.8,391.7,415.8z"/>
		<path class="st37" d="M330.5,353.4c-11,5.1-21.8,7.8-30.5,7.8c-8.7,0-19.5-2.7-30.5-7.8c0.1-1,0.1-2,0.2-3c0.8-12.1,1-23.5,1-23.5
			h58.6c0,0,0.2,11.4,1,23.5C330.3,351.4,330.4,352.4,330.5,353.4z"/>
		<path class="st1" d="M366.7,222.3c-17.4-32.6-66.7-32.6-66.7-32.6s-49.4,0-66.7,32.6c-8.7,16.4-6.1,84,11.2,100.6
			c17.3,16.7,40.1,26.6,55.5,26.6s38.2-10,55.5-26.6C372.9,306.3,375.5,238.7,366.7,222.3z"/>
		<g>
			<path class="st4" d="M260.8,248c0,3.9,2.6,7.1,5.9,7.1s5.9-3.2,5.9-7.1c0-3.9-2.6-7.1-5.9-7.1S260.8,244.1,260.8,248z"/>
			<path class="st4" d="M327.8,248c0,3.9,2.6,7.1,5.9,7.1c3.3,0,5.9-3.2,5.9-7.1c0-3.9-2.6-7.1-5.9-7.1
				C330.5,240.9,327.8,244.1,327.8,248z"/>
		</g>
		<g>
			<path class="st1" d="M232.7,241.5c-2.8-3.3-7.7-6.9-16.1-2.6c-8.3,4.3-6.8,27.6,0,33.6c9.2,8,15.8,5.7,18.1,0
				C237,266.8,234.8,244.1,232.7,241.5z"/>
			<path class="st1" d="M367.3,241.5c2.8-3.3,7.7-6.9,16.1-2.6c8.3,4.3,6.8,27.6,0,33.6c-9.2,8-15.8,5.7-18.1,0
				C363,266.8,365.1,244.1,367.3,241.5z"/>
		</g>
		<path class="st5" d="M302.3,249.9c3,0-9.1,17.1-6.7,30.7c0.7,3.9,8.2,2.8,10.5,3c2.2,0.2-0.7,1.7-3,1.9c-2.2,0.2-8.4-0.1-9.3-2.6
			C291,275.8,300,249.9,302.3,249.9z"/>
		<path class="st4" d="M257.8,234.1c3.2-1.3,11.5-2.4,14.6-2.1c3.1,0.4,4.4,0,3.8-2.1c-0.6-2.1-3.3-1.6-6.9-1.4
			c-3.6,0.2-8.5,2.2-11.5,3.5C254.8,233.4,256.3,234.8,257.8,234.1z"/>
		<path class="st4" d="M342.1,234.1c-3.2-1.3-11.5-2.4-14.6-2.1s-4.4,0-3.8-2.1c0.6-2.1,3.3-1.6,6.9-1.4c3.6,0.2,8.5,2.2,11.5,3.5
			C345.2,233.4,343.7,234.8,342.1,234.1z"/>
		<g>
			<path class="st10" d="M266.4,267.7c0,1.5-3.3,2.8-7.3,2.8c-4,0-7.3-1.2-7.3-2.8c0-1.5,3.3-2.8,7.3-2.8
				C263.2,264.9,266.4,266.1,266.4,267.7z"/>
			<path class="st10" d="M348.5,267.7c0,1.5-3.3,2.8-7.3,2.8c-4,0-7.3-1.2-7.3-2.8c0-1.5,3.3-2.8,7.3-2.8
				C345.3,264.9,348.5,266.1,348.5,267.7z"/>
		</g>
		<path class="st54" d="M458.8,493.7H141.2c0,0,2.6-8.8,6.8-20.7c0.6-1.7,1.2-3.4,1.8-5.2c2.2-6.1,4.7-12.7,7.5-19.2
			c0.7-1.8,1.4-3.5,2.2-5.2c3-6.9,6.3-13.6,9.6-19.2c0.9-1.5,1.7-2.9,2.6-4.2c0.2-0.4,0.4-0.7,0.7-1c1.3-1.8,2.5-3.4,3.7-4.8
			c3.8-4.5,11.7-8.5,21.1-11.9c15.5-5.6,35.1-9.6,46.5-11.6c5.8-1,9.4-1.6,9.4-1.6s26,15.8,46.9,15.4c28.7-0.5,46.9-15.4,46.9-15.4
			s2.5,0.4,6.7,1.1c16.7,2.9,59.7,11.4,70.3,24c1.2,1.4,2.4,3,3.6,4.8c1.1,1.6,2.2,3.3,3.2,5.2c3.2,5.6,6.5,12.2,9.5,19.2
			c0.7,1.7,1.5,3.4,2.2,5.2c2.7,6.5,5.3,13.1,7.5,19.2c0.6,1.8,1.3,3.5,1.9,5.2C456.1,484.9,458.8,493.7,458.8,493.7z"/>
		<path class="st4" d="M223.3,218.3c0,0,2.4,15.8,5.1,18.7c2.7,3,14.9-1.4,18.4-2.7s2.1-24.1,5.1-22.7c3,1.3,2.3,12.1,4.2,13.2
			c1.9,1.1,37.7,1.6,40.4-2c2.7-3.6,2.6-11.7,3.5-11.2c0.9,0.5,0.5,10.3,2.7,11.2c2.2,0.9,48.3,4,50.5,2c2.2-2,3.6-8.7,4-6.9
			c0.4,1.8-2.7,14.6,0,16.5c2.7,1.9,11.7,5.3,14.3,2.7c2.7-2.6-1.4-29.9-13-36.6c-11.6-6.7-49.4-20.6-70.1-17.4
			C267.8,186.1,223.3,218.3,223.3,218.3z"/>
		<path class="st55" d="M451.9,473H148c0.6-1.7,1.2-3.4,1.8-5.2H450C450.7,469.5,451.3,471.3,451.9,473z"/>
		<path class="st55" d="M442.5,448.6H157.3c0.7-1.8,1.4-3.5,2.2-5.2h280.8C441,445.1,441.8,446.8,442.5,448.6z"/>
		<path class="st55" d="M430.8,424.2H169.1c0.9-1.5,1.7-2.9,2.6-4.2c0.2-0.4,0.4-0.7,0.7-1h255.2
			C428.6,420.6,429.7,422.3,430.8,424.2z"/>
		<path class="st4" d="M314.6,312.8c-0.5,0.4-0.9,0.7-1.5,1c-6.3,3.8-19.4,3.8-26.9,0.4c-0.2-0.1-0.3-0.1-0.5-0.2
			c-5.7-2.8-8-15.7-6.4-15.2c0,0,0.9,0.2,2.4,0.5c3.7,0.8,11.1,2.1,18.2,2.2c9.7,0,16-2.3,18.7-2.6c0.8-0.1,1.3,0,1.5,0.4
			C320.8,301,319.8,308.6,314.6,312.8z"/>
		<path class="st12" d="M318.7,299c-0.3,1.7-1.1,3.7-2.5,5.7c-3.1,4.4-25.9,3.4-29.5,1.8c-2.7-1.2-4.1-4.5-4.9-7
			c3.7,0.8,11.1,2.1,18.2,2.2C309.7,301.6,316,299.3,318.7,299z"/>
		<path class="st56" d="M314.6,312.8c-0.5,0.4-0.9,0.7-1.5,1c-6.3,3.8-19.4,3.8-26.9,0.4c2-1.2,4.7-2.1,6.9-2.8
			c4.8-1.4,15.2-0.8,18.7,0C312.9,311.7,313.8,312.2,314.6,312.8z"/>
	</g>
</g>
<g id="Boy_07">
</g>
<g id="Boy_08">
</g>
<g id="Boy_09">
</g>
<g id="Boy_10">
</g>
</svg>
