<?xml version="1.0" encoding="utf-8"?>
<!-- Generator: Adobe Illustrator 22.0.0, SVG Export Plug-In . SVG Version: 6.00 Build 0)  -->
<svg version="1.1" xmlns="http://www.w3.org/2000/svg" xmlns:xlink="http://www.w3.org/1999/xlink" x="0px" y="0px"
	 viewBox="0 0 600 600" style="enable-background:new 0 0 600 600;" xml:space="preserve">
<style type="text/css">
	.st0{fill:#35312F;}
	.st1{fill:#F4A671;}
	.st2{opacity:0.25;}
	.st3{fill:#C66940;}
	.st4{fill:#3F3832;}
	.st5{opacity:0.5;fill:#C66940;}
	.st6{fill:#FF3B3B;}
	.st7{fill:#D6D351;}
	.st8{fill:none;stroke:#EFBD41;stroke-width:0.5;stroke-miterlimit:10;}
	.st9{fill:#EFBD41;}
	.st10{opacity:0.25;fill:#FF3B3B;}
	.st11{fill:#6678CE;}
	.st12{fill:#FFFFFF;}
	.st13{fill:#EFCB59;}
	.st14{fill:#E5A83C;}
	.st15{fill:#FCDEB4;}
	.st16{fill:#E29823;}
	.st17{fill:#A55E2F;}
	.st18{fill:#ABD4ED;}
	.st19{fill:#54719B;}
	.st20{fill:#DD5150;}
	.st21{fill:#FCA518;}
	.st22{fill:#7C3C28;}
	.st23{fill:#E8EAF3;}
	.st24{fill:#EF8484;}
	.st25{fill:#4D628C;}
	.st26{fill:#6981A8;}
	.st27{fill:#C4BE47;}
	.st28{fill:#60422B;}
	.st29{fill:#D36737;}
	.st30{fill:#C6BF44;}
	.st31{fill:#996D3C;}
	.st32{fill:#F9A61A;}
	.st33{fill:#665431;}
	.st34{fill:#CC6140;}
	.st35{fill:#49564A;}
	.st36{fill:#E2774D;}
	.st37{opacity:0.25;fill:#C66940;}
	.st38{fill:#E5BB67;}
	.st39{fill:#756052;}
	.st40{fill:#E89874;}
	.st41{fill:#965640;}
	.st42{fill:#995F3F;}
	.st43{fill:#E5B155;}
	.st44{fill:#C94845;}
	.st45{fill:#913A3A;}
	.st46{fill:#5B483B;}
	.st47{fill:#373F47;}
	.st48{fill:#EAB3A4;}
	.st49{fill:#3A3733;}
	.st50{fill:#527064;}
	.st51{fill:#C7BCE8;}
	.st52{fill:#B78C69;}
	.st53{fill:#D3A479;}
	.st54{fill:#4F4D49;}
	.st55{fill:#A89F91;}
	.st56{fill:#F7AAA1;}
	.st57{fill:#726358;}
	.st58{fill:#AFADAA;}
	.st59{fill:#585D7F;}
	.st60{fill:#686E8E;}
	.st61{fill:#AF754A;}
	.st62{fill:#A55E73;}
	.st63{fill:#CC503B;}
	.st64{fill:#EFE4CA;}
	.st65{fill:#E0CEA9;}
	.st66{fill:#475B5E;}
	.st67{fill:#5F7B82;}
	.st68{fill:#73969B;}
</style>
<g id="Girl_01">
</g>
<g id="Girl_02">
</g>
<g id="Girl_03">
</g>
<g id="Girl_04">
</g>
<g id="Girl_05">
</g>
<g id="Boy_01">
</g>
<g id="Boy_02">
</g>
<g id="Boy_03">
</g>
<g id="Boy_04">
</g>
<g id="Boy_05">
</g>
<g id="Girl_06">
</g>
<g id="Girl_07">
</g>
<g id="Girl_08">
</g>
<g id="Girl_09">
</g>
<g id="Girl_10">
</g>
<g id="Boy_06">
</g>
<g id="Boy_07">
</g>
<g id="Boy_08">
</g>
<g id="Boy_09">
	<g>
		<g>
			<path class="st1" d="M393.1,404H207.6c0,0,54.8-30.2,58.6-39.8c1.6-4,2.7-13.6,3.4-23.3c0.1-1,0.1-2,0.2-3
				c0.8-12.2,1-23.8,1-23.8H330c0,0,0.2,11.6,1,23.8c0.1,1,0.1,2,0.2,3c0.7,9.7,1.8,19.2,3.4,23.3C338.3,373.8,393.1,404,393.1,404z
				"/>
			<path class="st37" d="M331.2,340.9c-11.1,5.1-22,7.9-30.8,7.9c-8.8,0-19.7-2.8-30.8-7.9c0.1-1,0.1-2,0.2-3
				c0.8-12.2,1-23.8,1-23.8H330c0,0,0.2,11.6,1,23.8C331,338.9,331.1,339.9,331.2,340.9z"/>
			<path class="st1" d="M367.8,208.4c-17.5-33-67.5-33-67.5-33s-49.9,0-67.5,33c-8.8,16.6-6.2,84.9,11.3,101.7
				c17.5,16.8,40.5,26.9,56.1,26.9c15.6,0,38.6-10.1,56.1-26.9C374,293.3,376.6,225,367.8,208.4z"/>
			<g>
				<path class="st4" d="M260.7,234.3c0,4,2.7,7.2,6,7.2c3.3,0,6-3.2,6-7.2c0-4-2.7-7.2-6-7.2C263.4,227.2,260.7,230.4,260.7,234.3z
					"/>
				<ellipse class="st4" cx="334.4" cy="234.3" rx="6" ry="7.2"/>
			</g>
			<g>
				<path class="st1" d="M232.3,227.8c-2.8-3.3-7.8-7-16.2-2.6c-8.4,4.4-6.9,27.9,0,33.9c9.3,8.1,16,5.8,18.3,0
					C236.6,253.4,234.5,230.5,232.3,227.8z"/>
				<path class="st1" d="M368.4,227.8c2.8-3.3,7.8-7,16.2-2.6c8.4,4.4,6.9,27.9,0,33.9c-9.3,8.1-16,5.8-18.3,0
					C364.1,253.4,366.2,230.5,368.4,227.8z"/>
			</g>
			<path class="st5" d="M302.6,236.3c3,0-9.2,17.3-6.8,31c0.7,3.9,8.3,2.8,10.6,3c2.3,0.2-0.8,1.7-3,1.9c-2.3,0.2-8.5-0.1-9.4-2.6
				C291.3,262.5,300.3,236.3,302.6,236.3z"/>
			<path class="st4" d="M257.7,220.3c3.2-1.3,11.6-2.5,14.7-2.1c3.1,0.4,4.5,0,3.9-2.1c-0.6-2.1-3.4-1.6-7-1.5
				c-3.6,0.2-8.6,2.2-11.6,3.5C254.7,219.6,256.2,221,257.7,220.3z"/>
			<path class="st4" d="M343,220.3c-3.2-1.3-11.6-2.5-14.7-2.1c-3.1,0.4-4.5,0-3.9-2.1c0.6-2.1,3.4-1.6,7-1.5
				c3.6,0.2,8.6,2.2,11.6,3.5C346,219.6,344.5,221,343,220.3z"/>
			<g>
				<ellipse class="st10" cx="259.1" cy="254.3" rx="7.3" ry="2.8"/>
				<ellipse class="st10" cx="342.1" cy="254.3" rx="7.3" ry="2.8"/>
			</g>
			<path class="st4" d="M289.1,287c2.8,1,12.9,3.1,19.6,0.6c6.7-2.6,1.2,1.7-1.9,2.6c-3.1,0.9-7.4,1.9-12.1,0.4
				C289.9,289.1,287.8,286.5,289.1,287z"/>
			<path class="st63" d="M460.2,482.8l-148.1,0h-23.6l-148.6,0c0,0,23.1-69.7,39.1-83.9c14.4-12.7,65-22.6,75.2-24.4
				c1.2-0.2,1.8-0.3,1.8-0.3s5.3-14.3,11.6-15c2.7-0.3,13.6,4,26,5.2c2.1,0.2,4.7,12.4,6.9,12.4c2.9,0,5.5-12.2,8.3-12.6
				c11.4-1.5,21.4-5.2,23.9-4.9c6.3,0.7,11.6,15,11.6,15s0.7,0.1,2,0.4c10.7,2,60.7,11.7,75,24.4C437.1,413,460.2,482.8,460.2,482.8
				z"/>
			<path class="st64" d="M395.2,196.5c-0.6,2.4-1.4,4.7-2.2,6.8c-0.8,2.1-1.8,4-2.9,5.9c-10.6,18.2-19,21.3-27.7,21.2
				c-30.3-0.1-57.1-41.7-63.6-52.5c-0.3,0.4-0.6,0.9-0.9,1.5c-7.7,12.6-33.6,50.9-62.7,51c-8.7,0.1-17.1-3-27.7-21.2
				c-8.3-14.3-9.3-36.5-4.8-49.4c0.2-0.4,0.3-0.9,0.5-1.3c1.2-2.9,2.6-5.3,4.4-6.8c21.1-19,47.1-27.5,66.3-31.3
				c1.2-0.2,2.3-0.4,3.4-0.6c3.1-0.6,6-1,8.6-1.3c1.2-0.2,2.3-0.3,3.4-0.4c3.4-0.3,6.2-0.5,8.1-0.6v-0.1c0,0,0.5,0,1.5,0
				c1,0,1.5,0,1.5,0v0.1c11.8,0.6,56.9,4.6,89.8,34.3C397.5,158.3,399.8,179.1,395.2,196.5z"/>
			<g>
				<path class="st4" d="M277.4,286.7c4.3-2.6,13.7-4,15.4-5.2c1.7-1.2,2.1-5.6,0-6c-2.1-0.4-13.9,3.5-16.8,6.6
					C273.1,285.2,274.3,288.7,277.4,286.7z"/>
				<path class="st4" d="M323.3,286.7c-4.3-2.6-13.7-4-15.4-5.2c-1.7-1.2-2.1-5.6,0-6c2.1-0.4,13.9,3.5,16.8,6.6
					C327.6,285.2,326.4,288.7,323.3,286.7z"/>
			</g>
			<path class="st65" d="M379.7,223.2c0,0-12,13.3-29.5,6.8c-17.5-6.5-34.2-27.6-47.1-43.5c-1.7-2.1-3.4-4.5-5.1-7.1
				c-11.7-17.9-24.2-47.2-24.2-58.3c0-0.3,0-0.5,0.1-0.8c1.2-0.2,2.3-0.4,3.4-0.6c0.3,0.4,0.7,1,1.1,1.7c4.4,7.9,9.5,23.9,16.7,38.1
				c1.4,2.7,3.2,5.8,5.3,9.2c11.1,17.8,30.6,42.5,43.4,53.5C359,235.3,379.7,223.2,379.7,223.2z"/>
			<path class="st65" d="M285.1,147c0,0-15.2,11.9-33.3,16.4c-18.2,4.5-33.7,1.1-41.5-0.9c-3.1-0.8-5.7-1.9-7.5-2.8
				c0.2-0.4,0.3-0.9,0.5-1.3c6.8,1.7,23.6,5.2,41.1,2.7c22.7-3.1,38.7-17.6,38.7-17.6L285.1,147z"/>
			<path class="st65" d="M395.2,196.5c-0.6,2.4-1.4,4.7-2.2,6.8c-0.8,0.1-1.7,0.3-2.6,0.4c-37.6,5.5-96.5-74.4-104.5-85.3
				c1.2-0.2,2.3-0.3,3.4-0.4c7.1,9.8,60.4,66.2,77.8,73.2C379.3,196,388.8,196.8,395.2,196.5z"/>
			<path class="st13" d="M346.1,374.5c-7.8,3.8-20.5,10.1-24,13.4c-4.5,4.1-8.8,73.2-10,94.9h-23.6c-1.2-21.6-5.5-90.8-10-94.9
				c-3.6-3.3-16.4-9.7-24.3-13.5c1.2-0.2,1.8-0.3,1.8-0.3s5.3-14.3,11.6-15c2.7-0.3,13.6,4,26,5.2c2.1,0.2,4.7,12.4,6.9,12.4
				c2.9,0,5.5-12.2,8.3-12.6c11.4-1.5,21.4-5.2,23.9-4.9c6.3,0.7,11.6,15,11.6,15S344.8,374.2,346.1,374.5z"/>
		</g>
	</g>
</g>
<g id="Boy_10">
</g>
</svg>
