<?xml version="1.0" encoding="utf-8"?>
<!-- Generator: Adobe Illustrator 22.0.0, SVG Export Plug-In . SVG Version: 6.00 Build 0)  -->
<svg version="1.1" xmlns="http://www.w3.org/2000/svg" xmlns:xlink="http://www.w3.org/1999/xlink" x="0px" y="0px"
	 viewBox="0 0 600 600" style="enable-background:new 0 0 600 600;" xml:space="preserve">
<style type="text/css">
	.st0{fill:#35312F;}
	.st1{fill:#F4A671;}
	.st2{opacity:0.25;}
	.st3{fill:#C66940;}
	.st4{fill:#3F3832;}
	.st5{opacity:0.5;fill:#C66940;}
	.st6{fill:#FF3B3B;}
	.st7{fill:#D6D351;}
	.st8{fill:none;stroke:#EFBD41;stroke-width:0.5;stroke-miterlimit:10;}
	.st9{fill:#EFBD41;}
	.st10{opacity:0.25;fill:#FF3B3B;}
	.st11{fill:#6678CE;}
	.st12{fill:#FFFFFF;}
	.st13{fill:#EFCB59;}
	.st14{fill:#E5A83C;}
	.st15{fill:#FCDEB4;}
	.st16{fill:#E29823;}
	.st17{fill:#A55E2F;}
	.st18{fill:#ABD4ED;}
	.st19{fill:#54719B;}
	.st20{fill:#DD5150;}
	.st21{fill:#FCA518;}
	.st22{fill:#7C3C28;}
	.st23{fill:#E8EAF3;}
	.st24{fill:#EF8484;}
	.st25{fill:#4D628C;}
	.st26{fill:#6981A8;}
	.st27{fill:#C4BE47;}
	.st28{fill:#60422B;}
	.st29{fill:#D36737;}
	.st30{fill:#C6BF44;}
	.st31{fill:#996D3C;}
	.st32{fill:#F9A61A;}
	.st33{fill:#665431;}
	.st34{fill:#CC6140;}
	.st35{fill:#49564A;}
	.st36{fill:#E2774D;}
	.st37{opacity:0.25;fill:#C66940;}
	.st38{fill:#E5BB67;}
	.st39{fill:#756052;}
	.st40{fill:#E89874;}
	.st41{fill:#965640;}
	.st42{fill:#995F3F;}
	.st43{fill:#E5B155;}
	.st44{fill:#C94845;}
	.st45{fill:#913A3A;}
	.st46{fill:#5B483B;}
	.st47{fill:#373F47;}
	.st48{fill:#EAB3A4;}
	.st49{fill:#3A3733;}
	.st50{fill:#527064;}
	.st51{fill:#C7BCE8;}
	.st52{fill:#B78C69;}
	.st53{fill:#D3A479;}
	.st54{fill:#4F4D49;}
	.st55{fill:#A89F91;}
	.st56{fill:#F7AAA1;}
	.st57{fill:#726358;}
	.st58{fill:#AFADAA;}
	.st59{fill:#585D7F;}
	.st60{fill:#686E8E;}
	.st61{fill:#AF754A;}
	.st62{fill:#A55E73;}
	.st63{fill:#CC503B;}
	.st64{fill:#EFE4CA;}
	.st65{fill:#E0CEA9;}
	.st66{fill:#475B5E;}
	.st67{fill:#5F7B82;}
	.st68{fill:#73969B;}
</style>
<g id="Girl_01">
</g>
<g id="Girl_02">
</g>
<g id="Girl_03">
</g>
<g id="Girl_04">
</g>
<g id="Girl_05">
</g>
<g id="Boy_01">
</g>
<g id="Boy_02">
</g>
<g id="Boy_03">
</g>
<g id="Boy_04">
	<g>
		<g>
			<path class="st34" d="M182.4,244.4c-2.4,14.2,12.9,26.9,34.9,20.7c22.1-6.2,28.8-41.7,27.5-49.1c-1.3-7.4-16.6-21.6-21.4-19.5
				C223.4,196.5,186,223.1,182.4,244.4z"/>
		</g>
		<g>
			<path class="st4" d="M222.6,249c0,0-3.9-30.5-3-45.2c0.9-14.8,8.9-41.7,27.3-55.1c18.4-13.5,91.9-10.4,107.1-0.1
				c15.2,10.3,28.5,37.8,26.9,58.3c-1,12.9-3.8,35.7-6.4,40.7C371.9,252.7,223.1,253.1,222.6,249z"/>
		</g>
		<g>
			<path class="st1" d="M392.6,408.7l-185,0.1c0,0,54.6-30.2,58.4-39.8c1.6-4,2.6-13.5,3.3-23.2c0.1-1,0.1-2,0.2-3
				c0.8-12.2,1-23.7,1-23.7l59.1,0c0,0,0.2,11.5,1,23.7c0.1,1,0.1,2,0.2,3c0.7,9.7,1.8,19.2,3.4,23.2
				C337.9,378.6,392.6,408.7,392.6,408.7z"/>
		</g>
		<g class="st2">
			<path class="st3" d="M330.8,345.8c-11.1,5.1-22,7.9-30.7,7.9c-8.8,0-19.7-2.7-30.8-7.8c0.1-1,0.1-2,0.2-3c0.8-12.2,1-23.7,1-23.7
				l59.1,0c0,0,0.2,11.5,1,23.7C330.6,343.7,330.7,344.8,330.8,345.8z"/>
		</g>
		<g>
			<path class="st1" d="M367.2,213.5c-17.5-32.9-67.3-32.9-67.3-32.9s-49.8,0-67.3,32.9c-8.8,16.6-6.1,84.7,11.4,101.5
				c17.5,16.8,40.4,26.9,56,26.8c15.6,0,38.5-10.1,56-26.9C373.5,298.2,376.1,230.1,367.2,213.5z"/>
		</g>
		<g>
			<g>
				<path class="st4" d="M260.4,239.5c0,4,2.7,7.2,6,7.2c3.3,0,6-3.2,6-7.2c0-4-2.7-7.2-6-7.2C263.1,232.3,260.4,235.5,260.4,239.5z
					"/>
			</g>
			<g>
				<ellipse class="st4" cx="334" cy="239.4" rx="6" ry="7.2"/>
			</g>
		</g>
		<g>
			<g>
				<path class="st1" d="M232,233c-2.8-3.3-7.8-6.9-16.2-2.6c-8.4,4.3-6.9,27.8,0,33.9c9.3,8.1,15.9,5.8,18.2,0
					C236.4,258.5,234.2,235.6,232,233z"/>
			</g>
			<g>
				<path class="st1" d="M367.9,232.9c2.8-3.3,7.8-6.9,16.2-2.6c8.4,4.3,6.9,27.8,0,33.9c-9.3,8.1-15.9,5.8-18.2,0
					C363.5,258.4,365.7,235.6,367.9,232.9z"/>
			</g>
		</g>
		<g>
			<path class="st5" d="M302.2,241.4c3,0-9.1,17.3-6.8,30.9c0.7,3.9,8.3,2.8,10.5,3c2.3,0.2-0.8,1.7-3,1.9c-2.3,0.2-8.5-0.1-9.4-2.6
				C290.9,267.5,300,241.4,302.2,241.4z"/>
		</g>
		<g>
			<path class="st4" d="M257.4,225.5c3.2-1.3,11.6-2.5,14.7-2.1c3.1,0.4,4.4,0,3.9-2.1c-0.6-2.1-3.4-1.6-7-1.4
				c-3.6,0.2-8.6,2.2-11.6,3.5C254.4,224.8,255.9,226.2,257.4,225.5z"/>
		</g>
		<g>
			<path class="st4" d="M342.5,225.5c-3.2-1.3-11.6-2.5-14.7-2.1c-3.1,0.4-4.4,0-3.9-2.1c0.6-2.1,3.4-1.6,7-1.5
				c3.6,0.2,8.6,2.2,11.6,3.5C345.5,224.7,344,226.1,342.5,225.5z"/>
		</g>
		<g>
			<g>
				<path class="st10" d="M266.1,259.4c0,1.6-3.3,2.8-7.3,2.8c-4,0-7.3-1.3-7.3-2.8c0-1.6,3.3-2.8,7.3-2.8
					C262.8,256.6,266.1,257.8,266.1,259.4z"/>
			</g>
			<g>
				<path class="st10" d="M348.9,259.3c0,1.6-3.3,2.8-7.3,2.8c-4,0-7.3-1.3-7.3-2.8c0-1.6,3.3-2.8,7.3-2.8
					C345.6,256.5,348.9,257.8,348.9,259.3z"/>
			</g>
		</g>
		<g>
			<path class="st35" d="M460.3,487.2l-320.4,0.2c0,0,14.9-50.6,30.7-74.3c1.5-2.2,2.9-4.2,4.3-5.9c3.8-4.6,11.8-8.6,21.3-12
				c15.7-5.7,35.4-9.7,46.9-11.8c5.8-1,9.5-1.6,9.5-1.6s26.2,15.9,47.4,15.5c29-0.5,47.3-15.6,47.3-15.6s2.6,0.4,6.8,1.1
				c16.9,2.9,60.2,11.4,71,24.2C441.7,426.6,460.3,487.2,460.3,487.2z"/>
		</g>
		<g>
			<path class="st4" d="M288.8,292c2.8,1,12.9,3.1,19.6,0.5c6.7-2.6,1.2,1.7-1.9,2.6c-3.1,0.9-7.4,1.9-12.1,0.4
				C289.6,294.1,287.5,291.5,288.8,292z"/>
		</g>
		<g>
			<path class="st4" d="M226,222.7l2.7,7.3c0,0,26.2-4.3,30.1-16.2c4-11.9,3.4-18.6,13.5-24.9c10.1-6.3,46.1-6.2,51.4-2.5
				c5.3,3.6,12.2,17.8,20.5,23.2c8.3,5.4,14,3.8,15.5,7.7c1.5,3.8,4.5,17.2,12.4,12.2c7.9-4.9-5.9-28.1-12.8-35.5
				c-6.9-7.4-41.4-18.3-61-17c-19.6,1.2-51.4,12.5-59.4,19.9C230.9,204.3,226,222.7,226,222.7z"/>
		</g>
		<g>
			<path class="st36" d="M365.4,140.2c-20.1-23.6-52.2-27.5-65.1-27.5c-17.7,0-45.2,4-65.2,27.6c-17.7,20.8-14.9,58.6-14.9,58.6
				c20.9-14.7,66.7-24,80.1-24.2c14.9-0.2,59.2,9.4,80.1,24.1C380.3,198.8,383.1,161,365.4,140.2z"/>
		</g>
		<g>
			<path class="st4" d="M299.9,143.1c-23.7,0-19.7,17.7-17.3,19.3c2.4,1.6,12.9-1.1,17.3-1.1c4.3,0,14.9,2.7,17.3,1.1
				C319.6,160.8,323.6,143.1,299.9,143.1z"/>
		</g>
		<g>
			<path class="st4" d="M292.1,149.3c1.5-4.5,14.8-6.4,20.5-5.6c5.7,0.8,8.8-1,9.7-2.8c1-1.8,4.3,4.2,1.6,9
				c-2.7,4.7,3.6-2.6,2.7,0.7c-0.9,3.3,1.1,9.2-8.8,10.3C307.9,162,287.7,162.1,292.1,149.3z"/>
		</g>
	</g>
</g>
<g id="Boy_05">
</g>
<g id="Girl_06">
</g>
<g id="Girl_07">
</g>
<g id="Girl_08">
</g>
<g id="Girl_09">
</g>
<g id="Girl_10">
</g>
<g id="Boy_06">
</g>
<g id="Boy_07">
</g>
<g id="Boy_08">
</g>
<g id="Boy_09">
</g>
<g id="Boy_10">
</g>
</svg>
