<?xml version="1.0" encoding="utf-8"?>
<!-- Generator: Adobe Illustrator 22.0.0, SVG Export Plug-In . SVG Version: 6.00 Build 0)  -->
<svg version="1.1" xmlns="http://www.w3.org/2000/svg" xmlns:xlink="http://www.w3.org/1999/xlink" x="0px" y="0px"
	 viewBox="0 0 600 600" style="enable-background:new 0 0 600 600;" xml:space="preserve">
<style type="text/css">
	.st0{fill:#35312F;}
	.st1{fill:#F4A671;}
	.st2{opacity:0.25;}
	.st3{fill:#C66940;}
	.st4{fill:#3F3832;}
	.st5{opacity:0.5;fill:#C66940;}
	.st6{fill:#FF3B3B;}
	.st7{fill:#D6D351;}
	.st8{fill:none;stroke:#EFBD41;stroke-width:0.5;stroke-miterlimit:10;}
	.st9{fill:#EFBD41;}
	.st10{opacity:0.25;fill:#FF3B3B;}
	.st11{fill:#6678CE;}
	.st12{fill:#FFFFFF;}
	.st13{fill:#EFCB59;}
	.st14{fill:#E5A83C;}
	.st15{fill:#FCDEB4;}
	.st16{fill:#E29823;}
	.st17{fill:#A55E2F;}
	.st18{fill:#ABD4ED;}
	.st19{fill:#54719B;}
	.st20{fill:#DD5150;}
	.st21{fill:#FCA518;}
	.st22{fill:#7C3C28;}
	.st23{fill:#E8EAF3;}
	.st24{fill:#EF8484;}
	.st25{fill:#4D628C;}
	.st26{fill:#6981A8;}
	.st27{fill:#C4BE47;}
	.st28{fill:#60422B;}
	.st29{fill:#D36737;}
	.st30{fill:#C6BF44;}
	.st31{fill:#996D3C;}
	.st32{fill:#F9A61A;}
	.st33{fill:#665431;}
	.st34{fill:#CC6140;}
	.st35{fill:#49564A;}
	.st36{fill:#E2774D;}
	.st37{opacity:0.25;fill:#C66940;}
	.st38{fill:#E5BB67;}
	.st39{fill:#756052;}
	.st40{fill:#E89874;}
	.st41{fill:#965640;}
	.st42{fill:#995F3F;}
	.st43{fill:#E5B155;}
	.st44{fill:#C94845;}
	.st45{fill:#913A3A;}
	.st46{fill:#5B483B;}
	.st47{fill:#373F47;}
	.st48{fill:#EAB3A4;}
	.st49{fill:#3A3733;}
	.st50{fill:#527064;}
	.st51{fill:#C7BCE8;}
	.st52{fill:#B78C69;}
	.st53{fill:#D3A479;}
	.st54{fill:#4F4D49;}
	.st55{fill:#A89F91;}
	.st56{fill:#F7AAA1;}
	.st57{fill:#726358;}
	.st58{fill:#AFADAA;}
	.st59{fill:#585D7F;}
	.st60{fill:#686E8E;}
	.st61{fill:#AF754A;}
	.st62{fill:#A55E73;}
	.st63{fill:#CC503B;}
	.st64{fill:#EFE4CA;}
	.st65{fill:#E0CEA9;}
	.st66{fill:#475B5E;}
	.st67{fill:#5F7B82;}
	.st68{fill:#73969B;}
</style>
<g id="Girl_01">
</g>
<g id="Girl_02">
</g>
<g id="Girl_03">
</g>
<g id="Girl_04">
</g>
<g id="Girl_05">
</g>
<g id="Boy_01">
</g>
<g id="Boy_02">
	<g>
		<g>
			<path class="st27" d="M227.8,176c2.1-7.1,8.4-29.5,17.4-39.4c9-9.9,51.5-18.9,73-15.1c21.5,3.8,36.2,18.6,43.9,31.1
				c7.7,12.5,12.2,31.1,10.1,33c-2.1,1.9-43.1-22.1-67.1-20.5c-24,1.6-70.2,17-75.3,17S227,178.7,227.8,176z"/>
		</g>
		<g>
			<path class="st28" d="M222.6,229.1c0,0-3.1-14.4,0-26c3.1-11.6,20.9-19.5,24.8-19.5c3.9-0.1-4.9,42.1-6.5,45.5
				S222.9,230.8,222.6,229.1z"/>
		</g>
		<g>
			<path class="st28" d="M379.2,229.1c0,0,3.1-14.4,0-26c-3.1-11.6-20.9-19.5-24.8-19.5c-3.9-0.1,4.9,42.1,6.5,45.5
				C362.4,232.5,378.8,230.8,379.2,229.1z"/>
		</g>
		<g>
			<path class="st1" d="M392.5,400.8h-185c0,0,54.6-30.1,58.4-39.8c1.6-4,2.7-13.5,3.3-23.2c0.1-1,0.1-2,0.2-3
				c0.8-12.2,1-23.7,1-23.7h59.1c0,0,0.2,11.5,1,23.7c0.1,1,0.1,2,0.2,3c0.7,9.7,1.8,19.2,3.3,23.2
				C337.9,370.7,392.5,400.8,392.5,400.8z"/>
		</g>
		<g class="st2">
			<path class="st3" d="M330.7,337.9c-11.1,5.1-22,7.9-30.7,7.9c-8.8,0-19.7-2.8-30.7-7.9c0.1-1,0.1-2,0.2-3c0.8-12.2,1-23.7,1-23.7
				h59.1c0,0,0.2,11.5,1,23.7C330.6,335.8,330.7,336.9,330.7,337.9z"/>
		</g>
		<g>
			<path class="st1" d="M367.3,205.6c-17.5-32.9-67.3-32.9-67.3-32.9s-49.8,0-67.3,32.9c-8.8,16.6-6.2,84.7,11.3,101.5
				c17.5,16.8,40.4,26.9,56,26.9s38.5-10.1,56-26.9C373.5,290.3,376.1,222.2,367.3,205.6z"/>
		</g>
		<g>
			<g>
				<path class="st4" d="M260.5,231.5c0,4,2.7,7.2,6,7.2c3.3,0,6-3.2,6-7.2c0-4-2.7-7.2-6-7.2C263.1,224.4,260.5,227.6,260.5,231.5z
					"/>
			</g>
			<g>
				<path class="st4" d="M328.1,231.5c0,4,2.7,7.2,6,7.2c3.3,0,6-3.2,6-7.2c0-4-2.7-7.2-6-7.2C330.7,224.4,328.1,227.6,328.1,231.5z
					"/>
			</g>
		</g>
		<g>
			<g>
				<path class="st1" d="M232.1,225.1c-2.8-3.3-7.8-6.9-16.2-2.6c-8.4,4.3-6.9,27.8,0,33.9c9.3,8.1,15.9,5.8,18.2,0
					C236.4,250.5,234.3,227.7,232.1,225.1z"/>
			</g>
			<g>
				<path class="st1" d="M367.9,225.1c2.8-3.3,7.8-6.9,16.2-2.6c8.4,4.3,6.9,27.8,0,33.9c-9.3,8.1-15.9,5.8-18.2,0
					C363.6,250.5,365.7,227.7,367.9,225.1z"/>
			</g>
		</g>
		<g>
			<path class="st5" d="M302.3,233.5c3,0-9.2,17.2-6.8,30.9c0.7,3.9,8.3,2.8,10.5,3c2.3,0.2-0.8,1.7-3,1.9c-2.3,0.2-8.5-0.1-9.4-2.6
				C291,259.6,300,233.5,302.3,233.5z"/>
		</g>
		<g>
			<path class="st4" d="M257.5,217.6c3.2-1.3,11.6-2.5,14.7-2.1c3.1,0.4,4.4,0,3.9-2.1c-0.6-2.1-3.4-1.6-7-1.4
				c-3.6,0.2-8.6,2.2-11.6,3.5C254.4,216.8,255.9,218.2,257.5,217.6z"/>
		</g>
		<g>
			<path class="st4" d="M342.5,217.6c-3.2-1.3-11.6-2.5-14.7-2.1c-3.1,0.4-4.4,0-3.9-2.1c0.6-2.1,3.4-1.6,7-1.4
				c3.6,0.2,8.6,2.2,11.6,3.5C345.5,216.8,344.1,218.2,342.5,217.6z"/>
		</g>
		<g>
			<g>
				<path class="st10" d="M266.1,251.4c0,1.6-3.3,2.8-7.3,2.8c-4,0-7.3-1.3-7.3-2.8c0-1.6,3.3-2.8,7.3-2.8
					C262.9,248.6,266.1,249.9,266.1,251.4z"/>
			</g>
			<g>
				<path class="st10" d="M348.9,251.4c0,1.6-3.3,2.8-7.3,2.8s-7.3-1.3-7.3-2.8c0-1.6,3.3-2.8,7.3-2.8S348.9,249.9,348.9,251.4z"/>
			</g>
		</g>
		<g>
			<path class="st29" d="M460.2,479.4H139.8c0,0,15-50.6,30.8-74.3c1.5-2.2,2.9-4.2,4.3-5.9c3.8-4.6,11.8-8.6,21.3-12
				c15.7-5.7,35.4-9.7,46.9-11.7c5.8-1,9.5-1.6,9.5-1.6s26.2,15.9,47.3,15.5c29-0.5,47.3-15.5,47.3-15.5s2.6,0.4,6.8,1.1
				c16.9,2.9,60.2,11.5,70.9,24.2C441.6,418.8,460.2,479.4,460.2,479.4z"/>
		</g>
		<g>
			<path class="st28" d="M222.6,215.9c0,0,2.7,6,7.2,6.9c4.5,0.9,13.8-7.8,17.9-18.9c0,0-4.1,10.5-1.5,12.2
				c2.6,1.7,39.1-11.4,45.5-30.3c0,0,5,15.7,10.8,16.9c5.8,1.2-2.9-11.7,0-18.1c0,0,29.3,23.5,46.4,31.5c19,8.9,25.7,7.7,27.3,2.9
				c3.3-9.9-21.2-41.7-34.7-46.4c-13.5-4.7-51.8-8.7-69.2-2.3C255,176.8,227.3,193.4,222.6,215.9z"/>
		</g>
		<g>
			<g>
				<path class="st7" d="M380.4,211.8c-1.4,0.1-5.8-2.5-11.7-6.3c-1.6-1-3.3-2.1-5-3.2c-5.1-3.3-10.9-7-16.8-10.4
					c-1.1-0.7-2.2-1.3-3.4-1.9c-7.1-3.9-14.3-7.3-20.4-8.8c-0.4-0.1-0.9-0.2-1.4-0.3c-1-0.2-2.1-0.5-3.2-0.7
					c-7.2-1.4-16.2-2.1-26-1.4c-1.4,0.1-2.9,0.2-4.3,0.4c-9.6,1-19.8,3.4-29.5,7.8c-0.3,0.1-0.6,0.2-0.8,0.4c-1.4,0.7-2.7,1.3-4,2
					c-8.9,4.7-15,10.1-20,14.4c-1.8,1.6-3.5,3-5.1,4.3c-3.6,2.7-6.7,4.3-10.2,3.8c-5.6-0.8-8.6-21.4-2.1-31.1c2.7-4,6.9-7.7,12.1-11
					c1.2-0.8,2.6-1.7,3.9-2.4c6.5-3.8,13.8-7.1,20.7-9.8c1.1-0.4,2.2-0.9,3.3-1.3c0,0,0,0,0,0c2.4-0.9,4.7-1.7,6.8-2.4
					c8.6-3,16.9-4.7,24.9-5.3c1.1-0.1,2.1-0.1,3.2-0.2c9.6-0.4,18.5,0.6,26.6,2.6c1.1,0.3,2.2,0.6,3.3,0.9c3.8,1.1,7.4,2.3,10.8,3.8
					c3.2,1.3,6.4,2.7,9.6,3.9c1.4,0.6,2.8,1.1,4.2,1.7h0c7.1,2.9,13.9,5.7,19.7,8.7c1.6,0.8,3,1.6,4.5,2.5c4.3,2.6,7.9,5.5,10.4,8.7
					C385.1,186.8,384.8,211.4,380.4,211.8z"/>
			</g>
			<g>
				<path class="st30" d="M234.1,203.6c-1.8,1.6-3.5,3-5.1,4.3c-2.6-7.8-2.2-25.5-0.3-38.2c1.2-0.8,2.6-1.7,3.9-2.4
					c-0.2,4.6-0.3,10.8-0.3,17.4C232.3,192.4,233.2,199.2,234.1,203.6z"/>
			</g>
			<g>
				<path class="st30" d="M368.7,205.4c-1.6-1-3.3-2.1-5-3.2c0.8-4.1,2.1-12,2.1-20.9c0-4.1-0.1-8-0.1-11.5c1.6,0.8,3,1.6,4.5,2.5
					C371.4,184.7,371.3,199.2,368.7,205.4z"/>
			</g>
			<g>
				<path class="st30" d="M258,187.3c-1.4,0.7-2.7,1.3-4,2c-1.2-8.5-1.4-24-0.8-31.7c1.1-0.4,2.2-0.9,3.3-1.3
					C256.2,162.2,257.4,178.9,258,187.3z"/>
			</g>
			<g>
				<path class="st30" d="M292.6,178.7c-1.4,0.1-2.9,0.2-4.3,0.4c-1-9.9-0.9-25-0.1-30.7c1.1-0.1,2.1-0.1,3.2-0.2
					C290.7,152.4,291.9,169.1,292.6,178.7z"/>
			</g>
			<g>
				<path class="st30" d="M346.9,191.8c-1.1-0.7-2.2-1.3-3.4-1.9c-0.2-9.8-1.6-26.7-1.8-30.5c1.4,0.6,2.8,1.1,4.2,1.7h0
					C347.2,168.9,347.4,183.5,346.9,191.8z"/>
			</g>
			<g>
				<path class="st30" d="M321.7,180.8c-1-0.2-2.1-0.5-3.2-0.7c0.3-7.2-0.3-22.2-0.6-29.3c1.1,0.3,2.2,0.6,3.3,0.9
					C322.2,160.4,322.3,173.8,321.7,180.8z"/>
			</g>
		</g>
		<g>
			<path class="st4" d="M288.8,284c2.8,1,12.9,3.1,19.6,0.6c6.7-2.5,1.2,1.7-1.9,2.6c-3.1,0.9-7.4,1.9-12.1,0.4
				C289.6,286.2,287.5,283.6,288.8,284z"/>
		</g>
	</g>
</g>
<g id="Boy_03">
</g>
<g id="Boy_04">
</g>
<g id="Boy_05">
</g>
<g id="Girl_06">
</g>
<g id="Girl_07">
</g>
<g id="Girl_08">
</g>
<g id="Girl_09">
</g>
<g id="Girl_10">
</g>
<g id="Boy_06">
</g>
<g id="Boy_07">
</g>
<g id="Boy_08">
</g>
<g id="Boy_09">
</g>
<g id="Boy_10">
</g>
</svg>
