<?xml version="1.0" encoding="utf-8"?>
<!-- Generator: Adobe Illustrator 22.0.0, SVG Export Plug-In . SVG Version: 6.00 Build 0)  -->
<svg version="1.1" xmlns="http://www.w3.org/2000/svg" xmlns:xlink="http://www.w3.org/1999/xlink" x="0px" y="0px"
	 viewBox="0 0 600 600" style="enable-background:new 0 0 600 600;" xml:space="preserve">
<style type="text/css">
	.st0{fill:#35312F;}
	.st1{fill:#F4A671;}
	.st2{opacity:0.25;}
	.st3{fill:#C66940;}
	.st4{fill:#3F3832;}
	.st5{opacity:0.5;fill:#C66940;}
	.st6{fill:#FF3B3B;}
	.st7{fill:#D6D351;}
	.st8{fill:none;stroke:#EFBD41;stroke-width:0.5;stroke-miterlimit:10;}
	.st9{fill:#EFBD41;}
	.st10{opacity:0.25;fill:#FF3B3B;}
	.st11{fill:#6678CE;}
	.st12{fill:#FFFFFF;}
	.st13{fill:#EFCB59;}
	.st14{fill:#E5A83C;}
	.st15{fill:#FCDEB4;}
	.st16{fill:#E29823;}
	.st17{fill:#A55E2F;}
	.st18{fill:#ABD4ED;}
	.st19{fill:#54719B;}
	.st20{fill:#DD5150;}
	.st21{fill:#FCA518;}
	.st22{fill:#7C3C28;}
	.st23{fill:#E8EAF3;}
	.st24{fill:#EF8484;}
	.st25{fill:#4D628C;}
	.st26{fill:#6981A8;}
	.st27{fill:#C4BE47;}
	.st28{fill:#60422B;}
	.st29{fill:#D36737;}
	.st30{fill:#C6BF44;}
	.st31{fill:#996D3C;}
	.st32{fill:#F9A61A;}
	.st33{fill:#665431;}
	.st34{fill:#CC6140;}
	.st35{fill:#49564A;}
	.st36{fill:#E2774D;}
	.st37{opacity:0.25;fill:#C66940;}
	.st38{fill:#E5BB67;}
	.st39{fill:#756052;}
	.st40{fill:#E89874;}
	.st41{fill:#965640;}
	.st42{fill:#995F3F;}
	.st43{fill:#E5B155;}
	.st44{fill:#C94845;}
	.st45{fill:#913A3A;}
	.st46{fill:#5B483B;}
	.st47{fill:#373F47;}
	.st48{fill:#EAB3A4;}
	.st49{fill:#3A3733;}
	.st50{fill:#527064;}
	.st51{fill:#C7BCE8;}
	.st52{fill:#B78C69;}
	.st53{fill:#D3A479;}
	.st54{fill:#4F4D49;}
	.st55{fill:#A89F91;}
	.st56{fill:#F7AAA1;}
	.st57{fill:#726358;}
	.st58{fill:#AFADAA;}
	.st59{fill:#585D7F;}
	.st60{fill:#686E8E;}
	.st61{fill:#AF754A;}
	.st62{fill:#A55E73;}
	.st63{fill:#CC503B;}
	.st64{fill:#EFE4CA;}
	.st65{fill:#E0CEA9;}
	.st66{fill:#475B5E;}
	.st67{fill:#5F7B82;}
	.st68{fill:#73969B;}
</style>
<g id="Girl_01">
</g>
<g id="Girl_02">
</g>
<g id="Girl_03">
</g>
<g id="Girl_04">
</g>
<g id="Girl_05">
</g>
<g id="Boy_01">
	<g>
		<g>
			<path class="st1" d="M392.5,399.6h-185c0,0,54.6-30.1,58.4-39.8c1.6-4,2.7-13.5,3.3-23.2c0.1-1,0.1-2,0.2-3
				c0.8-12.2,1-23.7,1-23.7h59.1c0,0,0.2,11.5,1,23.7c0.1,1,0.1,2,0.2,3c0.7,9.7,1.8,19.2,3.3,23.2
				C337.9,369.5,392.5,399.6,392.5,399.6z"/>
		</g>
		<g class="st2">
			<path class="st3" d="M330.7,336.6c-11.1,5.1-22,7.9-30.7,7.9c-8.8,0-19.7-2.8-30.7-7.9c0.1-1,0.1-2,0.2-3c0.8-12.2,1-23.7,1-23.7
				h59.1c0,0,0.2,11.5,1,23.7C330.6,334.6,330.7,335.6,330.7,336.6z"/>
		</g>
		<g>
			<path class="st4" d="M218.8,258.4c0.5-0.3-6.6-41.4-4.5-69.2c2-27.9,10.6-33,19.3-37.5c8.6-4.6,14.7,0,14.7,0s6.6-17.2,26.4-26.4
				c19.8-9.1,66.4,2,81.6,12.2c15.2,10.1,27.9,37.9,29.1,49.6c4,38.8-7.8,66-7.8,66L218.8,258.4z"/>
		</g>
		<g>
			<path class="st1" d="M367.3,204.4c-17.5-32.9-67.3-32.9-67.3-32.9s-49.8,0-67.3,32.9c-8.8,16.6-6.2,84.7,11.3,101.5
				c17.5,16.8,40.4,26.9,56,26.9s38.5-10.1,56-26.9C373.5,289.1,376.1,220.9,367.3,204.4z"/>
		</g>
		<g>
			<g>
				<path class="st4" d="M260.5,230.3c0,4,2.7,7.2,6,7.2c3.3,0,6-3.2,6-7.2c0-4-2.7-7.2-6-7.2C263.1,223.1,260.5,226.3,260.5,230.3z
					"/>
			</g>
			<g>
				<path class="st4" d="M328.1,230.3c0,4,2.7,7.2,6,7.2c3.3,0,6-3.2,6-7.2c0-4-2.7-7.2-6-7.2C330.7,223.1,328.1,226.3,328.1,230.3z
					"/>
			</g>
		</g>
		<g>
			<g>
				<path class="st1" d="M232.1,223.8c-2.8-3.3-7.8-6.9-16.2-2.6c-8.4,4.3-6.9,27.8,0,33.9c9.3,8.1,15.9,5.8,18.2,0
					C236.4,249.3,234.3,226.4,232.1,223.8z"/>
			</g>
			<g>
				<path class="st1" d="M367.9,223.8c2.8-3.3,7.8-6.9,16.2-2.6c8.4,4.3,6.9,27.8,0,33.9c-9.3,8.1-15.9,5.8-18.2,0
					C363.6,249.3,365.7,226.4,367.9,223.8z"/>
			</g>
		</g>
		<g>
			<path class="st4" d="M220.2,213.4l8.5,7.4c0,0,33.6-17.4,38.7-37.6c0,0,52.8,51.4,103.9,37.6c0,0,3.7-17.1-2.8-25.9
				c-6.5-8.8-44.6-26-67-29c-22.4-3-56.9,13.9-63.5,21.2C231.4,194.3,220.2,213.4,220.2,213.4z"/>
		</g>
		<g>
			<path class="st5" d="M302.3,232.2c3,0-9.2,17.2-6.8,30.9c0.7,3.9,8.3,2.8,10.5,3c2.3,0.2-0.8,1.7-3,1.9c-2.3,0.2-8.5-0.1-9.4-2.6
				C291,258.4,300,232.2,302.3,232.2z"/>
		</g>
		<g>
			<path class="st4" d="M318.2,279.6c0,0-12,11.5-21,10.8C297.2,290.4,313.4,292.6,318.2,279.6z"/>
		</g>
		<g>
			<path class="st4" d="M257.4,216.3c3.2-1.3,11.6-2.5,14.7-2.1c3.1,0.4,4.4,0,3.9-2.1c-0.6-2.1-3.4-1.6-7-1.4
				c-3.6,0.2-8.6,2.2-11.6,3.5C254.4,215.6,255.9,217,257.4,216.3z"/>
		</g>
		<g>
			<g>
				<path class="st10" d="M266.1,250.2c0,1.6-3.3,2.8-7.3,2.8c-4,0-7.3-1.3-7.3-2.8c0-1.6,3.3-2.8,7.3-2.8
					C262.9,247.4,266.1,248.6,266.1,250.2z"/>
			</g>
			<g>
				<path class="st10" d="M348.9,250.2c0,1.6-3.3,2.8-7.3,2.8s-7.3-1.3-7.3-2.8c0-1.6,3.3-2.8,7.3-2.8S348.9,248.6,348.9,250.2z"/>
			</g>
		</g>
		<g>
			<path class="st25" d="M460.2,478.1H139.8c0,0,15-50.6,30.8-74.3c1.5-2.2,2.9-4.2,4.3-5.9c3.8-4.6,11.8-8.6,21.3-12
				c15.7-5.7,35.4-9.7,46.9-11.7c5.8-1,9.5-1.6,9.5-1.6s26.2,15.9,47.3,15.5c29-0.5,47.3-15.5,47.3-15.5s2.6,0.4,6.8,1.1
				c16.9,2.9,60.2,11.5,70.9,24.2C441.6,417.5,460.2,478.1,460.2,478.1z"/>
		</g>
		<g>
			<path class="st26" d="M347.4,435.9c8.6-0.1,38.9-1,43.6,0c4.6,1,4.3,5,1.5,7.3c-2.8,2.3-42.4,2.6-45.1,2
				C344.8,444.5,344.1,435.9,347.4,435.9z"/>
		</g>
	</g>
</g>
<g id="Boy_02">
</g>
<g id="Boy_03">
</g>
<g id="Boy_04">
</g>
<g id="Boy_05">
</g>
<g id="Girl_06">
</g>
<g id="Girl_07">
</g>
<g id="Girl_08">
</g>
<g id="Girl_09">
</g>
<g id="Girl_10">
</g>
<g id="Boy_06">
</g>
<g id="Boy_07">
</g>
<g id="Boy_08">
</g>
<g id="Boy_09">
</g>
<g id="Boy_10">
</g>
</svg>
