<?xml version="1.0" encoding="utf-8"?>
<!-- Generator: Adobe Illustrator 22.0.0, SVG Export Plug-In . SVG Version: 6.00 Build 0)  -->
<svg version="1.1" xmlns="http://www.w3.org/2000/svg" xmlns:xlink="http://www.w3.org/1999/xlink" x="0px" y="0px"
	 viewBox="0 0 600 600" style="enable-background:new 0 0 600 600;" xml:space="preserve">
<style type="text/css">
	.st0{fill:#35312F;}
	.st1{fill:#F4A671;}
	.st2{opacity:0.25;}
	.st3{fill:#C66940;}
	.st4{fill:#3F3832;}
	.st5{opacity:0.5;fill:#C66940;}
	.st6{fill:#FF3B3B;}
	.st7{fill:#D6D351;}
	.st8{fill:none;stroke:#EFBD41;stroke-width:0.5;stroke-miterlimit:10;}
	.st9{fill:#EFBD41;}
	.st10{opacity:0.25;fill:#FF3B3B;}
	.st11{fill:#6678CE;}
	.st12{fill:#FFFFFF;}
	.st13{fill:#EFCB59;}
	.st14{fill:#E5A83C;}
	.st15{fill:#FCDEB4;}
	.st16{fill:#E29823;}
	.st17{fill:#A55E2F;}
	.st18{fill:#ABD4ED;}
	.st19{fill:#54719B;}
	.st20{fill:#DD5150;}
	.st21{fill:#FCA518;}
	.st22{fill:#7C3C28;}
	.st23{fill:#E8EAF3;}
	.st24{fill:#EF8484;}
	.st25{fill:#4D628C;}
	.st26{fill:#6981A8;}
	.st27{fill:#C4BE47;}
	.st28{fill:#60422B;}
	.st29{fill:#D36737;}
	.st30{fill:#C6BF44;}
	.st31{fill:#996D3C;}
	.st32{fill:#F9A61A;}
	.st33{fill:#665431;}
	.st34{fill:#CC6140;}
	.st35{fill:#49564A;}
	.st36{fill:#E2774D;}
	.st37{opacity:0.25;fill:#C66940;}
	.st38{fill:#E5BB67;}
	.st39{fill:#756052;}
	.st40{fill:#E89874;}
	.st41{fill:#965640;}
	.st42{fill:#995F3F;}
	.st43{fill:#E5B155;}
	.st44{fill:#C94845;}
	.st45{fill:#913A3A;}
	.st46{fill:#5B483B;}
	.st47{fill:#373F47;}
	.st48{fill:#EAB3A4;}
	.st49{fill:#3A3733;}
	.st50{fill:#527064;}
	.st51{fill:#C7BCE8;}
	.st52{fill:#B78C69;}
	.st53{fill:#D3A479;}
	.st54{fill:#4F4D49;}
	.st55{fill:#A89F91;}
	.st56{fill:#F7AAA1;}
	.st57{fill:#726358;}
	.st58{fill:#AFADAA;}
	.st59{fill:#585D7F;}
	.st60{fill:#686E8E;}
	.st61{fill:#AF754A;}
	.st62{fill:#A55E73;}
	.st63{fill:#CC503B;}
	.st64{fill:#EFE4CA;}
	.st65{fill:#E0CEA9;}
	.st66{fill:#475B5E;}
	.st67{fill:#5F7B82;}
	.st68{fill:#73969B;}
</style>
<g id="Girl_01">
</g>
<g id="Girl_02">
</g>
<g id="Girl_03">
</g>
<g id="Girl_04">
</g>
<g id="Girl_05">
</g>
<g id="Boy_01">
</g>
<g id="Boy_02">
</g>
<g id="Boy_03">
	<g>
		<g>
			<path class="st31" d="M363.1,154.9c0,0,16.1-2.8,20.8,10.5c4.7,13.3,7.3,50.2-1.7,61.4c-9,11.2-26.6,20.7-40.6,27.3
				c-14,6.6-115.5-13.2-115.5-13.2s-11.3-35-10.4-56.4s20.5-43.8,33.4-52.9c12.9-9.1,55-14.3,76.9-8.2
				C347.9,129.4,363.1,154.9,363.1,154.9z"/>
		</g>
		<g>
			<path class="st1" d="M392.5,400.7h-185c0,0,54.6-30.1,58.4-39.8c1.6-4,2.7-13.5,3.3-23.2c0.1-1,0.1-2,0.2-3
				c0.8-12.2,1-23.7,1-23.7h59.1c0,0,0.2,11.5,1,23.7c0.1,1,0.1,2,0.2,3c0.7,9.7,1.8,19.2,3.3,23.2
				C337.9,370.6,392.5,400.7,392.5,400.7z"/>
		</g>
		<g class="st2">
			<path class="st3" d="M330.8,337.7c-11.1,5.1-22,7.9-30.7,7.9c-8.8,0-19.7-2.8-30.7-7.9c0.1-1,0.1-2,0.2-3c0.8-12.2,1-23.7,1-23.7
				h59.1c0,0,0.2,11.5,1,23.7C330.6,335.7,330.7,336.7,330.8,337.7z"/>
		</g>
		<g>
			<path class="st1" d="M367.3,205.5c-17.5-32.9-67.3-32.9-67.3-32.9s-49.8,0-67.3,32.9c-8.8,16.6-6.2,84.7,11.3,101.5
				c17.5,16.8,40.4,26.9,56,26.9s38.5-10.1,56-26.9C373.5,290.2,376.1,222.1,367.3,205.5z"/>
		</g>
		<g>
			<g>
				<path class="st4" d="M260.5,231.4c0,4,2.7,7.2,6,7.2c3.3,0,6-3.2,6-7.2c0-4-2.7-7.2-6-7.2C263.1,224.3,260.5,227.5,260.5,231.4z
					"/>
			</g>
			<g>
				<path class="st4" d="M328.1,231.4c0,4,2.7,7.2,6,7.2c3.3,0,6-3.2,6-7.2c0-4-2.7-7.2-6-7.2C330.7,224.3,328.1,227.5,328.1,231.4z
					"/>
			</g>
		</g>
		<g>
			<g>
				<path class="st1" d="M232.1,224.9c-2.8-3.3-7.8-6.9-16.2-2.6c-8.4,4.3-6.9,27.8,0,33.9c9.3,8.1,15.9,5.8,18.2,0
					C236.4,250.4,234.3,227.6,232.1,224.9z"/>
			</g>
			<g>
				<path class="st1" d="M367.9,224.9c2.8-3.3,7.8-6.9,16.2-2.6c8.4,4.3,6.9,27.8,0,33.9c-9.3,8.1-15.9,5.8-18.2,0
					C363.6,250.4,365.7,227.6,367.9,224.9z"/>
			</g>
		</g>
		<g>
			<path class="st5" d="M302.3,233.4c3,0-9.2,17.2-6.8,30.9c0.7,3.9,8.3,2.8,10.5,3c2.3,0.2-0.8,1.7-3,1.9c-2.3,0.2-8.5-0.1-9.4-2.6
				C291,259.5,300,233.4,302.3,233.4z"/>
		</g>
		<g>
			<path class="st4" d="M257.5,217.5c3.2-1.3,11.6-2.5,14.7-2.1c3.1,0.4,4.4,0,3.9-2.1c-0.6-2.1-3.4-1.6-7-1.4
				c-3.6,0.2-8.6,2.2-11.6,3.5C254.5,216.7,255.9,218.1,257.5,217.5z"/>
		</g>
		<g>
			<path class="st4" d="M342.5,217.5c-3.2-1.3-11.6-2.5-14.7-2.1c-3.1,0.4-4.4,0-3.9-2.1c0.6-2.1,3.4-1.6,7-1.4
				c3.6,0.2,8.6,2.2,11.6,3.5C345.6,216.7,344.1,218.1,342.5,217.5z"/>
		</g>
		<g>
			<g>
				<ellipse class="st10" cx="258.8" cy="251.3" rx="7.3" ry="2.8"/>
			</g>
			<g>
				<ellipse class="st10" cx="341.6" cy="251.3" rx="7.3" ry="2.8"/>
			</g>
		</g>
		<g>
			<path class="st32" d="M460.2,479.2H139.8c0,0,15-50.6,30.8-74.3c1.5-2.2,2.9-4.2,4.3-5.9c3.8-4.6,11.8-8.6,21.3-12
				c13.3-4.8,29.5-8.4,41.1-10.7c2.1-0.4,4-0.8,5.7-1.1c5.8-1,9.5-1.6,9.5-1.6s26.2,15.9,47.3,15.5c29-0.5,47.3-15.5,47.3-15.5
				s2.6,0.4,6.8,1.1c2.5,0.4,5.6,1,9,1.7c19.9,3.9,52.8,11.7,61.9,22.6C441.6,418.6,460.2,479.2,460.2,479.2z"/>
		</g>
		<g>
			<path class="st4" d="M288.8,283.9c2.8,1,12.9,3.1,19.6,0.6c6.7-2.5,1.2,1.7-1.9,2.6c-3.1,0.9-7.4,1.9-12.1,0.4
				C289.6,286.1,287.5,283.5,288.8,283.9z"/>
		</g>
		<g>
			<path class="st33" d="M363.1,376.5c-16.1,22.7-61.8,31.6-86.9,24.3c-20.2-5.9-33.7-18.8-38.8-24.4c2.1-0.4,4-0.8,5.7-1.1
				c5.8-1,9.5-1.6,9.5-1.6s26.2,15.9,47.3,15.5c29-0.5,47.3-15.5,47.3-15.5s2.6,0.4,6.8,1.1C356.6,375.2,359.7,375.8,363.1,376.5z"
				/>
		</g>
		<g>
			<g>
				<path class="st33" d="M251.9,442.4l-3.8,19h12.8l-3.6,17.8h25.3l7.4-36.8H251.9z"/>
			</g>
			<g>
				<path class="st33" d="M355,442.4h-55.7l-3.9,19h26.5l-13,11.2l-1.3,6.6h37.4c-2.4-2.9-5.9-5.2-10.1-6.6l17.1-14.7L355,442.4z"/>
			</g>
		</g>
		<g>
			<path class="st31" d="M377.4,217.6c0,0-5.3,5.3-10.5,5.3c-9.1,0.1-18.9-16.5-22.5-35.3c0,0-16.2-13.1-46.3-11.5
				c-12.7,0.7-36,12-42.3,19.8c-3.3,4.1-12.7,20.3-20.6,24.4c-4.9,2.5-8.5,2.7-12.5-2.7c-3.9-5.4,14.7-40.2,33.1-51.9
				s79.9-14.3,93.2-7.4C362.3,165.2,377.4,217.6,377.4,217.6z"/>
		</g>
		<g>
			<path class="st31" d="M344.1,172.2c-12.6,6.8-8.2,17.3-28.6,22.8c-20.4,5.4-22.5-12.6-22.3-15c0.2-2.4,2.1,7.5,13.6,7.8
				c11.5,0.3,11.1-16.7,21-22.8C337.6,158.9,349.5,169.2,344.1,172.2z"/>
		</g>
	</g>
</g>
<g id="Boy_04">
</g>
<g id="Boy_05">
</g>
<g id="Girl_06">
</g>
<g id="Girl_07">
</g>
<g id="Girl_08">
</g>
<g id="Girl_09">
</g>
<g id="Girl_10">
</g>
<g id="Boy_06">
</g>
<g id="Boy_07">
</g>
<g id="Boy_08">
</g>
<g id="Boy_09">
</g>
<g id="Boy_10">
</g>
</svg>
