<?xml version="1.0" encoding="utf-8"?>
<!-- Generator: Adobe Illustrator 22.0.0, SVG Export Plug-In . SVG Version: 6.00 Build 0)  -->
<svg version="1.1" xmlns="http://www.w3.org/2000/svg" xmlns:xlink="http://www.w3.org/1999/xlink" x="0px" y="0px"
	 viewBox="0 0 600 600" style="enable-background:new 0 0 600 600;" xml:space="preserve">
<style type="text/css">
	.st0{fill:#35312F;}
	.st1{fill:#F4A671;}
	.st2{opacity:0.25;}
	.st3{fill:#C66940;}
	.st4{fill:#3F3832;}
	.st5{opacity:0.5;fill:#C66940;}
	.st6{fill:#FF3B3B;}
	.st7{fill:#D6D351;}
	.st8{fill:none;stroke:#EFBD41;stroke-width:0.5;stroke-miterlimit:10;}
	.st9{fill:#EFBD41;}
	.st10{opacity:0.25;fill:#FF3B3B;}
	.st11{fill:#6678CE;}
	.st12{fill:#FFFFFF;}
	.st13{fill:#EFCB59;}
	.st14{fill:#E5A83C;}
	.st15{fill:#FCDEB4;}
	.st16{fill:#E29823;}
	.st17{fill:#A55E2F;}
	.st18{fill:#ABD4ED;}
	.st19{fill:#54719B;}
	.st20{fill:#DD5150;}
	.st21{fill:#FCA518;}
	.st22{fill:#7C3C28;}
	.st23{fill:#E8EAF3;}
	.st24{fill:#EF8484;}
	.st25{fill:#4D628C;}
	.st26{fill:#6981A8;}
	.st27{fill:#C4BE47;}
	.st28{fill:#60422B;}
	.st29{fill:#D36737;}
	.st30{fill:#C6BF44;}
	.st31{fill:#996D3C;}
	.st32{fill:#F9A61A;}
	.st33{fill:#665431;}
	.st34{fill:#CC6140;}
	.st35{fill:#49564A;}
	.st36{fill:#E2774D;}
	.st37{opacity:0.25;fill:#C66940;}
	.st38{fill:#E5BB67;}
	.st39{fill:#756052;}
	.st40{fill:#E89874;}
	.st41{fill:#965640;}
	.st42{fill:#995F3F;}
	.st43{fill:#E5B155;}
	.st44{fill:#C94845;}
	.st45{fill:#913A3A;}
	.st46{fill:#5B483B;}
	.st47{fill:#373F47;}
	.st48{fill:#EAB3A4;}
	.st49{fill:#3A3733;}
	.st50{fill:#527064;}
	.st51{fill:#C7BCE8;}
	.st52{fill:#B78C69;}
	.st53{fill:#D3A479;}
	.st54{fill:#4F4D49;}
	.st55{fill:#A89F91;}
	.st56{fill:#F7AAA1;}
	.st57{fill:#726358;}
	.st58{fill:#AFADAA;}
	.st59{fill:#585D7F;}
	.st60{fill:#686E8E;}
	.st61{fill:#AF754A;}
	.st62{fill:#A55E73;}
	.st63{fill:#CC503B;}
	.st64{fill:#EFE4CA;}
	.st65{fill:#E0CEA9;}
	.st66{fill:#475B5E;}
	.st67{fill:#5F7B82;}
	.st68{fill:#73969B;}
</style>
<g id="Girl_01">
</g>
<g id="Girl_02">
</g>
<g id="Girl_03">
</g>
<g id="Girl_04">
</g>
<g id="Girl_05">
</g>
<g id="Boy_01">
</g>
<g id="Boy_02">
</g>
<g id="Boy_03">
</g>
<g id="Boy_04">
</g>
<g id="Boy_05">
	<g>
		<path class="st4" d="M223.4,239.3c0,0-3.8-30.2-2.9-44.8c0.9-14.6,9.1-40.9,27.1-54.6c33.5-25.5,91.6-13.9,106.4-3.3
			c22.7,16.2,27.9,40.8,26.3,61.1c-1,12.8-3.7,35.3-6.4,40.3C371.3,243.1,223.8,243.5,223.4,239.3z"/>
		<path class="st1" d="M391.6,397.6H208.4c0,0,54.1-29.8,57.9-39.4c1.6-4,2.6-13.4,3.3-23c0.1-1,0.1-2,0.2-3c0.8-12.1,1-23.5,1-23.5
			h58.5c0,0,0.2,11.4,1,23.5c0.1,1,0.1,2,0.2,3c0.7,9.6,1.7,19,3.3,23C337.5,367.8,391.6,397.6,391.6,397.6z"/>
		<path class="st37" d="M330.5,335.3c-11,5.1-21.8,7.8-30.5,7.8c-8.7,0-19.5-2.7-30.5-7.8c0.1-1,0.1-2,0.2-3c0.8-12.1,1-23.5,1-23.5
			h58.5c0,0,0.2,11.4,1,23.5C330.3,333.2,330.4,334.3,330.5,335.3z"/>
		<path class="st1" d="M366.7,204.3c-17.3-32.6-66.7-32.6-66.7-32.6s-49.3,0-66.7,32.6c-8.7,16.4-6.1,83.9,11.2,100.5
			c17.3,16.6,40,26.6,55.5,26.6s38.1-10,55.5-26.6C372.8,288.2,375.4,220.7,366.7,204.3z"/>
		<g>
			<path class="st4" d="M260.8,230c0,3.9,2.6,7.1,5.9,7.1c3.3,0,5.9-3.2,5.9-7.1s-2.6-7.1-5.9-7.1
				C263.5,222.9,260.8,226.1,260.8,230z"/>
			<path class="st4" d="M327.8,230c0,3.9,2.6,7.1,5.9,7.1c3.3,0,5.9-3.2,5.9-7.1s-2.6-7.1-5.9-7.1
				C330.4,222.9,327.8,226.1,327.8,230z"/>
		</g>
		<g>
			<path class="st1" d="M232.7,223.5c-2.8-3.3-7.7-6.9-16.1-2.6c-8.3,4.3-6.8,27.6,0,33.5c9.2,8,15.8,5.7,18.1,0
				C237,248.8,234.9,226.1,232.7,223.5z"/>
			<path class="st1" d="M367.3,223.5c2.8-3.3,7.7-6.9,16.1-2.6c8.3,4.3,6.8,27.6,0,33.5c-9.2,8-15.8,5.7-18.1,0
				C363,248.8,365.1,226.1,367.3,223.5z"/>
		</g>
		<path class="st5" d="M302.3,231.9c3,0-9.1,17.1-6.7,30.6c0.7,3.9,8.2,2.8,10.4,3c2.2,0.2-0.7,1.7-3,1.9c-2.2,0.2-8.4-0.1-9.3-2.6
			C291,257.8,300,231.9,302.3,231.9z"/>
		<path class="st4" d="M257.9,216.1c3.2-1.3,11.5-2.4,14.6-2.1c3.1,0.4,4.4,0,3.8-2.1c-0.6-2.1-3.3-1.6-6.9-1.4
			c-3.6,0.2-8.5,2.2-11.5,3.5C254.9,215.4,256.3,216.8,257.9,216.1z"/>
		<path class="st4" d="M342.1,216.1c-3.2-1.3-11.5-2.4-14.6-2.1c-3.1,0.4-4.4,0-3.8-2.1c0.6-2.1,3.3-1.6,6.9-1.4
			c3.6,0.2,8.5,2.2,11.5,3.5C345.1,215.4,343.7,216.8,342.1,216.1z"/>
		<g>
			<ellipse class="st10" cx="259.2" cy="249.6" rx="7.3" ry="2.8"/>
			<ellipse class="st10" cx="341.2" cy="249.6" rx="7.3" ry="2.8"/>
		</g>
		<path class="st38" d="M458.7,475.4H141.3c0,0,14.8-50.1,30.5-73.6c1.5-2.2,2.9-4.2,4.3-5.8c3.8-4.5,11.7-8.5,21.1-11.9
			c15.5-5.6,35.1-9.6,46.4-11.6c5.8-1,9.4-1.6,9.4-1.6s25.9,15.8,46.9,15.4c28.7-0.5,46.9-15.4,46.9-15.4s2.5,0.4,6.7,1.1
			c16.7,2.9,59.6,11.3,70.3,24C440.2,415.4,458.7,475.4,458.7,475.4z"/>
		<path class="st4" d="M288.9,282c2.8,1,12.7,3.1,19.4,0.5c6.7-2.5,1.1,1.7-1.9,2.6c-3.1,0.9-7.3,1.9-12,0.4
			C289.7,284.1,287.6,281.5,288.9,282z"/>
		<path class="st4" d="M377,210.4c-6.8-26-42-51.6-76.6-51.9c-35.3-0.3-70,25.4-77,51.9c0,0-0.2,9.2,7.4,11.2
			c7.6,2,16-17.9,18.6-25.1c2.5-7.2,20.8-16.1,31.7-19c10.1-2.7,18-2.9,19.2-3c1.2,0,9,0.2,19.2,3c11,3,29.2,11.8,31.7,19
			c2.5,7.2,11,27.1,18.6,25.1C377.2,219.6,377,210.4,377,210.4z"/>
		<path class="st4" d="M369.6,259.4c-0.9,0.3-15.1,22.2-26.4,33.6c-0.6,0.6-1.4,1.3-2.1,1.9c-0.6-10-9.3-15.4-16.8-18.7
			c-7.5-3.4-23.9-3-23.9-3s-16.5-0.4-23.9,3c-7.5,3.4-16.2,8.7-16.8,18.7c-0.8-0.6-1.5-1.2-2.1-1.9c-11.4-11.4-25.5-33.3-26.4-33.6
			c-3.1-0.9-2.6,1.9-1.7,7c0,0,3.5,26.7,10.5,36.7c7,10.1,37.7,30.6,60.4,31.1c22.7-0.4,53.4-21,60.4-31.1
			c7-10.1,10.5-36.7,10.5-36.7C372.2,261.3,372.7,258.6,369.6,259.4z M277.3,304.3c-6.2-5.2-5.5-17.5-3-20.3
			c5.7-6.6,26.1-7.7,26.1-7.7s20.4,1.1,26.1,7.7c2.5,2.9,3.2,15.1-3,20.3c-11.6,4.6-23,7.2-23,7.2S288.9,308.9,277.3,304.3z"/>
		<g>
			<path class="st4" d="M266.2,358.3c3.6,0.9-8.6,8.5-7,12.6s8.5,13.1,10.3,16.7c1.8,3.5-5,9-5.3,14.1c-0.4,5,2.1,73.8,2.1,73.8
				H141.3c0,0,17-63,34.8-79.4s73.6-29.5,73.6-29.5S258.7,356.3,266.2,358.3z"/>
			<path class="st39" d="M248,369.4c-3,1.5-9.8,8.4-8.8,10.9c1.1,2.5,6.8,19.8,9.7,21.4c2.9,1.6,10-3.1,11.3-3.8
				c1.3-0.7,2.2,6.8,3.1,5.7c0.8-1.2-1.6-5.4-2.5-6.7c-0.9-1.3-8.2,3.3-11.1,3.8c-2.9,0.5-9.8-19.3-9.4-21.6
				C240.7,376.7,248,369.4,248,369.4z"/>
			<path class="st39" d="M205.6,440.1c2.5,0,35.6-0.4,37.5,0c1.8,0.4,2,4.6,0,5.5c-2,0.8-38,1.4-38.6,0
				C203.9,444.2,203.1,440.1,205.6,440.1z"/>
		</g>
		<g>
			<path class="st4" d="M334.6,358.1c-3.7,1,7.8,8.7,6.2,12.8s-8.5,13.1-10.3,16.7c-1.8,3.5,5,9,5.3,14.1c0.4,5-2.1,73.8-2.1,73.8
				h124.9c0,0-17-63-34.8-79.4s-73.6-29.5-73.6-29.5S342.2,356.1,334.6,358.1z"/>
			<path class="st39" d="M352,369.4c3,1.5,9.8,8.4,8.8,10.9c-1.1,2.5-6.8,19.8-9.7,21.4c-2.9,1.6-10-3.1-11.3-3.8
				c-1.3-0.7-2.2,6.8-3.1,5.7c-0.8-1.2,1.6-5.4,2.5-6.7c0.9-1.3,8.2,3.3,11.1,3.8c2.9,0.5,9.8-19.3,9.4-21.6
				C359.3,376.7,352,369.4,352,369.4z"/>
			<path class="st39" d="M394.4,440.1c-2.5,0-35.6-0.4-37.5,0c-1.8,0.4-2,4.6,0,5.5c2,0.8,38,1.4,38.6,0
				C396.1,444.2,396.9,440.1,394.4,440.1z"/>
			<circle class="st39" cx="342.2" cy="411.9" r="1.7"/>
			<path class="st39" d="M342.2,429c0,0.9-0.8,1.7-1.7,1.7c-0.9,0-1.7-0.8-1.7-1.7c0-0.9,0.8-1.7,1.7-1.7
				C341.4,427.3,342.2,428,342.2,429z"/>
			<circle class="st39" cx="340.4" cy="448.1" r="1.7"/>
			<circle class="st39" cx="342.2" cy="467.3" r="1.7"/>
		</g>
	</g>
</g>
<g id="Girl_06">
</g>
<g id="Girl_07">
</g>
<g id="Girl_08">
</g>
<g id="Girl_09">
</g>
<g id="Girl_10">
</g>
<g id="Boy_06">
</g>
<g id="Boy_07">
</g>
<g id="Boy_08">
</g>
<g id="Boy_09">
</g>
<g id="Boy_10">
</g>
</svg>
