<?xml version="1.0" encoding="utf-8"?>
<!-- Generator: Adobe Illustrator 22.0.0, SVG Export Plug-In . SVG Version: 6.00 Build 0)  -->
<svg version="1.1" xmlns="http://www.w3.org/2000/svg" xmlns:xlink="http://www.w3.org/1999/xlink" x="0px" y="0px"
	 viewBox="0 0 600 600" style="enable-background:new 0 0 600 600;" xml:space="preserve">
<style type="text/css">
	.st0{fill:#35312F;}
	.st1{fill:#F4A671;}
	.st2{opacity:0.25;}
	.st3{fill:#C66940;}
	.st4{fill:#3F3832;}
	.st5{opacity:0.5;fill:#C66940;}
	.st6{fill:#FF3B3B;}
	.st7{fill:#D6D351;}
	.st8{fill:none;stroke:#EFBD41;stroke-width:0.5;stroke-miterlimit:10;}
	.st9{fill:#EFBD41;}
	.st10{opacity:0.25;fill:#FF3B3B;}
	.st11{fill:#6678CE;}
	.st12{fill:#FFFFFF;}
	.st13{fill:#EFCB59;}
	.st14{fill:#E5A83C;}
	.st15{fill:#FCDEB4;}
	.st16{fill:#E29823;}
	.st17{fill:#A55E2F;}
	.st18{fill:#ABD4ED;}
	.st19{fill:#54719B;}
	.st20{fill:#DD5150;}
	.st21{fill:#FCA518;}
	.st22{fill:#7C3C28;}
	.st23{fill:#E8EAF3;}
	.st24{fill:#EF8484;}
	.st25{fill:#4D628C;}
	.st26{fill:#6981A8;}
	.st27{fill:#C4BE47;}
	.st28{fill:#60422B;}
	.st29{fill:#D36737;}
	.st30{fill:#C6BF44;}
	.st31{fill:#996D3C;}
	.st32{fill:#F9A61A;}
	.st33{fill:#665431;}
	.st34{fill:#CC6140;}
	.st35{fill:#49564A;}
	.st36{fill:#E2774D;}
	.st37{opacity:0.25;fill:#C66940;}
	.st38{fill:#E5BB67;}
	.st39{fill:#756052;}
	.st40{fill:#E89874;}
	.st41{fill:#965640;}
	.st42{fill:#995F3F;}
	.st43{fill:#E5B155;}
	.st44{fill:#C94845;}
	.st45{fill:#913A3A;}
	.st46{fill:#5B483B;}
	.st47{fill:#373F47;}
	.st48{fill:#EAB3A4;}
	.st49{fill:#3A3733;}
	.st50{fill:#527064;}
	.st51{fill:#C7BCE8;}
	.st52{fill:#B78C69;}
	.st53{fill:#D3A479;}
	.st54{fill:#4F4D49;}
	.st55{fill:#A89F91;}
	.st56{fill:#F7AAA1;}
	.st57{fill:#726358;}
	.st58{fill:#AFADAA;}
	.st59{fill:#585D7F;}
	.st60{fill:#686E8E;}
	.st61{fill:#AF754A;}
	.st62{fill:#A55E73;}
	.st63{fill:#CC503B;}
	.st64{fill:#EFE4CA;}
	.st65{fill:#E0CEA9;}
	.st66{fill:#475B5E;}
	.st67{fill:#5F7B82;}
	.st68{fill:#73969B;}
</style>
<g id="Girl_01">
</g>
<g id="Girl_02">
</g>
<g id="Girl_03">
</g>
<g id="Girl_04">
</g>
<g id="Girl_05">
</g>
<g id="Boy_01">
</g>
<g id="Boy_02">
</g>
<g id="Boy_03">
</g>
<g id="Boy_04">
</g>
<g id="Boy_05">
</g>
<g id="Girl_06">
</g>
<g id="Girl_07">
</g>
<g id="Girl_08">
</g>
<g id="Girl_09">
</g>
<g id="Girl_10">
</g>
<g id="Boy_06">
</g>
<g id="Boy_07">
	<g>
		<g>
			<g>
				<path class="st57" d="M235.1,272c0,0-20.3-39.4-25-48.9c-4.7-9.4,6.1-15.8,6.1-15.8s-18.7-6.9-13.7-19.6
					c4.9-12.8,26.5-17.7,25.3-23.1c-1.2-5.4-9.6-22.1,2.2-36.3c11.8-14.2,42.7,0,52,0c9.3,0,29.2-9.3,46-10.3
					c16.8-1,34,18.7,28.6,39.8c0,0,10.1-4.9,20.7,2.9c10.7,7.9,13.2,34,4.3,63.4S235.1,272,235.1,272z"/>
			</g>
			<g>
				<path class="st1" d="M392.5,403.5h-185c0,0,54.6-30.1,58.4-39.8c1.6-4,2.7-13.5,3.3-23.2c0.1-1,0.1-2,0.2-3
					c0.8-12.2,1-23.7,1-23.7h59.1c0,0,0.2,11.5,1,23.7c0.1,1,0.1,2,0.2,3c0.7,9.7,1.8,19.2,3.3,23.2
					C337.9,373.4,392.5,403.5,392.5,403.5z"/>
			</g>
			<g class="st2">
				<path class="st3" d="M330.7,340.5c-11.1,5.1-22,7.9-30.7,7.9c-8.8,0-19.7-2.8-30.7-7.9c0.1-1,0.1-2,0.2-3
					c0.8-12.2,1-23.7,1-23.7h59.1c0,0,0.2,11.5,1,23.7C330.6,338.5,330.7,339.5,330.7,340.5z"/>
			</g>
			<g>
				<path class="st1" d="M367.3,208.3c-17.5-32.9-67.3-32.9-67.3-32.9s-49.8,0-67.3,32.9c-8.8,16.6-6.2,84.7,11.3,101.5
					c17.5,16.8,40.4,26.9,56,26.9s38.5-10.1,56-26.9C373.5,293,376.1,224.9,367.3,208.3z"/>
			</g>
			<g>
				<g>
					<path class="st4" d="M260.5,234.2c0,4,2.7,7.2,6,7.2c3.3,0,6-3.2,6-7.2c0-4-2.7-7.2-6-7.2C263.1,227.1,260.5,230.3,260.5,234.2
						z"/>
				</g>
				<g>
					<ellipse class="st4" cx="334" cy="234.2" rx="6" ry="7.2"/>
				</g>
			</g>
			<g>
				<g>
					<path class="st1" d="M232.1,227.7c-2.8-3.3-7.8-6.9-16.2-2.6c-8.4,4.3-6.9,27.8,0,33.9c9.3,8.1,15.9,5.8,18.2,0
						C236.4,253.2,234.3,230.3,232.1,227.7z"/>
				</g>
				<g>
					<path class="st1" d="M367.9,227.7c2.8-3.3,7.8-6.9,16.2-2.6c8.4,4.3,6.9,27.8,0,33.9c-9.3,8.1-15.9,5.8-18.2,0
						C363.6,253.2,365.7,230.3,367.9,227.7z"/>
				</g>
			</g>
			<g>
				<path class="st5" d="M302.3,236.2c3,0-9.2,17.2-6.8,30.9c0.7,3.9,8.3,2.8,10.5,3c2.3,0.2-0.8,1.7-3,1.9
					c-2.3,0.2-8.5-0.1-9.4-2.6C291,262.3,300,236.2,302.3,236.2z"/>
			</g>
			<g>
				<path class="st4" d="M257.5,220.2c3.2-1.3,11.6-2.5,14.7-2.1c3.1,0.4,4.4,0,3.9-2.1c-0.6-2.1-3.4-1.6-7-1.4
					c-3.6,0.2-8.6,2.2-11.6,3.5C254.4,219.5,255.9,220.9,257.5,220.2z"/>
			</g>
			<g>
				<path class="st4" d="M342.5,220.2c-3.2-1.3-11.6-2.5-14.7-2.1c-3.1,0.4-4.4,0-3.9-2.1s3.4-1.6,7-1.4c3.6,0.2,8.6,2.2,11.6,3.5
					C345.5,219.5,344.1,220.9,342.5,220.2z"/>
			</g>
			<g>
				<g>
					<path class="st10" d="M266.1,254.1c0,1.6-3.3,2.8-7.3,2.8s-7.3-1.3-7.3-2.8c0-1.6,3.3-2.8,7.3-2.8S266.1,252.5,266.1,254.1z"/>
				</g>
				<g>
					<path class="st10" d="M348.9,254.1c0,1.6-3.3,2.8-7.3,2.8s-7.3-1.3-7.3-2.8c0-1.6,3.3-2.8,7.3-2.8S348.9,252.5,348.9,254.1z"/>
				</g>
			</g>
			<g>
				<path class="st58" d="M460.2,482H139.8c0,0,2.6-8.8,6.8-20.9c0.6-1.7,1.2-3.5,1.8-5.3c2.2-6.1,4.7-12.8,7.5-19.3
					c0.7-1.8,1.5-3.5,2.2-5.3c3-7,6.4-13.7,9.7-19.3c0.9-1.5,1.8-2.9,2.6-4.2c0.2-0.4,0.5-0.7,0.7-1c1.3-1.8,2.5-3.4,3.7-4.9
					c3.8-4.6,11.8-8.6,21.3-12c15.7-5.7,35.4-9.7,46.9-11.7c5.8-1,9.5-1.6,9.5-1.6s26.2,15.9,47.4,15.5c29-0.5,47.4-15.5,47.4-15.5
					s2.6,0.4,6.8,1.1c16.9,2.9,60.2,11.5,70.9,24.2c1.2,1.4,2.4,3,3.6,4.9c1.1,1.6,2.2,3.4,3.2,5.3c3.3,5.7,6.5,12.3,9.6,19.3
					c0.7,1.7,1.5,3.5,2.2,5.3c2.8,6.6,5.3,13.2,7.6,19.3c0.6,1.8,1.3,3.5,1.9,5.3C457.5,473.2,460.2,482,460.2,482z"/>
			</g>
			<g>
				<path class="st4" d="M288.8,286.7c2.8,1,12.9,3.1,19.6,0.6c6.7-2.5,1.2,1.7-1.9,2.6c-3.1,0.9-7.4,1.9-12.1,0.4
					C289.6,288.9,287.5,286.3,288.8,286.7z"/>
			</g>
			<g>
				<path class="st57" d="M225.3,212.4c0,0-3,8,3.4,12.3c6.4,4.3,16.5-1.3,18.1-10.3c1.6-8.9,1.2-21,8.9-19.5
					c7.7,1.6,22.2,4.5,38.7,0c16.5-4.5,31.9-9.8,31.9-9.8s36.9,45.7,45,39.5c8.1-6.2,3.7-34.2-15.8-44
					c-19.5-9.7-86.3-25.1-86.3-25.1L225.3,212.4z"/>
			</g>
			<g>
				<path class="st4" d="M260.5,260.9c-8.8,0-17.9-1.1-21-3.1c-3.7-2.4-6.5-15.7-5.3-24.9c0.7-5.4,2.8-8.8,5.9-9.9l0,0
					c5.3-1.7,37.8-1.8,45.8,0.4c2,0.6,3.5,1.8,4.5,3.7c3.3,6.6-1.2,18.6-1.2,18.8l-0.1,0.4c-1.2,3.3-3.5,9.4-11.5,12.5
					C274,260.3,267.4,260.9,260.5,260.9z M240.8,225c-3,1-4.1,5-4.5,8.2c-1.2,9.4,1.9,21.3,4.4,23c4.5,2.9,28.3,4,36.1,0.8
					c7.2-2.8,9.2-8.2,10.4-11.4l0.1-0.4c1.2-3.1,3.8-12.3,1.3-17.1c-0.7-1.4-1.8-2.3-3.2-2.7C277.3,223.2,245.3,223.5,240.8,225
					L240.8,225z"/>
			</g>
			<g>
				<path class="st4" d="M339.3,260.9c-6.8,0-13.5-0.7-17-2c-8-3.1-10.3-9.3-11.5-12.5l-0.2-0.4c0-0.1-4.6-12.2-1.2-18.8
					c1-1.9,2.5-3.2,4.5-3.7c8.1-2.2,40.5-2.2,45.8-0.4c3.1,1,5.2,4.4,5.9,9.9c1.2,9.2-1.6,22.5-5.3,24.9
					C357.2,259.9,348.1,260.9,339.3,260.9z M338.6,223.8c-9.8,0-20.2,0.5-24.3,1.6c-1.5,0.4-2.5,1.3-3.2,2.7
					c-2.4,4.8,0.1,14,1.3,17.1l0.2,0.4c1.2,3.2,3.2,8.5,10.4,11.4c7.9,3.1,31.7,2.1,36.1-0.8c2.5-1.6,5.6-13.6,4.4-23
					c-0.4-3.2-1.6-7.2-4.5-8.2l0,0C356.8,224.3,348,223.8,338.6,223.8z"/>
			</g>
			<g>
				<path class="st4" d="M308.7,232.1c-8.1-4.7-17.5-0.8-17.6-0.8l-0.8-1.9c0.4-0.2,10.4-4.3,19.4,0.9L308.7,232.1z"/>
			</g>
			<g>
				
					<rect x="362.1" y="223.6" transform="matrix(0.9077 -0.4197 0.4197 0.9077 -60.2689 175.2108)" class="st4" width="11.8" height="2"/>
			</g>
			<g>
				
					<rect x="232.1" y="218.7" transform="matrix(0.42 -0.9075 0.9075 0.42 -68.5858 341.8417)" class="st4" width="2" height="11.8"/>
			</g>
			<g>
				<g>
					<path class="st59" d="M272.1,401.3l13.1,0.5c0,0-5.4,31.4-4.5,37.5c0.8,6.1,7.7,42.8,7.7,42.8H139.8c0,0,17.5-53.8,26.1-71.6
						c8.6-17.8,40-26.8,51.1-30c11-3.3,36.8-6.9,36.8-6.9L272.1,401.3z"/>
				</g>
				<g>
					<path class="st60" d="M265.9,363.8c0,0-2.6,15.6,2.5,20.7c5.1,5.1,16.8,17.2,16.8,17.2s-16,15.8-22.8,13.3
						c-6.8-2.4-17.9-31.2-17.9-36.2S265.9,363.8,265.9,363.8z"/>
				</g>
			</g>
			<g>
				<g>
					<path class="st59" d="M327.9,401.3l-13.1,0.5c0,0,5.4,31.4,4.5,37.5c-0.8,6.1-7.7,42.8-7.7,42.8h148.6c0,0-17.5-53.8-26.1-71.6
						c-8.6-17.8-40-26.8-51.1-30c-11-3.3-36.8-6.9-36.8-6.9L327.9,401.3z"/>
				</g>
				<g>
					<path class="st60" d="M334.1,363.8c0,0,2.6,15.6-2.5,20.7c-5.1,5.1-16.8,17.2-16.8,17.2s16,15.8,22.8,13.3
						c6.8-2.4,17.9-31.2,17.9-36.2S334.1,363.8,334.1,363.8z"/>
				</g>
			</g>
		</g>
	</g>
</g>
<g id="Boy_08">
</g>
<g id="Boy_09">
</g>
<g id="Boy_10">
</g>
</svg>
