<?xml version="1.0" encoding="utf-8"?>
<!-- Generator: Adobe Illustrator 22.0.0, SVG Export Plug-In . SVG Version: 6.00 Build 0)  -->
<svg version="1.1" xmlns="http://www.w3.org/2000/svg" xmlns:xlink="http://www.w3.org/1999/xlink" x="0px" y="0px"
	 viewBox="0 0 600 600" style="enable-background:new 0 0 600 600;" xml:space="preserve">
<style type="text/css">
	.st0{fill:#35312F;}
	.st1{fill:#F4A671;}
	.st2{opacity:0.25;}
	.st3{fill:#C66940;}
	.st4{fill:#3F3832;}
	.st5{opacity:0.5;fill:#C66940;}
	.st6{fill:#FF3B3B;}
	.st7{fill:#D6D351;}
	.st8{fill:none;stroke:#EFBD41;stroke-width:0.5;stroke-miterlimit:10;}
	.st9{fill:#EFBD41;}
	.st10{opacity:0.25;fill:#FF3B3B;}
	.st11{fill:#6678CE;}
	.st12{fill:#FFFFFF;}
	.st13{fill:#EFCB59;}
	.st14{fill:#E5A83C;}
	.st15{fill:#FCDEB4;}
	.st16{fill:#E29823;}
	.st17{fill:#A55E2F;}
	.st18{fill:#ABD4ED;}
	.st19{fill:#54719B;}
	.st20{fill:#DD5150;}
	.st21{fill:#FCA518;}
	.st22{fill:#7C3C28;}
	.st23{fill:#E8EAF3;}
	.st24{fill:#EF8484;}
	.st25{fill:#4D628C;}
	.st26{fill:#6981A8;}
	.st27{fill:#C4BE47;}
	.st28{fill:#60422B;}
	.st29{fill:#D36737;}
	.st30{fill:#C6BF44;}
	.st31{fill:#996D3C;}
	.st32{fill:#F9A61A;}
	.st33{fill:#665431;}
	.st34{fill:#CC6140;}
	.st35{fill:#49564A;}
	.st36{fill:#E2774D;}
	.st37{opacity:0.25;fill:#C66940;}
	.st38{fill:#E5BB67;}
	.st39{fill:#756052;}
	.st40{fill:#E89874;}
	.st41{fill:#965640;}
	.st42{fill:#995F3F;}
	.st43{fill:#E5B155;}
	.st44{fill:#C94845;}
	.st45{fill:#913A3A;}
	.st46{fill:#5B483B;}
	.st47{fill:#373F47;}
	.st48{fill:#EAB3A4;}
	.st49{fill:#3A3733;}
	.st50{fill:#527064;}
	.st51{fill:#C7BCE8;}
	.st52{fill:#B78C69;}
	.st53{fill:#D3A479;}
	.st54{fill:#4F4D49;}
	.st55{fill:#A89F91;}
	.st56{fill:#F7AAA1;}
	.st57{fill:#726358;}
	.st58{fill:#AFADAA;}
	.st59{fill:#585D7F;}
	.st60{fill:#686E8E;}
	.st61{fill:#AF754A;}
	.st62{fill:#A55E73;}
	.st63{fill:#CC503B;}
	.st64{fill:#EFE4CA;}
	.st65{fill:#E0CEA9;}
	.st66{fill:#475B5E;}
	.st67{fill:#5F7B82;}
	.st68{fill:#73969B;}
</style>
<g id="Girl_01">
</g>
<g id="Girl_02">
</g>
<g id="Girl_03">
</g>
<g id="Girl_04">
</g>
<g id="Girl_05">
</g>
<g id="Boy_01">
</g>
<g id="Boy_02">
</g>
<g id="Boy_03">
</g>
<g id="Boy_04">
</g>
<g id="Boy_05">
</g>
<g id="Girl_06">
</g>
<g id="Girl_07">
</g>
<g id="Girl_08">
</g>
<g id="Girl_09">
</g>
<g id="Girl_10">
</g>
<g id="Boy_06">
</g>
<g id="Boy_07">
</g>
<g id="Boy_08">
	<g>
		<g>
			<path class="st61" d="M356,152.6c-2.3-7.3-11.7-24.6-27.5-29.4c-15.8-4.7-37.8-3.5-48.2,0c-10.4,3.5-17.6,12.9-24.3,13.1
				c-6.7,0.3-19-10.1-20.6-5.4c-1.6,4.7-2.5,16.4,7,18.6c0,0-15.5-2.6-24.6,7.8c-9.1,10.4-1.2,39.7-3.4,40.6
				c-2.2,0.9-9.1,1.7-9.1,7.3s13,31.5,23.3,22.5c10.4-9.1,47.1-46.6,60.3-49.7c13.1-3,56.7,4.3,64.9,10.4c8.2,6,15.1,43.6,19,47.5
				c3.9,3.9,8.6-5.2,9.1-8.6c0.4-3.5,4.3-40.6,0-50.9c-4.3-10.4-18.6-7.4-18.6-11.9s6.5-7.9,4.3-11.4S356,152.6,356,152.6z"/>
			<path class="st1" d="M393.1,401.1H207.6c0,0,54.8-30.2,58.6-39.8c1.6-4,2.7-13.6,3.4-23.3c0.1-1,0.1-2,0.2-3
				c0.8-12.2,1-23.8,1-23.8H330c0,0,0.2,11.6,1,23.8c0.1,1,0.1,2,0.2,3c0.7,9.7,1.8,19.2,3.4,23.3
				C338.3,370.9,393.1,401.1,393.1,401.1z"/>
			<path class="st37" d="M331.2,338c-11.1,5.1-22,7.9-30.8,7.9c-8.8,0-19.7-2.8-30.8-7.9c0.1-1,0.1-2,0.2-3c0.8-12.2,1-23.8,1-23.8
				H330c0,0,0.2,11.6,1,23.8C331,335.9,331.1,337,331.2,338z"/>
			<path class="st1" d="M367.8,205.5c-17.5-33-67.5-33-67.5-33s-49.9,0-67.5,33c-8.8,16.6-6.2,84.9,11.3,101.7
				c17.5,16.8,40.5,26.9,56.1,26.9c15.6,0,38.6-10.1,56.1-26.9C374,290.3,376.6,222.1,367.8,205.5z"/>
			<g>
				<path class="st4" d="M260.7,231.4c0,4,2.7,7.2,6,7.2s6-3.2,6-7.2c0-4-2.7-7.2-6-7.2S260.7,227.5,260.7,231.4z"/>
				<path class="st4" d="M328.5,231.4c0,4,2.7,7.2,6,7.2s6-3.2,6-7.2c0-4-2.7-7.2-6-7.2S328.5,227.5,328.5,231.4z"/>
			</g>
			<g>
				<path class="st1" d="M232.3,224.9c-2.8-3.3-7.8-7-16.2-2.6c-8.4,4.4-6.9,27.9,0,33.9c9.3,8.1,16,5.8,18.3,0
					C236.6,250.5,234.5,227.5,232.3,224.9z"/>
				<path class="st1" d="M368.4,224.9c2.8-3.3,7.8-7,16.2-2.6c8.4,4.4,6.9,27.9,0,33.9c-9.3,8.1-16,5.8-18.3,0
					C364.1,250.5,366.2,227.5,368.4,224.9z"/>
			</g>
			<path class="st5" d="M302.6,233.4c3,0-9.2,17.3-6.8,31c0.7,3.9,8.3,2.8,10.6,3c2.3,0.2-0.8,1.7-3,1.9c-2.3,0.2-8.5-0.1-9.4-2.6
				C291.3,259.6,300.3,233.4,302.6,233.4z"/>
			<path class="st4" d="M257.7,217.4c3.2-1.3,11.6-2.5,14.7-2.1c3.1,0.4,4.5,0,3.9-2.1c-0.6-2.1-3.4-1.6-7-1.5
				c-3.6,0.2-8.6,2.2-11.6,3.5C254.7,216.7,256.2,218.1,257.7,217.4z"/>
			<path class="st4" d="M343,217.4c-3.2-1.3-11.6-2.5-14.7-2.1c-3.1,0.4-4.5,0-3.9-2.1c0.6-2.1,3.4-1.6,7-1.5
				c3.6,0.2,8.6,2.2,11.6,3.5C346,216.7,344.5,218.1,343,217.4z"/>
			<g>
				<ellipse class="st10" cx="259.1" cy="251.4" rx="7.3" ry="2.8"/>
				<ellipse class="st10" cx="342.1" cy="251.4" rx="7.3" ry="2.8"/>
			</g>
			<path class="st4" d="M289.1,284c2.8,1,12.9,3.1,19.6,0.6c6.7-2.6,1.2,1.7-1.9,2.6c-3.1,0.9-7.4,1.9-12.1,0.4
				C289.9,286.2,287.8,283.6,289.1,284z"/>
			<path class="st61" d="M222.8,216.2c0,0,4.7,10.6,24.2,5.7c19.5-5,30.4-35.6,41.8-35.1c11.4,0.6,34.8,9,42.4,5
				c7.6-3.9,10.9-5,10.9-5s17,39.6,30.7,34.6c13.7-5-7.4-35.2-16.8-40.8c-9.3-5.6-31.1-19-62.5-15.7
				C262.1,168.3,222.7,207.5,222.8,216.2z"/>
			<path class="st62" d="M460.2,479.9c0,0-23.1-69.7-39.1-83.9c-16-14.2-77-24.7-77-24.7s-5.2-14.3-11.5-15
				c-3.1-0.3-17.9,5.6-32.5,5.6c-14.8,0-29.3-5.9-32.5-5.6c-6.3,0.7-11.5,15-11.5,15s-61,10.6-77,24.7c-16,14.2-39.1,83.9-39.1,83.9
				L460.2,479.9z"/>
		</g>
	</g>
</g>
<g id="Boy_09">
</g>
<g id="Boy_10">
</g>
</svg>
