<?xml version="1.0" encoding="utf-8"?>
<!-- Generator: Adobe Illustrator 22.0.0, SVG Export Plug-In . SVG Version: 6.00 Build 0)  -->
<svg version="1.1" xmlns="http://www.w3.org/2000/svg" xmlns:xlink="http://www.w3.org/1999/xlink" x="0px" y="0px"
	 viewBox="0 0 600 600" style="enable-background:new 0 0 600 600;" xml:space="preserve">
<style type="text/css">
	.st0{fill:#35312F;}
	.st1{fill:#F4A671;}
	.st2{opacity:0.25;}
	.st3{fill:#C66940;}
	.st4{fill:#3F3832;}
	.st5{opacity:0.5;fill:#C66940;}
	.st6{fill:#FF3B3B;}
	.st7{fill:#D6D351;}
	.st8{fill:none;stroke:#EFBD41;stroke-width:0.5;stroke-miterlimit:10;}
	.st9{fill:#EFBD41;}
	.st10{opacity:0.25;fill:#FF3B3B;}
	.st11{fill:#6678CE;}
	.st12{fill:#FFFFFF;}
	.st13{fill:#EFCB59;}
	.st14{fill:#E5A83C;}
	.st15{fill:#FCDEB4;}
	.st16{fill:#E29823;}
	.st17{fill:#A55E2F;}
	.st18{fill:#ABD4ED;}
	.st19{fill:#54719B;}
	.st20{fill:#DD5150;}
	.st21{fill:#FCA518;}
	.st22{fill:#7C3C28;}
	.st23{fill:#E8EAF3;}
	.st24{fill:#EF8484;}
	.st25{fill:#4D628C;}
	.st26{fill:#6981A8;}
	.st27{fill:#C4BE47;}
	.st28{fill:#60422B;}
	.st29{fill:#D36737;}
	.st30{fill:#C6BF44;}
	.st31{fill:#996D3C;}
	.st32{fill:#F9A61A;}
	.st33{fill:#665431;}
	.st34{fill:#CC6140;}
	.st35{fill:#49564A;}
	.st36{fill:#E2774D;}
	.st37{opacity:0.25;fill:#C66940;}
	.st38{fill:#E5BB67;}
	.st39{fill:#756052;}
	.st40{fill:#E89874;}
	.st41{fill:#965640;}
	.st42{fill:#995F3F;}
	.st43{fill:#E5B155;}
	.st44{fill:#C94845;}
	.st45{fill:#913A3A;}
	.st46{fill:#5B483B;}
	.st47{fill:#373F47;}
	.st48{fill:#EAB3A4;}
	.st49{fill:#3A3733;}
	.st50{fill:#527064;}
	.st51{fill:#C7BCE8;}
	.st52{fill:#B78C69;}
	.st53{fill:#D3A479;}
	.st54{fill:#4F4D49;}
	.st55{fill:#A89F91;}
	.st56{fill:#F7AAA1;}
	.st57{fill:#726358;}
	.st58{fill:#AFADAA;}
	.st59{fill:#585D7F;}
	.st60{fill:#686E8E;}
	.st61{fill:#AF754A;}
	.st62{fill:#A55E73;}
	.st63{fill:#CC503B;}
	.st64{fill:#EFE4CA;}
	.st65{fill:#E0CEA9;}
	.st66{fill:#475B5E;}
	.st67{fill:#5F7B82;}
	.st68{fill:#73969B;}
</style>
<g id="Girl_01">
</g>
<g id="Girl_02">
</g>
<g id="Girl_03">
</g>
<g id="Girl_04">
</g>
<g id="Girl_05">
</g>
<g id="Boy_01">
</g>
<g id="Boy_02">
</g>
<g id="Boy_03">
</g>
<g id="Boy_04">
</g>
<g id="Boy_05">
</g>
<g id="Girl_06">
</g>
<g id="Girl_07">
</g>
<g id="Girl_08">
</g>
<g id="Girl_09">
</g>
<g id="Girl_10">
</g>
<g id="Boy_06">
</g>
<g id="Boy_07">
</g>
<g id="Boy_08">
</g>
<g id="Boy_09">
</g>
<g id="Boy_10">
	<g>
		<g>
			<path class="st66" d="M280,356.5c-12,3.9-27.9,14-30.1,19.4c-2.2,5.4-7.5,0.5-14.5,2.7c-7,2.2-22.9,15.7-17.6,20
				c5.3,4.3,91.3,19.9,96.7,15.6s62.7-11.2,67.7-15.7c10.4-9.4,3-20.3-13.5-20.3c-8.5,0-6.7-8.5-16.8-14.6
				C339.8,356.2,300.9,349.7,280,356.5z"/>
			<path class="st4" d="M244.4,273.5c-12.7-2.3-22.4-23.4-33.6-20.7c-15.1,3.6-15.1-17.5-15.1-17.5s-12.6-2.7-14.2-12.3
				C179.7,211.3,192,208,192,208s-12.1,2-12.2-17.6c-0.1-20.5,15.6-19.8,15.6-19.8s-11.3-11.7-6.2-20.5c6.6-11.3,16-3.5,16-3.5
				s-6.1-19.2,10-26.9c16.2-7.7,20.4,3.4,20.4,3.4s3.3-12.1,10.2-14.2c18.7-5.8,24.2,6.5,24.2,6.5s9.3-11.8,23.1-12.3
				c13.8-0.6,20.8,13.4,20.8,13.4s16.1-9.9,26.1-4.7c10,5.2,9.2,15.1,9.2,15.1s16.4-13.1,27.4-4.4c11,8.7,5.6,19.4,5.6,19.4
				s5.2,0.4,10.4,5.9c3.2,3.4,2.9,11.3,2.9,11.3s9.3,0.9,10.6,10.7c1.1,8.7-5,9-5,9s16.5,3.4,16.5,18.6c0,11-11.1,16.3-11.1,16.3
				s8,14.4,2.9,21.6c-11.4,15.8-21.6,8.8-21.6,8.8s-7.3,7.3-15.1,14.5S244.4,273.5,244.4,273.5z"/>
			<path class="st1" d="M392.5,418.5h-185c0,0,54.6-30.1,58.4-39.8c1.6-4,2.7-13.5,3.3-23.2c0.1-1,0.1-2,0.2-3
				c0.8-12.2,1-23.7,1-23.7h59.1c0,0,0.2,11.5,1,23.7c0.1,1,0.1,2,0.2,3c0.7,9.7,1.8,19.2,3.3,23.2
				C337.9,388.4,392.5,418.5,392.5,418.5z"/>
			<path class="st37" d="M330.7,355.5c-11.1,5.1-22,7.9-30.7,7.9c-8.8,0-19.7-2.8-30.7-7.9c0.1-1,0.1-2,0.2-3
				c0.8-12.2,1-23.7,1-23.7h59.1c0,0,0.2,11.5,1,23.7C330.6,353.5,330.7,354.5,330.7,355.5z"/>
			<path class="st1" d="M367.3,223.3c-17.5-32.9-67.3-32.9-67.3-32.9s-49.8,0-67.3,32.9c-8.8,16.6-6.2,84.7,11.3,101.5
				c17.5,16.8,40.4,26.9,56,26.9s38.5-10.1,56-26.9S376.1,239.8,367.3,223.3z"/>
			<g>
				<path class="st4" d="M260.5,249.2c0,4,2.7,7.2,6,7.2c3.3,0,6-3.2,6-7.2c0-4-2.7-7.2-6-7.2C263.1,242,260.5,245.2,260.5,249.2z"
					/>
				<path class="st4" d="M328.1,249.2c0,4,2.7,7.2,6,7.2c3.3,0,6-3.2,6-7.2c0-4-2.7-7.2-6-7.2C330.7,242,328.1,245.2,328.1,249.2z"
					/>
			</g>
			<g>
				<path class="st1" d="M232.1,242.7c-2.8-3.3-7.8-6.9-16.2-2.6c-8.4,4.3-6.9,27.8,0,33.9c9.3,8.1,15.9,5.8,18.2,0
					C236.4,268.2,234.3,245.3,232.1,242.7z"/>
				<path class="st1" d="M367.9,242.7c2.8-3.3,7.8-6.9,16.2-2.6c8.4,4.3,6.9,27.8,0,33.9c-9.3,8.1-15.9,5.8-18.2,0
					C363.6,268.2,365.7,245.3,367.9,242.7z"/>
			</g>
			<path class="st5" d="M302.3,251.1c3,0-9.2,17.2-6.8,30.9c0.7,3.9,8.3,2.8,10.5,3c2.3,0.2-0.8,1.7-3,1.9c-2.3,0.2-8.5-0.1-9.4-2.6
				C291,277.3,300,251.1,302.3,251.1z"/>
			<path class="st4" d="M257.5,235.2c3.2-1.3,11.6-2.5,14.7-2.1c3.1,0.4,4.4,0,3.9-2.1c-0.6-2.1-3.4-1.6-7-1.4
				c-3.6,0.2-8.6,2.2-11.6,3.5C254.4,234.5,255.9,235.9,257.5,235.2z"/>
			<path class="st4" d="M342.5,235.2c-3.2-1.3-11.6-2.5-14.7-2.1c-3.1,0.4-4.4,0-3.9-2.1c0.6-2.1,3.4-1.6,7-1.4
				c3.6,0.2,8.6,2.2,11.6,3.5C345.5,234.5,344.1,235.9,342.5,235.2z"/>
			<g>
				<path class="st10" d="M266.1,269.1c0,1.6-3.3,2.8-7.3,2.8c-4,0-7.3-1.3-7.3-2.8c0-1.6,3.3-2.8,7.3-2.8
					C262.9,266.3,266.1,267.5,266.1,269.1z"/>
				<path class="st10" d="M348.9,269.1c0,1.6-3.3,2.8-7.3,2.8s-7.3-1.3-7.3-2.8c0-1.6,3.3-2.8,7.3-2.8S348.9,267.5,348.9,269.1z"/>
			</g>
			<path class="st67" d="M460.2,497H139.8c0,0,15-50.6,30.8-74.3c1.5-2.2,2.9-4.2,4.3-5.9c3.8-4.6,11.8-8.6,21.3-12
				c15.7-5.7,35.4-9.7,46.9-11.7c5.8-1,9.5-1.6,9.5-1.6s26.2,15.9,47.3,15.5c29-0.5,47.3-15.5,47.3-15.5s2.6,0.4,6.8,1.1
				c16.9,2.9,60.2,11.5,70.9,24.2C441.6,436.4,460.2,497,460.2,497z"/>
			<path class="st4" d="M222.6,229.4c0,0,2.6,7.3,6,10.3c3.4,3,12.3-7.2,9.2-16.1c0,0,14.2,1.3,13.7-9.1c0,0,13.8-3.4,11.8-13.1
				c0,0,6.4,6.9,12.9-2.3c0,0,3.7,4.3,12.2,5.7c8.5,1.4,14.5-8.9,14.5-8.9s7.4,6.3,14.3,3.4c6.9-2.9,6.9-2.9,6.9-2.9s-0.6,6.3,8.6,8
				c9.1,1.7,11.6,0.6,11.6,0.6s-0.8,5.7,4.7,7.1c5.5,1.4,8,0.6,8,0.6s-3.4,6.3,0,9.4c3.4,3.1,7.9,3.7,7.9,3.7s-6.3,13.4,6.4,13.8
				c0,0,6.5-10.9-1.2-22.9c-7.7-12-34.1-28-46.3-32.3c-12.3-4.3-49.7,0-66.5,8.6C240.4,201.6,222.6,229.4,222.6,229.4z"/>
			<path class="st4" d="M297.4,311.9c6.9-4.4,15.2-8.9,18.1-11.2c2.9-2.3,0.3,5.4-4.9,10.3C305.4,316,295.1,313.4,297.4,311.9z"/>
			<path class="st68" d="M217.8,398.5c8.4,7,66.2,33.8,89.1,33.2c22.9-0.6,76.5-27,79.6-39.1c2.7-10.4-8.5-15.4-22.2-10.9
				c-13.7,4.6-30.9,11.2-44.2,19.7c-13.3,8.5-30.3,4.9-43.9-0.8c-13.6-5.7-32.5-17.5-41.6-20.2C225.5,377.7,212.6,394.2,217.8,398.5
				z"/>
		</g>
		<path class="st67" d="M282.8,414.8c0,2.8-2.3,5.1-5.1,5.1s-5.1-2.3-5.1-5.1s2.3-5.1,5.1-5.1S282.8,412,282.8,414.8z"/>
		<path class="st67" d="M323,414.8c0,2.8-2.3,5.1-5.1,5.1c-2.8,0-5.1-2.3-5.1-5.1s2.3-5.1,5.1-5.1C320.7,409.8,323,412,323,414.8z"
			/>
		<g>
			<path class="st66" d="M316.8,415.2c-0.5,11.2-1.7,22.6-1,33.8c0.6,10.3,4.1,23.2-1.9,32.7c-1.3,2,1.9,3.9,3.2,1.9
				c4.8-7.6,4.2-17.5,3.6-26.2c-0.9-14.3-0.8-27.8-0.2-42.2C320.7,412.8,317,412.8,316.8,415.2L316.8,415.2z"/>
		</g>
		<g>
			<path class="st66" d="M275.6,414.2c-0.7,10.9-3.9,21.8-3.9,32.7c0,3.5,0.8,6.4,1.8,9.7c2.5,8.5,2.2,16,2,24.9
				c-0.1,2.4,3.7,2.4,3.7,0c0.2-6.3,0.9-12.7-0.1-18.9c-0.9-5.4-3.6-10.2-3.7-15.7c-0.2-10.8,3.2-21.9,3.9-32.7
				C279.5,411.8,275.7,411.8,275.6,414.2L275.6,414.2z"/>
		</g>
	</g>
</g>
</svg>
