<?xml version="1.0" encoding="utf-8"?>
<!-- Generator: Adobe Illustrator 22.0.0, SVG Export Plug-In . SVG Version: 6.00 Build 0)  -->
<svg version="1.1" xmlns="http://www.w3.org/2000/svg" xmlns:xlink="http://www.w3.org/1999/xlink" x="0px" y="0px"
	 viewBox="0 0 600 600" style="enable-background:new 0 0 600 600;" xml:space="preserve">
<style type="text/css">
	.st0{fill:#35312F;}
	.st1{fill:#F4A671;}
	.st2{opacity:0.25;}
	.st3{fill:#C66940;}
	.st4{fill:#3F3832;}
	.st5{opacity:0.5;fill:#C66940;}
	.st6{fill:#FF3B3B;}
	.st7{fill:#D6D351;}
	.st8{fill:none;stroke:#EFBD41;stroke-width:0.5;stroke-miterlimit:10;}
	.st9{fill:#EFBD41;}
	.st10{opacity:0.25;fill:#FF3B3B;}
	.st11{fill:#6678CE;}
	.st12{fill:#FFFFFF;}
	.st13{fill:#EFCB59;}
	.st14{fill:#E5A83C;}
	.st15{fill:#FCDEB4;}
	.st16{fill:#E29823;}
	.st17{fill:#A55E2F;}
	.st18{fill:#ABD4ED;}
	.st19{fill:#54719B;}
	.st20{fill:#DD5150;}
	.st21{fill:#FCA518;}
	.st22{fill:#7C3C28;}
	.st23{fill:#E8EAF3;}
	.st24{fill:#EF8484;}
	.st25{fill:#4D628C;}
	.st26{fill:#6981A8;}
	.st27{fill:#C4BE47;}
	.st28{fill:#60422B;}
	.st29{fill:#D36737;}
	.st30{fill:#C6BF44;}
	.st31{fill:#996D3C;}
	.st32{fill:#F9A61A;}
	.st33{fill:#665431;}
	.st34{fill:#CC6140;}
	.st35{fill:#49564A;}
	.st36{fill:#E2774D;}
	.st37{opacity:0.25;fill:#C66940;}
	.st38{fill:#E5BB67;}
	.st39{fill:#756052;}
	.st40{fill:#E89874;}
	.st41{fill:#965640;}
	.st42{fill:#995F3F;}
	.st43{fill:#E5B155;}
	.st44{fill:#C94845;}
	.st45{fill:#913A3A;}
	.st46{fill:#5B483B;}
	.st47{fill:#373F47;}
	.st48{fill:#EAB3A4;}
	.st49{fill:#3A3733;}
	.st50{fill:#527064;}
	.st51{fill:#C7BCE8;}
	.st52{fill:#B78C69;}
	.st53{fill:#D3A479;}
	.st54{fill:#4F4D49;}
	.st55{fill:#A89F91;}
	.st56{fill:#F7AAA1;}
	.st57{fill:#726358;}
	.st58{fill:#AFADAA;}
	.st59{fill:#585D7F;}
	.st60{fill:#686E8E;}
	.st61{fill:#AF754A;}
	.st62{fill:#A55E73;}
	.st63{fill:#CC503B;}
	.st64{fill:#EFE4CA;}
	.st65{fill:#E0CEA9;}
	.st66{fill:#475B5E;}
	.st67{fill:#5F7B82;}
	.st68{fill:#73969B;}
</style>
<g id="Girl_01">
</g>
<g id="Girl_02">
</g>
<g id="Girl_03">
	<g>
		<g>
			<path class="st4" d="M270.5,307.2c-13.1,7.6-20.1,20.4-19,32.9c1.2,12.4,9.9,29.3,23.4,30.5c13.5,1.2,55.8-2.4,61.3-14
				c5.5-11.6-0.2-33.7-13.2-39.3C310,311.6,270.5,307.2,270.5,307.2z"/>
		</g>
		<g>
			<path class="st4" d="M381.2,163.7c-13.3-25.3-39.1-39.4-58.2-38.3c-19.1,1-24,7.3-24,7.3s-5-6.3-24-7.3
				c-19.1-1-44.9,13-58.2,38.3c-13.3,25.3-2.3,77.4,3.7,87.7c6,10.3,19.3,35.3,25.6,38.2c6.3,2.9,53-3.7,53-3.7s46.8,6.5,53,3.7
				c6.3-2.9,19.6-27.9,25.6-38.2C383.5,241.2,394.5,189,381.2,163.7z"/>
		</g>
		<g>
			<path class="st1" d="M372.7,376.2c-18.5,16-72.7,14.4-72.7,14.4s-54.2,1.6-72.7-14.4c0,0,40.3-5.9,48.3-19.5
				c2.6-4.5,4.2-10.5,5-16.5c1.8-12.4,0.9-25.1,0.9-25.1h37c0,0-1,12.6,0.9,25.1c0.9,6.1,2.4,12.1,5,16.5
				C332.4,370.3,372.7,376.2,372.7,376.2z"/>
		</g>
		<g class="st2">
			<path class="st3" d="M319.4,340.3c-7,2.9-13.7,4.4-19.4,4.4s-12.3-1.5-19.4-4.4c1.8-12.4,0.9-25.1,0.9-25.1h37
				C318.5,315.2,317.5,327.8,319.4,340.3z"/>
		</g>
		<g>
			<path class="st1" d="M361.8,203.3c-16.4-33-62.9-33-62.9-33s-46.5,0-62.9,33c-8.2,16.6-5.8,85,10.6,101.8
				c16.3,16.9,37.7,27,52.3,27c14.5,0,36-10.1,52.3-27C367.6,288.3,370,220,361.8,203.3z"/>
		</g>
		<g>
			<g>
				<g>
					<g>
						<g>
							<path class="st4" d="M276.2,244.4c0,3.8-2.6,6.9-5.7,6.9c-3.2,0-5.7-3.1-5.7-6.9c0-3.8,2.6-6.9,5.7-6.9
								C273.6,237.5,276.2,240.6,276.2,244.4z"/>
						</g>
						<g>
							<path class="st4" d="M262.5,240c0.8,0.6,5.4-2.8,8.4-2c2.3,0.6,4.1,2.1,4,2c-0.1-0.1-0.7-2.1-3.3-3c-2.6-0.9-4.8-0.2-6.1,0.3
								C264.1,237.8,261.7,239.4,262.5,240z"/>
						</g>
						<g>
							<path class="st4" d="M261.8,236.4c0.6,1.3,1.3,2.7,2,2.7c0.7,0,0.7-0.3,0.4-0.5c-0.2-0.1-1.9-2.2-2.2-2.9
								C261.7,235,261.5,235.8,261.8,236.4z"/>
						</g>
						<g>
							<path class="st4" d="M263.8,235.8c0.6,1.3,1.3,2.7,2,2.7c0.7,0,0.7-0.3,0.4-0.5c-0.2-0.1-1.9-2.2-2.2-2.9
								C263.8,234.3,263.6,235.2,263.8,235.8z"/>
						</g>
					</g>
					<g>
						<path class="st4" d="M258.2,227.1c1.8-0.3,11.4-3.4,14.3-3.7c4.1-0.4,6.8,2.4,7.6,2c0.8-0.4,0.8-1.3,0.6-2.1
							c-0.2-0.8-5.8-2.7-7.2-2.7c-4.5,0-12.7,3.7-15.7,4.9C255,226.6,256.5,227.4,258.2,227.1z"/>
					</g>
				</g>
			</g>
			<g>
				<g>
					<g>
						<g>
							<path class="st4" d="M322.9,244.4c0,3.8,2.6,6.9,5.7,6.9s5.7-3.1,5.7-6.9c0-3.8-2.6-6.9-5.7-6.9S322.9,240.6,322.9,244.4z"/>
						</g>
						<g>
							<path class="st4" d="M336.6,240c-0.8,0.6-5.4-2.8-8.4-2c-2.3,0.6-4.1,2.1-4,2c0.1-0.1,0.7-2.1,3.3-3c2.6-0.9,4.8-0.2,6.1,0.3
								C335,237.8,337.5,239.4,336.6,240z"/>
						</g>
						<g>
							<path class="st4" d="M337.4,236.4c-0.6,1.3-1.3,2.7-2,2.7c-0.7,0-0.7-0.3-0.4-0.5c0.2-0.1,1.9-2.2,2.2-2.9
								C337.4,235,337.6,235.8,337.4,236.4z"/>
						</g>
						<g>
							<path class="st4" d="M335.3,235.8c-0.6,1.3-1.3,2.7-2,2.7c-0.7,0-0.7-0.3-0.4-0.5c0.2-0.1,1.9-2.2,2.2-2.9
								C335.4,234.3,335.6,235.2,335.3,235.8z"/>
						</g>
					</g>
					<g>
						<path class="st4" d="M340.9,227.1c-1.8-0.3-11.4-3.4-14.3-3.7c-4.1-0.4-6.8,2.4-7.6,2c-0.8-0.4-0.8-1.3-0.6-2.1
							c0.2-0.8,5.8-2.7,7.2-2.7c4.5,0,12.7,3.7,15.7,4.9C344.2,226.6,342.7,227.4,340.9,227.1z"/>
					</g>
				</g>
			</g>
		</g>
		<g>
			<path class="st5" d="M299.9,241.6c3,0-9.2,17.2-6.8,30.9c0.7,3.9,8.3,2.8,10.5,3c2.3,0.2-0.8,1.7-3,1.9c-2.3,0.2-8.5-0.1-9.4-2.6
				C288.6,267.7,297.6,241.6,299.9,241.6z"/>
		</g>
		<g>
			<path class="st4" d="M286.2,294.5c0.4-1,11,5.6,22,0c7.6-3.9,0.9,3.1-5.5,4.6C296.4,300.5,285.7,295.8,286.2,294.5z"/>
		</g>
		<g>
			<g>
				<path class="st10" d="M266.1,263.8c0,1.6-3.3,2.8-7.3,2.8c-4,0-7.3-1.3-7.3-2.8c0-1.6,3.3-2.8,7.3-2.8
					C262.9,261,266.1,262.2,266.1,263.8z"/>
			</g>
			<g>
				<path class="st10" d="M348.9,263.8c0,1.6-3.3,2.8-7.3,2.8c-4,0-7.3-1.3-7.3-2.8c0-1.6,3.3-2.8,7.3-2.8
					C345.7,261,348.9,262.2,348.9,263.8z"/>
			</g>
		</g>
		<g>
			<path class="st1" d="M235.7,240.2c-2.5-4.2-5.1-10.2-13.8-8.2s-9.4,18.7-2,26.2c7.4,7.5,15.5,6.5,17.5,2.7
				C239.3,256.9,235.7,240.2,235.7,240.2z"/>
		</g>
		<g>
			<path class="st13" d="M460.2,474.7H139.8c0,0,18.4-50.6,34.2-74.3c1.5-2.2,2.9-4.2,4.3-5.9c3.8-4.6,11.8-8.6,21.3-12
				c15.7-5.7,35.4-9.7,46.9-11.7c5.8-1,9.5-1.6,9.5-1.6s22.7,15.9,43.9,15.5c29-0.5,43.9-15.5,43.9-15.5s2.6,0.4,6.8,1.1
				c16.9,2.9,60.2,11.5,70.9,24.2C438.1,414.1,460.2,474.7,460.2,474.7z"/>
		</g>
		<g>
			<path class="st1" d="M362.1,240.2c2.5-4.2,5.1-10.2,13.8-8.2s9.4,18.7,2,26.2c-7.4,7.5-15.5,6.5-17.5,2.7
				C358.6,256.9,362.1,240.2,362.1,240.2z"/>
		</g>
		<g>
			<path class="st4" d="M370.6,204.7c-4-18.4-35-43.1-51.2-51.1c-16.2-8.1-20.5,0-20.5,0s-4.3-8.1-20.5,0
				c-16.2,8.1-47.2,32.7-51.2,51.1c-4,18.4,4.2,29.4,4.2,29.4c36,1.9,67.4-58.8,67.4-58.8s31.5,60.7,67.4,58.8
				C366.3,234.1,374.6,223.1,370.6,204.7z"/>
		</g>
		<g>
			<g>
				<path class="st14" d="M229,261.8c0,0-4.8,11-4.2,14c0.6,2.9,4.2,7.8,4.2,7.8s3.6-4.9,4.2-7.8C233.8,272.8,229,261.8,229,261.8z"
					/>
			</g>
			<g>
				
					<ellipse transform="matrix(0.1602 -0.9871 0.9871 0.1602 -88.137 464.6056)" class="st15" cx="229" cy="284.1" rx="2.1" ry="2.1"/>
			</g>
			<g>
				<circle class="st14" cx="229" cy="287.6" r="1.3"/>
			</g>
			<g>
				<circle class="st15" cx="229" cy="261.8" r="3.5"/>
			</g>
		</g>
		<g>
			<g>
				<path class="st14" d="M371,261.8c0,0-4.8,11-4.2,14c0.6,2.9,4.2,7.8,4.2,7.8s3.6-4.9,4.2-7.8C375.9,272.8,371,261.8,371,261.8z"
					/>
			</g>
			<g>
				
					<ellipse transform="matrix(0.1602 -0.9871 0.9871 0.1602 31.1662 604.8298)" class="st15" cx="371" cy="284.1" rx="2.1" ry="2.1"/>
			</g>
			<g>
				<circle class="st14" cx="371" cy="287.6" r="1.3"/>
			</g>
			<g>
				<circle class="st15" cx="371" cy="261.8" r="3.5"/>
			</g>
		</g>
		<g>
			<path class="st16" d="M343.9,369.1c-11.5,17-17.3,38.9-53.1,66.5s-72.4,39-72.4,39h114.5c0,0,34-57.8,34-101.3
				C366.7,367.1,347.8,363.4,343.9,369.1z"/>
		</g>
	</g>
</g>
<g id="Girl_04">
</g>
<g id="Girl_05">
</g>
<g id="Boy_01">
</g>
<g id="Boy_02">
</g>
<g id="Boy_03">
</g>
<g id="Boy_04">
</g>
<g id="Boy_05">
</g>
<g id="Girl_06">
</g>
<g id="Girl_07">
</g>
<g id="Girl_08">
</g>
<g id="Girl_09">
</g>
<g id="Girl_10">
</g>
<g id="Boy_06">
</g>
<g id="Boy_07">
</g>
<g id="Boy_08">
</g>
<g id="Boy_09">
</g>
<g id="Boy_10">
</g>
</svg>
