<?xml version="1.0" encoding="utf-8"?>
<!-- Generator: Adobe Illustrator 22.0.0, SVG Export Plug-In . SVG Version: 6.00 Build 0)  -->
<svg version="1.1" xmlns="http://www.w3.org/2000/svg" xmlns:xlink="http://www.w3.org/1999/xlink" x="0px" y="0px"
	 viewBox="0 0 600 600" style="enable-background:new 0 0 600 600;" xml:space="preserve">
<style type="text/css">
	.st0{fill:#35312F;}
	.st1{fill:#F4A671;}
	.st2{opacity:0.25;}
	.st3{fill:#C66940;}
	.st4{fill:#3F3832;}
	.st5{opacity:0.5;fill:#C66940;}
	.st6{fill:#FF3B3B;}
	.st7{fill:#D6D351;}
	.st8{fill:none;stroke:#EFBD41;stroke-width:0.5;stroke-miterlimit:10;}
	.st9{fill:#EFBD41;}
	.st10{opacity:0.25;fill:#FF3B3B;}
	.st11{fill:#6678CE;}
	.st12{fill:#FFFFFF;}
	.st13{fill:#EFCB59;}
	.st14{fill:#E5A83C;}
	.st15{fill:#FCDEB4;}
	.st16{fill:#E29823;}
	.st17{fill:#A55E2F;}
	.st18{fill:#ABD4ED;}
	.st19{fill:#54719B;}
	.st20{fill:#DD5150;}
	.st21{fill:#FCA518;}
	.st22{fill:#7C3C28;}
	.st23{fill:#E8EAF3;}
	.st24{fill:#EF8484;}
	.st25{fill:#4D628C;}
	.st26{fill:#6981A8;}
	.st27{fill:#C4BE47;}
	.st28{fill:#60422B;}
	.st29{fill:#D36737;}
	.st30{fill:#C6BF44;}
	.st31{fill:#996D3C;}
	.st32{fill:#F9A61A;}
	.st33{fill:#665431;}
	.st34{fill:#CC6140;}
	.st35{fill:#49564A;}
	.st36{fill:#E2774D;}
	.st37{opacity:0.25;fill:#C66940;}
	.st38{fill:#E5BB67;}
	.st39{fill:#756052;}
	.st40{fill:#E89874;}
	.st41{fill:#965640;}
	.st42{fill:#995F3F;}
	.st43{fill:#E5B155;}
	.st44{fill:#C94845;}
	.st45{fill:#913A3A;}
	.st46{fill:#5B483B;}
	.st47{fill:#373F47;}
	.st48{fill:#EAB3A4;}
	.st49{fill:#3A3733;}
	.st50{fill:#527064;}
	.st51{fill:#C7BCE8;}
	.st52{fill:#B78C69;}
	.st53{fill:#D3A479;}
	.st54{fill:#4F4D49;}
	.st55{fill:#A89F91;}
	.st56{fill:#F7AAA1;}
	.st57{fill:#726358;}
	.st58{fill:#AFADAA;}
	.st59{fill:#585D7F;}
	.st60{fill:#686E8E;}
	.st61{fill:#AF754A;}
	.st62{fill:#A55E73;}
	.st63{fill:#CC503B;}
	.st64{fill:#EFE4CA;}
	.st65{fill:#E0CEA9;}
	.st66{fill:#475B5E;}
	.st67{fill:#5F7B82;}
	.st68{fill:#73969B;}
</style>
<g id="Girl_01">
</g>
<g id="Girl_02">
</g>
<g id="Girl_03">
</g>
<g id="Girl_04">
</g>
<g id="Girl_05">
</g>
<g id="Boy_01">
</g>
<g id="Boy_02">
</g>
<g id="Boy_03">
</g>
<g id="Boy_04">
</g>
<g id="Boy_05">
</g>
<g id="Girl_06">
</g>
<g id="Girl_07">
</g>
<g id="Girl_08">
</g>
<g id="Girl_09">
	<g>
		<path class="st45" d="M333.9,129c0.1-7.9,9.4-6.9,14.8-4.5c5.4,2.4,7.6,10.1,3.9,14.1C348.8,142.6,333.9,132.9,333.9,129z"/>
		<g>
			<g>
				<path class="st46" d="M234.1,182c-11.8,3.7-24.1,12.6-25.2,31c-1,18.4-0.5,24.4-6.8,30.8c-6.3,6.4-24.1,9.6-19.4,34.2
					c4.7,24.7-0.5,26.2-7.9,33.1c-7.3,6.8-11,27.9-3.1,36.8c7.9,8.9,29,6.3,29,6.3s-2.8-18.9,4.6-26.8c0,0-2.6,23.8,2.6,27.1
					c5.2,3.3,42.5,1.9,46.2,0c3.7-1.9-5.7-17.3-2.3-24.1c0,0,5.2,21.1,12.1,22.6c7,1.6,62.8,2.1,68.7,0c6-2.1,6.5-22.6,6.5-22.6
					s6.2,17.9,3.6,21.6c-2.6,3.7,21.5,8.9,29.7,2.6c8.2-6.3,9.7-21.6,9.7-21.6s3.7,21.6,0,23.2c-3.7,1.6,21,5.2,28.4-10
					c7.3-15.2,6.3-31,0-40.4c-6.3-9.5-18.4-14.1-16.3-24.9c2.1-10.8,12.1-12.2,9.4-29.6c-2.6-17.4-17.4-28.4-21.5-35.2
					c-4.2-6.8-4.7-27.8-9.7-36.2c-5-8.4-20.7-32-48.2-33.6c-27.6-1.6-43.4,4.2-55.4,12.2c-8.3,5.6-19.9,19.2-19.9,19.2
					S239.5,180.4,234.1,182z"/>
				<path class="st1" d="M372.4,379.3c-18.4,16-72.4,14.4-72.4,14.4s-54,1.6-72.4-14.4c0,0,40.1-5.9,48.1-19.4
					c2.6-4.4,4.2-10.4,5-16.4c1.8-12.4,0.9-24.9,0.9-24.9h36.8c0,0-1,12.6,0.9,24.9c0.9,6,2.4,12,5,16.4
					C332.3,373.5,372.4,379.3,372.4,379.3z"/>
				<path class="st37" d="M319.3,343.5c-7,2.9-13.6,4.4-19.3,4.4c-5.6,0-12.3-1.5-19.3-4.4c1.8-12.4,0.9-24.9,0.9-24.9h36.8
					C318.4,318.6,317.4,331.1,319.3,343.5z"/>
				<path class="st1" d="M361.5,207.3c-16.3-32.8-62.6-32.8-62.6-32.8s-46.3,0-62.6,32.8c-8.2,16.5-5.7,84.6,10.5,101.3
					c16.3,16.8,37.6,26.8,52,26.8c14.5,0,35.8-10.1,52-26.8C367.2,291.8,369.7,223.8,361.5,207.3z"/>
				<g>
					<g>
						<g>
							<g>
								<ellipse class="st4" cx="270.6" cy="248.1" rx="5.7" ry="6.9"/>
								<path class="st4" d="M262.7,243.8c0.8,0.6,5.4-2.8,8.3-2c2.3,0.6,4.1,2.1,4,2c-0.1-0.1-0.7-2.1-3.3-3
									c-2.6-0.9-4.8-0.2-6.1,0.3C264.3,241.5,261.8,243.2,262.7,243.8z"/>
								<path class="st4" d="M262,240.2c0.5,1.3,1.3,2.6,2,2.6s0.7-0.3,0.4-0.5c-0.2-0.1-1.9-2.2-2.2-2.9
									C261.9,238.8,261.7,239.6,262,240.2z"/>
								<path class="st4" d="M264,239.6c0.5,1.3,1.3,2.6,2,2.6s0.7-0.3,0.4-0.5c-0.2-0.1-1.9-2.2-2.2-2.9
									C263.9,238.1,263.7,238.9,264,239.6z"/>
							</g>
							<path class="st4" d="M258.4,230.9c1.8-0.3,11.3-3.4,14.3-3.6c4.1-0.4,6.7,2.4,7.5,2c0.8-0.4,0.8-1.3,0.6-2.1
								c-0.2-0.8-5.8-2.7-7.2-2.7c-4.5,0-12.7,3.7-15.6,4.8C255.2,230.4,256.7,231.2,258.4,230.9z"/>
						</g>
					</g>
					<g>
						<g>
							<g>
								<ellipse class="st4" cx="328.5" cy="248.1" rx="5.7" ry="6.9"/>
								<path class="st4" d="M336.5,243.8c-0.8,0.6-5.4-2.8-8.3-2c-2.3,0.6-4.1,2.1-4,2s0.7-2.1,3.3-3c2.6-0.9,4.8-0.2,6.1,0.3
									C334.8,241.5,337.3,243.2,336.5,243.8z"/>
								<path class="st4" d="M337.2,240.2c-0.5,1.3-1.3,2.6-2,2.6s-0.7-0.3-0.4-0.5c0.2-0.1,1.9-2.2,2.2-2.9
									C337.2,238.8,337.5,239.6,337.2,240.2z"/>
								<path class="st4" d="M335.1,239.6c-0.5,1.3-1.3,2.6-2,2.6c-0.7,0-0.7-0.3-0.4-0.5c0.2-0.1,1.9-2.2,2.2-2.9
									C335.2,238.1,335.4,238.9,335.1,239.6z"/>
							</g>
							<path class="st4" d="M340.7,230.9c-1.8-0.3-11.3-3.4-14.3-3.6c-4.1-0.4-6.7,2.4-7.5,2c-0.8-0.4-0.8-1.3-0.6-2.1
								c0.2-0.8,5.8-2.7,7.2-2.7c4.5,0,12.7,3.7,15.6,4.8C344,230.4,342.4,231.2,340.7,230.9z"/>
						</g>
					</g>
				</g>
				<path class="st5" d="M297.6,279c2.3,0.3,4.9,0,6,0.1c2.2,0.2-0.7,1.7-3,1.9c-2.2,0.2-8.4-0.1-9.4-2.6c-2.7-7,6.3-33,8.6-33
					c3,0-9.1,17.2-6.7,30.8C293.5,278,295.4,278.7,297.6,279"/>
				<path class="st4" d="M286.3,297.9c0.4-1,10.9,5.6,21.9,0c7.6-3.9,0.9,3.1-5.5,4.6C296.4,304,285.7,299.2,286.3,297.9z"/>
				<g>
					<ellipse class="st10" cx="259" cy="267.4" rx="7.3" ry="2.8"/>
					<ellipse class="st10" cx="341.4" cy="267.4" rx="7.3" ry="2.8"/>
				</g>
				<path class="st1" d="M236,243.9c-2.5-4.2-5-10.1-13.8-8.1c-8.7,2-9.4,18.6-2,26c7.4,7.5,15.4,6.5,17.4,2.6
					C239.6,260.6,236,243.9,236,243.9z"/>
				<path class="st1" d="M361.2,243.9c2.5-4.2,5-10.1,13.8-8.1c8.7,2,9.4,18.6,2,26c-7.4,7.5-15.4,6.5-17.4,2.6
					C357.7,260.6,361.2,243.9,361.2,243.9z"/>
				<path class="st47" d="M459.4,477.3H140.6c0,0,18.3-50.4,34.1-73.9c1.5-2.2,2.9-4.2,4.3-5.9c3.8-4.5,11.8-8.5,21.2-12
					c15.6-5.6,35.2-9.6,46.6-11.7c5.8-1,9.5-1.6,9.5-1.6s22.6,15.9,43.7,15.5c28.8-0.5,43.7-15.5,43.7-15.5s2.5,0.4,6.7,1.1
					c16.8,2.9,59.9,11.4,70.6,24.1C437.5,417,459.4,477.3,459.4,477.3z"/>
				<path class="st46" d="M223.5,215.6l8.4,22.9c0,0,14.2-6.1,19.9-14c7.3-10.1,5.7-18.2,4.7-30.5c0,0,23.5-3,35,1.8
					c11.4,4.8,22.3,20,37.1,19.1c14.9-1,23.2-7.3,25.1-0.2c1.9,7.1,8.1,33,14.5,20.7c6.5-12.3-7.8-49.8-21-58.2
					c-13.2-8.4-48.2-13.9-60.9-9.4c-12.7,4.5-41.7,21-48,27.1C231.9,201.1,223.5,215.6,223.5,215.6z"/>
				<path class="st48" d="M386.4,381.9c-0.9-5.7-12.1-6.5-16.2-2.6c-4,3.9-6.4,30.6-8.5,37c-2.1,6.4-62.8,12-62.8,12
					s-60.7-5.6-62.8-12s-4.4-33.1-8.5-37c-4-3.9-15.3-3.1-16.2,2.6l-11.9,95.4h99.3h99.3L386.4,381.9z"/>
			</g>
		</g>
		<path class="st44" d="M259,168.2c5.6,2,51.7-2.7,63.8,2.6c12.1,5.3,32.8,23.9,40.9,26.6c8.1,2.7,14.5,3,15.5-3.7
			c1-6.8-2.1-37.2-13.2-47.6s-32.1-23.3-47.8-23.3c-15.7,0-23.6,10.8-27.4,11.8c-3.8,1-19,1.7-27.6,11.5
			C254.6,155.9,250.3,165.1,259,168.2z"/>
	</g>
</g>
<g id="Girl_10">
</g>
<g id="Boy_06">
</g>
<g id="Boy_07">
</g>
<g id="Boy_08">
</g>
<g id="Boy_09">
</g>
<g id="Boy_10">
</g>
</svg>
