<?xml version="1.0" encoding="utf-8"?>
<!-- Generator: Adobe Illustrator 22.0.0, SVG Export Plug-In . SVG Version: 6.00 Build 0)  -->
<svg version="1.1" xmlns="http://www.w3.org/2000/svg" xmlns:xlink="http://www.w3.org/1999/xlink" x="0px" y="0px"
	 viewBox="0 0 600 600" style="enable-background:new 0 0 600 600;" xml:space="preserve">
<style type="text/css">
	.st0{fill:#35312F;}
	.st1{fill:#F4A671;}
	.st2{opacity:0.25;}
	.st3{fill:#C66940;}
	.st4{fill:#3F3832;}
	.st5{opacity:0.5;fill:#C66940;}
	.st6{fill:#FF3B3B;}
	.st7{fill:#D6D351;}
	.st8{fill:none;stroke:#EFBD41;stroke-width:0.5;stroke-miterlimit:10;}
	.st9{fill:#EFBD41;}
	.st10{opacity:0.25;fill:#FF3B3B;}
	.st11{fill:#6678CE;}
	.st12{fill:#FFFFFF;}
	.st13{fill:#EFCB59;}
	.st14{fill:#E5A83C;}
	.st15{fill:#FCDEB4;}
	.st16{fill:#E29823;}
	.st17{fill:#A55E2F;}
	.st18{fill:#ABD4ED;}
	.st19{fill:#54719B;}
	.st20{fill:#DD5150;}
	.st21{fill:#FCA518;}
	.st22{fill:#7C3C28;}
	.st23{fill:#E8EAF3;}
	.st24{fill:#EF8484;}
	.st25{fill:#4D628C;}
	.st26{fill:#6981A8;}
	.st27{fill:#C4BE47;}
	.st28{fill:#60422B;}
	.st29{fill:#D36737;}
	.st30{fill:#C6BF44;}
	.st31{fill:#996D3C;}
	.st32{fill:#F9A61A;}
	.st33{fill:#665431;}
	.st34{fill:#CC6140;}
	.st35{fill:#49564A;}
	.st36{fill:#E2774D;}
	.st37{opacity:0.25;fill:#C66940;}
	.st38{fill:#E5BB67;}
	.st39{fill:#756052;}
	.st40{fill:#E89874;}
	.st41{fill:#965640;}
	.st42{fill:#995F3F;}
	.st43{fill:#E5B155;}
	.st44{fill:#C94845;}
	.st45{fill:#913A3A;}
	.st46{fill:#5B483B;}
	.st47{fill:#373F47;}
	.st48{fill:#EAB3A4;}
	.st49{fill:#3A3733;}
	.st50{fill:#527064;}
	.st51{fill:#C7BCE8;}
	.st52{fill:#B78C69;}
	.st53{fill:#D3A479;}
	.st54{fill:#4F4D49;}
	.st55{fill:#A89F91;}
	.st56{fill:#F7AAA1;}
	.st57{fill:#726358;}
	.st58{fill:#AFADAA;}
	.st59{fill:#585D7F;}
	.st60{fill:#686E8E;}
	.st61{fill:#AF754A;}
	.st62{fill:#A55E73;}
	.st63{fill:#CC503B;}
	.st64{fill:#EFE4CA;}
	.st65{fill:#E0CEA9;}
	.st66{fill:#475B5E;}
	.st67{fill:#5F7B82;}
	.st68{fill:#73969B;}
</style>
<g id="Girl_01">
</g>
<g id="Girl_02">
</g>
<g id="Girl_03">
</g>
<g id="Girl_04">
</g>
<g id="Girl_05">
</g>
<g id="Boy_01">
</g>
<g id="Boy_02">
</g>
<g id="Boy_03">
</g>
<g id="Boy_04">
</g>
<g id="Boy_05">
</g>
<g id="Girl_06">
</g>
<g id="Girl_07">
	<g>
		<g>
			<path class="st41" d="M457.3,448.8c-1.4-3.4-2.9-6.9-4.4-10.5c-3.1-7-6.4-14.3-9.8-21c-1.2-2.4-2.4-4.6-3.5-6.8
				c-4.1-7.6-8.2-14.2-12-18.8c-11.3-13.4-56.7-22.4-74.4-25.4c-4.3-0.7-6.9-1.1-7.1-1.2c-8.9-3.2-17.2-7.5-20.5-13
				c-2.7-4.7-4.4-11-5.3-17.3c-1.9-13-0.9-26.3-0.9-26.3h-38.8c0,0,1,13.2-0.9,26.3c-0.9,6.4-2.5,12.7-5.3,17.3
				c-3.3,5.5-11.5,9.8-20.5,13c-0.3,0-4.1,0.6-9.9,1.7c-12,2.2-32.7,6.4-49.1,12.3c-9.9,3.6-18.3,7.8-22.4,12.6
				c-1.5,1.8-3,3.8-4.6,6.2c-2.8,4.2-5.6,9.1-8.5,14.5c-3.3,6.2-6.5,12.9-9.5,19.6c-4.4,9.7-8.4,19.3-11.5,27.1
				c-1.4,3.6-2.7,6.7-3.7,9.3c-1.8,4.6-2.8,7.4-2.8,7.4h335.8C467.9,475.8,463.6,464,457.3,448.8z"/>
		</g>
		<g>
			<path class="st1" d="M364.9,191.4c-17.1-34.6-65.9-34.6-65.9-34.6s-48.7,0-65.9,34.6c-8.6,17.4-6.1,89.1,11.1,106.7
				c17.1,17.7,39.6,28.3,54.8,28.3s37.7-10.6,54.8-28.3C371,280.5,373.6,208.8,364.9,191.4z"/>
		</g>
		<g>
			<g>
				<g>
					<g>
						<g>
							<ellipse class="st4" cx="269" cy="234.5" rx="6" ry="7.2"/>
						</g>
						<g>
							<path class="st4" d="M260.7,229.9c0.8,0.6,5.7-2.9,8.8-2.1c2.4,0.6,4.3,2.2,4.2,2.1c-0.1-0.1-0.8-2.2-3.5-3.1s-5-0.2-6.4,0.3
								C262.4,227.5,259.8,229.2,260.7,229.9z"/>
						</g>
						<g>
							<path class="st4" d="M259.9,226.1c0.6,1.3,1.4,2.8,2.1,2.8c0.7,0,0.7-0.4,0.5-0.5c-0.3-0.1-2-2.3-2.3-3
								C259.9,224.6,259.6,225.4,259.9,226.1z"/>
						</g>
						<g>
							<path class="st4" d="M262.1,225.4c0.6,1.3,1.4,2.8,2.1,2.8c0.7,0,0.7-0.4,0.5-0.5c-0.3-0.1-2-2.3-2.3-3
								C262,223.9,261.8,224.8,262.1,225.4z"/>
						</g>
					</g>
					<g>
						<path class="st4" d="M256.2,216.3c1.9-0.3,12-3.5,15-3.8c4.3-0.4,7.1,2.5,7.9,2.1c0.8-0.4,0.8-1.4,0.6-2.2
							c-0.3-0.8-6.1-2.8-7.6-2.8c-4.7,0-13.3,3.9-16.4,5.1C252.8,215.8,254.4,216.7,256.2,216.3z"/>
					</g>
				</g>
			</g>
			<g>
				<g>
					<g>
						<g>
							<path class="st4" d="M324,234.5c0,4,2.7,7.2,6,7.2c3.3,0,6-3.2,6-7.2c0-4-2.7-7.2-6-7.2C326.7,227.2,324,230.5,324,234.5z"/>
						</g>
						<g>
							<path class="st4" d="M338.4,229.9c-0.8,0.6-5.7-2.9-8.8-2.1c-2.4,0.6-4.3,2.2-4.2,2.1c0.1-0.1,0.8-2.2,3.5-3.1
								c2.7-1,5-0.2,6.4,0.3C336.7,227.5,339.3,229.2,338.4,229.9z"/>
						</g>
						<g>
							<path class="st4" d="M339.2,226.1c-0.6,1.3-1.4,2.8-2.1,2.8c-0.7,0-0.7-0.4-0.5-0.5c0.3-0.1,2-2.3,2.3-3
								C339.2,224.6,339.4,225.4,339.2,226.1z"/>
						</g>
						<g>
							<path class="st4" d="M337,225.4c-0.6,1.3-1.4,2.8-2.1,2.8c-0.7,0-0.7-0.4-0.5-0.5c0.3-0.1,2-2.3,2.3-3
								C337.1,223.9,337.3,224.8,337,225.4z"/>
						</g>
					</g>
					<g>
						<path class="st4" d="M342.9,216.3c-1.9-0.3-12-3.5-15-3.8c-4.3-0.4-7.1,2.5-7.9,2.1c-0.8-0.4-0.8-1.4-0.6-2.2
							c0.3-0.8,6.1-2.8,7.6-2.8c4.7,0,13.3,3.9,16.4,5.1C346.3,215.8,344.7,216.7,342.9,216.3z"/>
					</g>
				</g>
			</g>
		</g>
		<g>
			<path class="st5" d="M299.9,231.5c3.2,0-9.6,18.1-7.1,32.4c0.7,4.1,8.7,3,11.1,3.2c2.4,0.2-0.8,1.8-3.2,2
				c-2.4,0.2-8.9-0.1-9.9-2.8C288,258.9,297.5,231.5,299.9,231.5z"/>
		</g>
		<g>
			<path class="st4" d="M285.6,286.9c0.4-1,11.5,5.9,23.1,0c8-4.1,0.9,3.3-5.8,4.8C296.2,293.3,285,288.3,285.6,286.9z"/>
		</g>
		<g>
			<g class="st2">
				<ellipse class="st6" cx="256.8" cy="254.7" rx="7.7" ry="2.9"/>
			</g>
			<g>
				<ellipse class="st10" cx="343.6" cy="254.7" rx="7.7" ry="2.9"/>
			</g>
		</g>
		<g>
			<path class="st42" d="M348.9,181.6c-3.4-11.7-49.9-36.7-49.9-36.7l0,0v0c0,0-46.4,25-49.9,36.7c-3.4,11.7,0,18.8,0,18.8
				s31.4-27.8,49.9-27.8c17.7,0,49.9,27.8,49.9,27.8S352.4,193.3,348.9,181.6z"/>
		</g>
		<g>
			<path class="st43" d="M367.6,356.1c-10.6-3.5-14.2-16.6-6.8-24.9c8.2-9.2,16.5-20.9,21.1-34.2c14.6-42.2,11.6-87.4-9-124.3
				c-16.1-28.8-49.6-48.5-72.8-48.5s-58.7,19.6-74.7,48.5c-20.6,36.9-23.7,82.1-9,124.3c4.3,12.3,11.8,23.4,19.4,32.3
				c7.9,9.3,4,23.5-7.4,27.6c-22,7.9-33.3,22.3-33.3,22.3s25.2,8.6,49,13.1c23.8,4.4,40.1,5.2,53.5,5.2c14.2,0,32.8-0.8,56.7-5.2
				c23.8-4.4,49-13.1,49-13.1S391,363.8,367.6,356.1z M298.9,323.7c-10,0-21-5.5-35.5-15.1c-11-7.2-19.7-21.5-24-35.4
				c-4.2-13.9-3.3-43.8,7.3-65.9c13.1-27.2,33.6-50.6,52.4-50.6c18.8,0,39.2,23.4,52.4,50.6c10.7,22.1,11.6,52,7.3,65.9
				c-4.2,13.9-13,28.1-24,35.4C320.2,318.2,308.8,323.7,298.9,323.7z"/>
		</g>
	</g>
</g>
<g id="Girl_08">
</g>
<g id="Girl_09">
</g>
<g id="Girl_10">
</g>
<g id="Boy_06">
</g>
<g id="Boy_07">
</g>
<g id="Boy_08">
</g>
<g id="Boy_09">
</g>
<g id="Boy_10">
</g>
</svg>
