<?xml version="1.0" encoding="utf-8"?>
<!-- Generator: Adobe Illustrator 22.0.0, SVG Export Plug-In . SVG Version: 6.00 Build 0)  -->
<svg version="1.1" xmlns="http://www.w3.org/2000/svg" xmlns:xlink="http://www.w3.org/1999/xlink" x="0px" y="0px"
	 viewBox="0 0 600 600" style="enable-background:new 0 0 600 600;" xml:space="preserve">
<style type="text/css">
	.st0{fill:#35312F;}
	.st1{fill:#F4A671;}
	.st2{opacity:0.25;}
	.st3{fill:#C66940;}
	.st4{fill:#3F3832;}
	.st5{opacity:0.5;fill:#C66940;}
	.st6{fill:#FF3B3B;}
	.st7{fill:#D6D351;}
	.st8{fill:none;stroke:#EFBD41;stroke-width:0.5;stroke-miterlimit:10;}
	.st9{fill:#EFBD41;}
	.st10{opacity:0.25;fill:#FF3B3B;}
	.st11{fill:#6678CE;}
	.st12{fill:#FFFFFF;}
	.st13{fill:#EFCB59;}
	.st14{fill:#E5A83C;}
	.st15{fill:#FCDEB4;}
	.st16{fill:#E29823;}
	.st17{fill:#A55E2F;}
	.st18{fill:#ABD4ED;}
	.st19{fill:#54719B;}
	.st20{fill:#DD5150;}
	.st21{fill:#FCA518;}
	.st22{fill:#7C3C28;}
	.st23{fill:#E8EAF3;}
	.st24{fill:#EF8484;}
	.st25{fill:#4D628C;}
	.st26{fill:#6981A8;}
	.st27{fill:#C4BE47;}
	.st28{fill:#60422B;}
	.st29{fill:#D36737;}
	.st30{fill:#C6BF44;}
	.st31{fill:#996D3C;}
	.st32{fill:#F9A61A;}
	.st33{fill:#665431;}
	.st34{fill:#CC6140;}
	.st35{fill:#49564A;}
	.st36{fill:#E2774D;}
	.st37{opacity:0.25;fill:#C66940;}
	.st38{fill:#E5BB67;}
	.st39{fill:#756052;}
	.st40{fill:#E89874;}
	.st41{fill:#965640;}
	.st42{fill:#995F3F;}
	.st43{fill:#E5B155;}
	.st44{fill:#C94845;}
	.st45{fill:#913A3A;}
	.st46{fill:#5B483B;}
	.st47{fill:#373F47;}
	.st48{fill:#EAB3A4;}
	.st49{fill:#3A3733;}
	.st50{fill:#527064;}
	.st51{fill:#C7BCE8;}
	.st52{fill:#B78C69;}
	.st53{fill:#D3A479;}
	.st54{fill:#4F4D49;}
	.st55{fill:#A89F91;}
	.st56{fill:#F7AAA1;}
	.st57{fill:#726358;}
	.st58{fill:#AFADAA;}
	.st59{fill:#585D7F;}
	.st60{fill:#686E8E;}
	.st61{fill:#AF754A;}
	.st62{fill:#A55E73;}
	.st63{fill:#CC503B;}
	.st64{fill:#EFE4CA;}
	.st65{fill:#E0CEA9;}
	.st66{fill:#475B5E;}
	.st67{fill:#5F7B82;}
	.st68{fill:#73969B;}
</style>
<g id="Girl_01">
</g>
<g id="Girl_02">
	<g>
		<g>
			<path class="st4" d="M297.6,123.3c-27.1-2.5-50.8,10.7-76.4,34.8c-25.5,24.1-21.3,80.7-26.2,105.2c-5,24.5-17.7,16-19.9,43
				c-2.1,26.9,14.2,23.4,9.2,40.7c-5,17.4-14.2,20.8-12.1,46c2.1,25.2,40,27.9,59.3,31.2c19.4,3.3,84.3-21.6,99-20.1
				c14.7,1.4,52.3,14.1,62.9,3.5c23.7-23.6,0.1-45.7,2.3-54.5c3.8-15.1,12.7-22.8,12-41.3c-0.7-18.4-13.9-34.6-14.9-41.2
				c-2.1-13.4,5.3-31.6,2.5-53.6c-2.8-22-7.6-57.5-28.9-71.7c-21.2-14.2-35.9-5-35.9-5S319.3,125.3,297.6,123.3z"/>
		</g>
		<g>
			<path class="st1" d="M372.7,378.6C354.2,394.6,300,393,300,393s-54.2,1.6-72.7-14.4c0,0,40.3-5.9,48.3-19.5
				c2.6-4.5,4.2-10.5,5-16.5c1.8-12.4,0.9-25.1,0.9-25.1h37c0,0-1,12.6,0.9,25.1c0.9,6.1,2.4,12.1,5,16.5
				C332.4,372.7,372.7,378.6,372.7,378.6z"/>
		</g>
		<g class="st2">
			<path class="st3" d="M319.3,342.6c-7,2.9-13.7,4.4-19.4,4.4s-12.3-1.5-19.4-4.4c1.8-12.4,0.9-25.1,0.9-25.1h37
				C318.5,317.5,317.5,330.2,319.3,342.6z"/>
		</g>
		<g>
			<path class="st1" d="M362,205.7c-16.4-33-62.9-33-62.9-33s-46.5,0-62.9,33c-8.2,16.6-5.8,85,10.6,101.8
				c16.3,16.9,37.7,27,52.3,27c14.5,0,36-10.1,52.3-27C367.7,290.7,370.2,222.3,362,205.7z"/>
		</g>
		<g>
			<g>
				<g>
					<g>
						<g>
							<path class="st4" d="M276.2,246.8c0,3.8-2.6,6.9-5.7,6.9c-3.2,0-5.7-3.1-5.7-6.9s2.6-6.9,5.7-6.9
								C273.6,239.9,276.2,243,276.2,246.8z"/>
						</g>
						<g>
							<path class="st4" d="M262.5,242.4c0.8,0.6,5.4-2.8,8.4-2c2.3,0.6,4.1,2.1,4,2c-0.1-0.1-0.7-2.1-3.3-3
								c-2.6-0.9-4.8-0.2-6.1,0.3C264.1,240.1,261.6,241.8,262.5,242.4z"/>
						</g>
						<g>
							<path class="st4" d="M261.8,238.8c0.6,1.3,1.3,2.7,2,2.7s0.7-0.3,0.4-0.5c-0.2-0.1-1.9-2.2-2.2-2.9
								C261.7,237.3,261.5,238.2,261.8,238.8z"/>
						</g>
						<g>
							<path class="st4" d="M263.8,238.1c0.6,1.3,1.3,2.7,2,2.7c0.7,0,0.7-0.3,0.4-0.5c-0.2-0.1-1.9-2.2-2.2-2.9
								C263.8,236.7,263.5,237.5,263.8,238.1z"/>
						</g>
					</g>
					<g>
						<path class="st4" d="M258.2,229.5c1.8-0.3,11.4-3.4,14.3-3.7c4.1-0.4,6.8,2.4,7.6,2c0.8-0.4,0.8-1.3,0.6-2.1
							c-0.2-0.8-5.8-2.7-7.2-2.7c-4.5,0-12.7,3.7-15.7,4.9C255,229,256.5,229.8,258.2,229.5z"/>
					</g>
				</g>
			</g>
			<g>
				<g>
					<g>
						<g>
							<path class="st4" d="M322.9,246.8c0,3.8,2.6,6.9,5.7,6.9s5.7-3.1,5.7-6.9s-2.6-6.9-5.7-6.9S322.9,243,322.9,246.8z"/>
						</g>
						<g>
							<path class="st4" d="M336.6,242.4c-0.8,0.6-5.4-2.8-8.4-2c-2.3,0.6-4.1,2.1-4,2c0.1-0.1,0.7-2.1,3.3-3
								c2.6-0.9,4.8-0.2,6.1,0.3C335,240.1,337.5,241.8,336.6,242.4z"/>
						</g>
						<g>
							<path class="st4" d="M337.4,238.8c-0.6,1.3-1.3,2.7-2,2.7s-0.7-0.3-0.4-0.5c0.2-0.1,1.9-2.2,2.2-2.9
								C337.4,237.3,337.6,238.2,337.4,238.8z"/>
						</g>
						<g>
							<path class="st4" d="M335.3,238.1c-0.6,1.3-1.3,2.7-2,2.7c-0.7,0-0.7-0.3-0.4-0.5c0.2-0.1,1.9-2.2,2.2-2.9
								C335.4,236.7,335.6,237.5,335.3,238.1z"/>
						</g>
					</g>
					<g>
						<path class="st4" d="M340.9,229.5c-1.8-0.3-11.4-3.4-14.3-3.7c-4.1-0.4-6.8,2.4-7.6,2c-0.8-0.4-0.8-1.3-0.6-2.1
							c0.2-0.8,5.8-2.7,7.2-2.7c4.5,0,12.7,3.7,15.7,4.9C344.2,229,342.6,229.8,340.9,229.5z"/>
					</g>
				</g>
			</g>
		</g>
		<g>
			<path class="st5" d="M299.9,243.9c3,0-9.2,17.2-6.8,30.9c0.7,3.9,8.3,2.8,10.5,3c2.3,0.2-0.8,1.7-3,1.9c-2.3,0.2-8.5-0.1-9.4-2.6
				C288.6,270.1,297.6,243.9,299.9,243.9z"/>
		</g>
		<g>
			<path class="st4" d="M286.2,296.8c0.4-1,11,5.6,22,0c7.6-3.9,0.9,3.1-5.5,4.6C296.4,302.9,285.7,298.1,286.2,296.8z"/>
		</g>
		<g>
			<g>
				<ellipse class="st10" cx="258.8" cy="266.1" rx="7.3" ry="2.8"/>
			</g>
			<g>
				<ellipse class="st10" cx="341.6" cy="266.1" rx="7.3" ry="2.8"/>
			</g>
		</g>
		<g>
			<path class="st1" d="M235.9,242.5c-2.5-4.2-5.1-10.2-13.8-8.2c-8.8,2-9.4,18.7-2,26.2c7.4,7.5,15.5,6.5,17.5,2.7
				C239.5,259.3,235.9,242.5,235.9,242.5z"/>
		</g>
		<g>
			<path class="st11" d="M460.2,477H139.8c0,0,1-2.7,2.7-7.1c1-2.5,2.1-5.5,3.5-8.9c2.9-7.4,6.7-16.6,10.9-25.8
				c2.9-6.4,5.9-12.8,9-18.7c2.7-5.1,5.4-9.8,8.1-13.8c1.5-2.2,2.9-4.2,4.3-5.9c3.8-4.6,11.8-8.6,21.3-12
				c15.7-5.7,35.4-9.7,46.9-11.7c5.8-1,9.5-1.6,9.5-1.6s22.7,15.9,43.9,15.5c29-0.5,43.9-15.5,43.9-15.5s2.6,0.4,6.8,1.1
				c16.9,2.9,60.2,11.5,70.9,24.2c3.7,4.3,7.6,10.7,11.5,17.9c1.1,2.1,2.2,4.3,3.4,6.5c3.2,6.5,6.4,13.4,9.4,20.1
				c1.5,3.4,2.9,6.8,4.2,10C456.1,465.7,460.2,477,460.2,477z"/>
		</g>
		<g>
			<path class="st12" d="M350.6,372.6c-2.2,3-5.3,6.5-9,9.4c-8.1,6-34.7,18.6-55.4,13.5c-17.1-4.2-34.2-17.8-39.6-22.4
				c5.8-1,9.5-1.6,9.5-1.6s22.7,15.9,43.9,15.5c29-0.5,43.9-15.5,43.9-15.5S346.4,371.9,350.6,372.6z"/>
		</g>
		<g>
			<path class="st12" d="M436.5,421.3c-6.2,6.1-9.9,15.5-21.1,15.5c-16.6,0-16.6-20.7-33.2-20.7c-16.6,0-16.6,20.7-33.2,20.7
				c-16.6,0-16.6-20.7-33.2-20.7c-16.6,0-16.6,20.7-33.2,20.7c-16.6,0-16.6-20.7-33.2-20.7c-16.6,0-16.6,20.7-33.2,20.7
				s-16.6-20.7-33.2-20.7c-13.8,0-16.1,14.3-26,19.1c2.9-6.4,5.9-12.8,9-18.7c4.3-5.3,8.4-10.8,16.9-10.8
				c16.6,0,16.6,20.7,33.2,20.7s16.6-20.7,33.2-20.7s16.6,20.7,33.2,20.7s16.6-20.7,33.2-20.7c16.6,0,16.6,20.7,33.2,20.7
				c16.6,0,16.6-20.7,33.2-20.7c16.6,0,16.6,20.7,33.2,20.7c9.1,0,13.2-6.1,17.8-11.7C434.2,416.8,435.3,419,436.5,421.3z"/>
		</g>
		<g>
			<path class="st12" d="M450.1,451.3c-0.2,0-0.4,0-0.7,0c-16.6,0-16.6,20.7-33.2,20.7s-16.6-20.7-33.2-20.7
				c-16.6,0-16.6,20.7-33.2,20.7c-16.6,0-16.6-20.7-33.2-20.7S300,472,283.4,472c-16.6,0-16.6-20.7-33.2-20.7
				c-16.6,0-16.6,20.7-33.2,20.7c-16.6,0-16.6-20.7-33.2-20.7c-16.6,0-16.6,20.7-33.2,20.7c-3.3,0-5.9-0.8-8.1-2
				c1-2.5,2.1-5.5,3.5-8.9c1.4,0.4,2.9,0.6,4.6,0.6c16.6,0,16.6-20.7,33.2-20.7s16.6,20.7,33.2,20.7c16.6,0,16.6-20.7,33.2-20.7
				s16.6,20.7,33.2,20.7S300,441,316.6,441c16.6,0,16.6,20.7,33.2,20.7c16.6,0,16.6-20.7,33.2-20.7c16.6,0,16.6,20.7,33.2,20.7
				c15.3,0,16.5-17.6,29.6-20.3C447.3,444.8,448.7,448.1,450.1,451.3z"/>
		</g>
		<g>
			<path class="st4" d="M272.2,334.5l8.5,4.6c0,0-6.1,24.9-10.2,36.5c-4.1,11.5,13.5,27.5,10.2,40c-3.3,12.4-12.2,17.1-15.9,31.6
				c-3.8,14.5,3.8,29.9,3.8,29.9h-69.3c0,0-11.2-9.4-13.1-26.2c-1.9-16.8,4.7-18,2.8-26.6c-1.9-8.5-13.3-12-15.1-24.6
				C172,387.2,196,347,197.4,347C198.8,347,272.2,334.5,272.2,334.5z"/>
		</g>
		<g>
			<path class="st4" d="M224.7,223l6.9,13.4c0,0,53.8-2,83-50.5c0,0,22.9,48.8,51.9,50.5c0,0,7.3-25.7-4.3-43.7
				c-11.7-18-52.7-29.1-65.4-27.2C284,167.5,224.7,181.9,224.7,223z"/>
		</g>
	</g>
</g>
<g id="Girl_03">
</g>
<g id="Girl_04">
</g>
<g id="Girl_05">
</g>
<g id="Boy_01">
</g>
<g id="Boy_02">
</g>
<g id="Boy_03">
</g>
<g id="Boy_04">
</g>
<g id="Boy_05">
</g>
<g id="Girl_06">
</g>
<g id="Girl_07">
</g>
<g id="Girl_08">
</g>
<g id="Girl_09">
</g>
<g id="Girl_10">
</g>
<g id="Boy_06">
</g>
<g id="Boy_07">
</g>
<g id="Boy_08">
</g>
<g id="Boy_09">
</g>
<g id="Boy_10">
</g>
</svg>
