<?xml version="1.0" encoding="utf-8"?>
<!-- Generator: Adobe Illustrator 22.0.0, SVG Export Plug-In . SVG Version: 6.00 Build 0)  -->
<svg version="1.1" xmlns="http://www.w3.org/2000/svg" xmlns:xlink="http://www.w3.org/1999/xlink" x="0px" y="0px"
	 viewBox="0 0 600 600" style="enable-background:new 0 0 600 600;" xml:space="preserve">
<style type="text/css">
	.st0{fill:#35312F;}
	.st1{fill:#F4A671;}
	.st2{opacity:0.25;}
	.st3{fill:#C66940;}
	.st4{fill:#3F3832;}
	.st5{opacity:0.5;fill:#C66940;}
	.st6{fill:#FF3B3B;}
	.st7{fill:#D6D351;}
	.st8{fill:none;stroke:#EFBD41;stroke-width:0.5;stroke-miterlimit:10;}
	.st9{fill:#EFBD41;}
	.st10{opacity:0.25;fill:#FF3B3B;}
	.st11{fill:#6678CE;}
	.st12{fill:#FFFFFF;}
	.st13{fill:#EFCB59;}
	.st14{fill:#E5A83C;}
	.st15{fill:#FCDEB4;}
	.st16{fill:#E29823;}
	.st17{fill:#A55E2F;}
	.st18{fill:#ABD4ED;}
	.st19{fill:#54719B;}
	.st20{fill:#DD5150;}
	.st21{fill:#FCA518;}
	.st22{fill:#7C3C28;}
	.st23{fill:#E8EAF3;}
	.st24{fill:#EF8484;}
	.st25{fill:#4D628C;}
	.st26{fill:#6981A8;}
	.st27{fill:#C4BE47;}
	.st28{fill:#60422B;}
	.st29{fill:#D36737;}
	.st30{fill:#C6BF44;}
	.st31{fill:#996D3C;}
	.st32{fill:#F9A61A;}
	.st33{fill:#665431;}
	.st34{fill:#CC6140;}
	.st35{fill:#49564A;}
	.st36{fill:#E2774D;}
	.st37{opacity:0.25;fill:#C66940;}
	.st38{fill:#E5BB67;}
	.st39{fill:#756052;}
	.st40{fill:#E89874;}
	.st41{fill:#965640;}
	.st42{fill:#995F3F;}
	.st43{fill:#E5B155;}
	.st44{fill:#C94845;}
	.st45{fill:#913A3A;}
	.st46{fill:#5B483B;}
	.st47{fill:#373F47;}
	.st48{fill:#EAB3A4;}
	.st49{fill:#3A3733;}
	.st50{fill:#527064;}
	.st51{fill:#C7BCE8;}
	.st52{fill:#B78C69;}
	.st53{fill:#D3A479;}
	.st54{fill:#4F4D49;}
	.st55{fill:#A89F91;}
	.st56{fill:#F7AAA1;}
	.st57{fill:#726358;}
	.st58{fill:#AFADAA;}
	.st59{fill:#585D7F;}
	.st60{fill:#686E8E;}
	.st61{fill:#AF754A;}
	.st62{fill:#A55E73;}
	.st63{fill:#CC503B;}
	.st64{fill:#EFE4CA;}
	.st65{fill:#E0CEA9;}
	.st66{fill:#475B5E;}
	.st67{fill:#5F7B82;}
	.st68{fill:#73969B;}
</style>
<g id="Girl_01">
</g>
<g id="Girl_02">
</g>
<g id="Girl_03">
</g>
<g id="Girl_04">
</g>
<g id="Girl_05">
</g>
<g id="Boy_01">
</g>
<g id="Boy_02">
</g>
<g id="Boy_03">
</g>
<g id="Boy_04">
</g>
<g id="Boy_05">
</g>
<g id="Girl_06">
</g>
<g id="Girl_07">
</g>
<g id="Girl_08">
	<g>
		<g>
			<path class="st4" d="M353.1,148.3c-17.1-17.4-52.7-16.8-52.7-16.8c-0.1,0-0.2,0.1-0.3,0.1c-0.1,0-0.2-0.1-0.3-0.1
				c0,0-35.6-0.6-52.7,16.8s-31.1,60-25.4,81.4c5.6,21.4,64.8,26.9,76.7,20.8c0.6-0.3,1.2-1,1.8-1.9c0.6,0.9,1.2,1.6,1.8,1.9
				c11.9,6.1,71.1,0.6,76.7-20.8C384.1,208.3,370.1,165.7,353.1,148.3z"/>
		</g>
		<g>
			<path class="st1" d="M449.6,447.5c-1.3-3.2-2.8-6.5-4.2-9.9c-2.9-6.7-6.1-13.5-9.3-20c-1.1-2.2-2.2-4.4-3.4-6.5
				c-3.9-7.2-7.8-13.5-11.5-17.8c-10.7-12.7-53.9-21.3-70.7-24.1c-4.1-0.7-6.6-1.1-6.7-1.1c-8.5-3-16.4-7.1-19.5-12.3
				c-2.6-4.4-4.2-10.4-5-16.5c-1.8-12.4-0.9-25-0.9-25h-36.9c0,0,1,12.6-0.9,25c-0.9,6.1-2.4,12-5,16.5c-3.1,5.2-11,9.3-19.5,12.3
				c-0.3,0-3.9,0.6-9.4,1.6c-11.4,2.1-31.1,6.1-46.7,11.7c-9.5,3.4-17.4,7.4-21.3,12c-1.4,1.7-2.9,3.6-4.3,5.9
				c-2.6,4-5.4,8.7-8,13.8c-3.1,5.9-6.2,12.2-9,18.6c-4.2,9.2-8,18.4-10.9,25.8c-1.4,3.4-2.5,6.4-3.5,8.9c-1.7,4.4-2.6,7-2.6,7
				h319.3C459.6,473.1,455.5,461.9,449.6,447.5z"/>
		</g>
		<path class="st37" d="M300,342.9c5.7,0,12.3-1.3,19.3-3.7c-1.8-12.4-0.9-24.9-0.9-24.9h-36.9c0,0,1,12.6-0.9,24.9
			C287.7,341.6,294.3,342.9,300,342.9z"/>
		<g>
			<path class="st1" d="M361.7,202.8c-16.3-32.9-62.6-32.9-62.6-32.9s-46.3,0-62.6,32.9c-8.2,16.6-5.8,84.7,10.5,101.5
				c16.3,16.8,37.6,26.9,52.1,26.9c14.5,0,35.8-10.1,52.1-26.9C367.5,287.4,369.9,219.3,361.7,202.8z"/>
		</g>
		<g>
			<g>
				<g>
					<g>
						<g>
							<path class="st4" d="M276.3,243.7c0,3.8-2.6,6.9-5.7,6.9s-5.7-3.1-5.7-6.9c0-3.8,2.6-6.9,5.7-6.9S276.3,239.9,276.3,243.7z"
								/>
						</g>
						<g>
							<path class="st4" d="M262.6,239.3c0.8,0.6,5.4-2.8,8.3-2c2.3,0.6,4.1,2.1,4,2c-0.1-0.1-0.7-2.1-3.3-3
								c-2.6-0.9-4.8-0.2-6.1,0.3C264.3,237.1,261.8,238.7,262.6,239.3z"/>
						</g>
						<g>
							<path class="st4" d="M261.9,235.7c0.6,1.3,1.3,2.6,2,2.6c0.7,0,0.7-0.3,0.4-0.5c-0.2-0.1-1.9-2.2-2.2-2.9
								S261.6,235.1,261.9,235.7z"/>
						</g>
						<g>
							<path class="st4" d="M264,235.1c0.6,1.3,1.3,2.6,2,2.6c0.7,0,0.7-0.3,0.4-0.5c-0.2-0.1-1.9-2.2-2.2-2.9
								C263.9,233.6,263.7,234.5,264,235.1z"/>
						</g>
					</g>
					<g>
						<path class="st4" d="M258.4,226.4c1.8-0.3,11.4-3.4,14.3-3.6c4.1-0.4,6.7,2.4,7.5,2s0.8-1.3,0.6-2.1c-0.2-0.8-5.8-2.7-7.2-2.7
							c-4.5,0-12.7,3.7-15.6,4.8C255.1,226,256.6,226.8,258.4,226.4z"/>
					</g>
				</g>
			</g>
			<g>
				<g>
					<g>
						<g>
							<path class="st4" d="M322.9,243.7c0,3.8,2.6,6.9,5.7,6.9c3.2,0,5.7-3.1,5.7-6.9c0-3.8-2.6-6.9-5.7-6.9
								C325.4,236.8,322.9,239.9,322.9,243.7z"/>
						</g>
						<g>
							<path class="st4" d="M336.5,239.3c-0.8,0.6-5.4-2.8-8.3-2c-2.3,0.6-4.1,2.1-4,2c0.1-0.1,0.7-2.1,3.3-3
								c2.6-0.9,4.8-0.2,6.1,0.3C334.9,237.1,337.4,238.7,336.5,239.3z"/>
						</g>
						<g>
							<path class="st4" d="M337.2,235.7c-0.6,1.3-1.3,2.6-2,2.6c-0.7,0-0.7-0.3-0.4-0.5c0.2-0.1,1.9-2.2,2.2-2.9
								C337.3,234.3,337.5,235.1,337.2,235.7z"/>
						</g>
						<g>
							<path class="st4" d="M335.2,235.1c-0.6,1.3-1.3,2.6-2,2.6c-0.7,0-0.7-0.3-0.4-0.5c0.2-0.1,1.9-2.2,2.2-2.9
								C335.3,233.6,335.5,234.5,335.2,235.1z"/>
						</g>
					</g>
					<g>
						<path class="st4" d="M340.8,226.4c-1.8-0.3-11.4-3.4-14.3-3.6c-4.1-0.4-6.7,2.4-7.5,2s-0.8-1.3-0.6-2.1
							c0.2-0.8,5.8-2.7,7.2-2.7c4.5,0,12.7,3.7,15.6,4.8C344,226,342.5,226.8,340.8,226.4z"/>
					</g>
				</g>
			</g>
		</g>
		<g>
			<path class="st5" d="M299.9,240.9c3,0-9.1,17.2-6.8,30.8c0.7,3.9,8.3,2.8,10.5,3c2.3,0.2-0.8,1.7-3,1.9c-2.3,0.2-8.4-0.1-9.4-2.6
				C288.6,266.9,297.6,240.9,299.9,240.9z"/>
		</g>
		<g>
			<path class="st4" d="M286.3,293.6c0.4-1,10.9,5.6,21.9,0c7.6-3.9,0.9,3.1-5.5,4.6C296.4,299.6,285.7,294.9,286.3,293.6z"/>
		</g>
		<g>
			<g>
				<path class="st10" d="M266.3,263c0,1.5-3.3,2.8-7.3,2.8c-4,0-7.3-1.3-7.3-2.8c0-1.5,3.3-2.8,7.3-2.8
					C263,260.2,266.3,261.4,266.3,263z"/>
			</g>
			<g>
				<path class="st10" d="M348.8,263c0,1.5-3.3,2.8-7.3,2.8c-4,0-7.3-1.3-7.3-2.8c0-1.5,3.3-2.8,7.3-2.8
					C345.5,260.2,348.8,261.4,348.8,263z"/>
			</g>
		</g>
		<g>
			<path class="st1" d="M234.7,237.8c-2.5-4.2-5-10.1-13.8-8.1c-8.8,2-9.4,18.6-2,26.1c7.4,7.5,15.5,6.5,17.4,2.6
				C238.3,254.5,234.7,237.8,234.7,237.8z"/>
		</g>
		<g>
			<path class="st1" d="M363,237.8c2.5-4.2,5-10.1,13.8-8.1c8.8,2,9.4,18.6,2,26.1c-7.4,7.5-15.5,6.5-17.4,2.6
				C359.5,254.5,363,237.8,363,237.8z"/>
		</g>
		<g>
			<path class="st4" d="M225.4,217.7l6.5,15.6c0,0,36.8-16,44.4-43.6c0,0,58.8,46.8,90,44.4c0,0,10.9-22.7-9.4-45
				s-55.2-34.3-80.7-27.6C250.8,168.2,224.3,215.2,225.4,217.7z"/>
		</g>
		<g>
			<path class="st44" d="M459.6,473.1H140.4c0,0,25.1-81.7,49-94.7c23.9-13,79.3-19.5,79.3-19.5l10.7-12.9c0,0,4.3,1.6,11.4,6.6
				c4.5,3.2,7.7,12.6,9.2,18.1c1.5-5.5,4.7-14.9,9.3-18.1c7.1-5,11.4-6.6,11.4-6.6l10.7,12.9c0,0,55.5,6.5,79.4,19.5
				C434.5,391.4,459.6,473.1,459.6,473.1z"/>
		</g>
		<g>
			<g>
				<path class="st4" d="M238.1,185.9c-12.6,2.7-27.6,1.5-31-12.4c-3.4-13.9,1.9-41.1,20.1-45.7c18.2-4.6,35.6,9,36.6,23.2
					C264.9,165.2,246,184.2,238.1,185.9z"/>
			</g>
			<g>
				<path class="st44" d="M225.6,187.1c0.9-2.4,9.3-28.4,20.2-37.4c10.9-9.1,14.1-9.3,14.4-11c0.3-1.8-1-1.8-3.1-0.8
					c-1.9,0.9-11.2,8.3-16,14.5c-4.7,6.2-17.7,32.2-17.8,34.5C223.2,189,225,188.8,225.6,187.1z"/>
			</g>
		</g>
		<g>
			<g>
				<path class="st4" d="M361.1,185.9c12.6,2.7,27.6,1.5,31-12.4c3.4-13.9-1.9-41.1-20.1-45.7c-18.2-4.6-35.6,9-36.6,23.2
					C334.3,165.2,353.2,184.2,361.1,185.9z"/>
			</g>
			<g>
				<path class="st44" d="M373.6,187.1c-0.9-2.4-9.3-28.4-20.2-37.4c-10.9-9.1-14.1-9.3-14.4-11c-0.3-1.8,1-1.8,3.1-0.8
					c1.9,0.9,11.2,8.3,16,14.5c4.7,6.2,17.7,32.2,17.8,34.5C376.1,189,374.3,188.8,373.6,187.1z"/>
			</g>
		</g>
		<g>
			<path class="st45" d="M369.3,473.1h-2.7c-7.4-17.4-27.4-64.1-33.9-72.6c-8.3-10.8-32.6-29.7-32.6-29.7s23.2,12.4,34,25.2
				C348,412.8,369.3,473.1,369.3,473.1z"/>
		</g>
	</g>
</g>
<g id="Girl_09">
</g>
<g id="Girl_10">
</g>
<g id="Boy_06">
</g>
<g id="Boy_07">
</g>
<g id="Boy_08">
</g>
<g id="Boy_09">
</g>
<g id="Boy_10">
</g>
</svg>
