<?xml version="1.0" encoding="utf-8"?>
<!-- Generator: Adobe Illustrator 22.0.0, SVG Export Plug-In . SVG Version: 6.00 Build 0)  -->
<svg version="1.1" xmlns="http://www.w3.org/2000/svg" xmlns:xlink="http://www.w3.org/1999/xlink" x="0px" y="0px"
	 viewBox="0 0 600 600" style="enable-background:new 0 0 600 600;" xml:space="preserve">
<style type="text/css">
	.st0{fill:#35312F;}
	.st1{fill:#F4A671;}
	.st2{opacity:0.25;}
	.st3{fill:#C66940;}
	.st4{fill:#3F3832;}
	.st5{opacity:0.5;fill:#C66940;}
	.st6{fill:#FF3B3B;}
	.st7{fill:#D6D351;}
	.st8{fill:none;stroke:#EFBD41;stroke-width:0.5;stroke-miterlimit:10;}
	.st9{fill:#EFBD41;}
	.st10{opacity:0.25;fill:#FF3B3B;}
	.st11{fill:#6678CE;}
	.st12{fill:#FFFFFF;}
	.st13{fill:#EFCB59;}
	.st14{fill:#E5A83C;}
	.st15{fill:#FCDEB4;}
	.st16{fill:#E29823;}
	.st17{fill:#A55E2F;}
	.st18{fill:#ABD4ED;}
	.st19{fill:#54719B;}
	.st20{fill:#DD5150;}
	.st21{fill:#FCA518;}
	.st22{fill:#7C3C28;}
	.st23{fill:#E8EAF3;}
	.st24{fill:#EF8484;}
	.st25{fill:#4D628C;}
	.st26{fill:#6981A8;}
	.st27{fill:#C4BE47;}
	.st28{fill:#60422B;}
	.st29{fill:#D36737;}
	.st30{fill:#C6BF44;}
	.st31{fill:#996D3C;}
	.st32{fill:#F9A61A;}
	.st33{fill:#665431;}
	.st34{fill:#CC6140;}
	.st35{fill:#49564A;}
	.st36{fill:#E2774D;}
	.st37{opacity:0.25;fill:#C66940;}
	.st38{fill:#E5BB67;}
	.st39{fill:#756052;}
	.st40{fill:#E89874;}
	.st41{fill:#965640;}
	.st42{fill:#995F3F;}
	.st43{fill:#E5B155;}
	.st44{fill:#C94845;}
	.st45{fill:#913A3A;}
	.st46{fill:#5B483B;}
	.st47{fill:#373F47;}
	.st48{fill:#EAB3A4;}
	.st49{fill:#3A3733;}
	.st50{fill:#527064;}
	.st51{fill:#C7BCE8;}
	.st52{fill:#B78C69;}
	.st53{fill:#D3A479;}
	.st54{fill:#4F4D49;}
	.st55{fill:#A89F91;}
	.st56{fill:#F7AAA1;}
	.st57{fill:#726358;}
	.st58{fill:#AFADAA;}
	.st59{fill:#585D7F;}
	.st60{fill:#686E8E;}
	.st61{fill:#AF754A;}
	.st62{fill:#A55E73;}
	.st63{fill:#CC503B;}
	.st64{fill:#EFE4CA;}
	.st65{fill:#E0CEA9;}
	.st66{fill:#475B5E;}
	.st67{fill:#5F7B82;}
	.st68{fill:#73969B;}
</style>
<g id="Girl_01">
	<g>
		<g>
			<g>
				<path class="st0" d="M418.9,229.8c10.2-4.4,19.8-20.8,11.6-39.9c-8.2-19.1-23.9-15-23.9-15s9.5-16.4-4.8-28.6
					c-9.8-8.4-27.9-3.4-27.9-3.4c1.4-27.3-44.3-40.2-66.8-32.7c-22.5,7.5-26.6,20.4-26.6,20.4s-21.8-24.5-45.7-14.3
					c-23.9,10.2-29.3,35.4-29.3,35.4c-11-2.2-27.1,4-34,19.9c-5.6,7.9-8.6,17.4-8,27.5c0.6,11,4.8,17.9,12.6,21.4
					c-4.3,3.7-7.3,8.8-7.7,14.5c-0.5,8,1.5,14,7.2,17.5c-7.6,5.5-19.9,17.9-13.6,38.2c8.9,28.6,34.8,23.9,34.8,23.9
					s-6.6,13,4.8,25.2c15.8,17,52.6,7.4,64.9-3.5c0,0,34.4-24.8,57.9-1.9c13.2,12.9,29,11,37.6,9.5c29.5-5.4,21.9-20.1,21.9-20.1
					s23.4,13.2,30.2-8.6c3.1-9.8,1.4-16.6-1.1-21c15.5-6.5,23.5-22.9,21.8-39.8C437.1,232.4,418.9,229.8,418.9,229.8z M168.6,182.5
					c-0.1,0.8-0.2,1.5-0.3,2.4c-1.7,20.6,9.4,30.4,12.2,32.5c-0.8,0.5-1.6,0.9-2.3,1.5C164.4,212.9,163.1,196.6,168.6,182.5z
					 M170.6,233.8c0.6-3.7,2.4-7.1,4.9-10c-9.1,13.8,5.5,25.3,5.5,25.3s-1.4,0.7-3.5,2C171.7,247.8,169.4,241.6,170.6,233.8z
					 M411.8,292.3c-2.5-3.5-5.2-5-5.2-5s17.9,1.2,25.8-22.8C430.7,276.8,423.6,287.6,411.8,292.3z"/>
			</g>
			<g>
				<path class="st1" d="M372.7,393.5C354.2,409.6,300,408,300,408s-54.2,1.6-72.7-14.4c0,0,40.3-5.9,48.3-19.5
					c2.6-4.5,4.2-10.5,5-16.5c1.8-12.4,0.9-25.1,0.9-25.1h37c0,0-1,12.6,0.9,25.1c0.9,6.1,2.4,12.1,5,16.5
					C332.4,387.6,372.7,393.5,372.7,393.5z"/>
			</g>
			<g class="st2">
				<path class="st3" d="M319.4,357.6c-7,2.9-13.7,4.4-19.4,4.4s-12.3-1.5-19.4-4.4c1.8-12.4,0.9-25.1,0.9-25.1h37
					C318.5,332.5,317.5,345.1,319.4,357.6z"/>
			</g>
			<g>
				<path class="st1" d="M361.8,220.6c-16.4-33-62.9-33-62.9-33s-46.5,0-62.9,33c-8.2,16.6-5.8,85,10.6,101.8s37.7,27,52.3,27
					c14.5,0,36-10.1,52.3-27C367.6,305.6,370,237.3,361.8,220.6z"/>
			</g>
			<g>
				<g>
					<g>
						<g>
							<g>
								<path class="st4" d="M276.2,261.7c0,3.8-2.6,6.9-5.7,6.9s-5.7-3.1-5.7-6.9s2.6-6.9,5.7-6.9S276.2,257.9,276.2,261.7z"/>
							</g>
							<g>
								<path class="st4" d="M262.5,257.3c0.8,0.6,5.4-2.8,8.4-2c2.3,0.6,4.1,2.1,4,2c-0.1-0.1-0.7-2.1-3.3-3
									c-2.6-0.9-4.8-0.2-6.1,0.3C264.1,255.1,261.7,256.7,262.5,257.3z"/>
							</g>
							<g>
								<path class="st4" d="M261.8,253.7c0.6,1.3,1.3,2.7,2,2.7c0.7,0,0.7-0.3,0.4-0.5c-0.2-0.1-1.9-2.2-2.2-2.9
									C261.7,252.3,261.5,253.1,261.8,253.7z"/>
							</g>
							<g>
								<path class="st4" d="M263.8,253.1c0.6,1.3,1.3,2.7,2,2.7c0.7,0,0.7-0.3,0.4-0.5c-0.2-0.1-1.9-2.2-2.2-2.9
									C263.8,251.6,263.6,252.5,263.8,253.1z"/>
							</g>
						</g>
						<g>
							<path class="st4" d="M258.2,244.4c1.8-0.3,11.4-3.4,14.3-3.7c4.1-0.4,6.8,2.4,7.6,2c0.8-0.4,0.8-1.3,0.6-2.1
								c-0.2-0.8-5.8-2.7-7.2-2.7c-4.5,0-12.7,3.7-15.7,4.9C255,243.9,256.5,244.7,258.2,244.4z"/>
						</g>
					</g>
				</g>
				<g>
					<g>
						<g>
							<g>
								<path class="st4" d="M322.9,261.7c0,3.8,2.6,6.9,5.7,6.9s5.7-3.1,5.7-6.9s-2.6-6.9-5.7-6.9S322.9,257.9,322.9,261.7z"/>
							</g>
							<g>
								<path class="st4" d="M336.6,257.3c-0.8,0.6-5.4-2.8-8.4-2c-2.3,0.6-4.1,2.1-4,2c0.1-0.1,0.7-2.1,3.3-3
									c2.6-0.9,4.8-0.2,6.1,0.3C335,255.1,337.5,256.7,336.6,257.3z"/>
							</g>
							<g>
								<path class="st4" d="M337.4,253.7c-0.6,1.3-1.3,2.7-2,2.7c-0.7,0-0.7-0.3-0.4-0.5c0.2-0.1,1.9-2.2,2.2-2.9
									S337.6,253.1,337.4,253.7z"/>
							</g>
							<g>
								<path class="st4" d="M335.3,253.1c-0.6,1.3-1.3,2.7-2,2.7c-0.7,0-0.7-0.3-0.4-0.5c0.2-0.1,1.9-2.2,2.2-2.9
									S335.6,252.5,335.3,253.1z"/>
							</g>
						</g>
						<g>
							<path class="st4" d="M340.9,244.4c-1.8-0.3-11.4-3.4-14.3-3.7c-4.1-0.4-6.8,2.4-7.6,2c-0.8-0.4-0.8-1.3-0.6-2.1
								c0.2-0.8,5.8-2.7,7.2-2.7c4.5,0,12.7,3.7,15.7,4.9C344.2,243.9,342.7,244.7,340.9,244.4z"/>
						</g>
					</g>
				</g>
			</g>
			<g>
				<path class="st5" d="M299.9,258.9c3,0-9.2,17.2-6.8,30.9c0.7,3.9,8.3,2.8,10.5,3c2.3,0.2-0.8,1.7-3,1.9
					c-2.3,0.2-8.5-0.1-9.4-2.6C288.6,285,297.6,258.9,299.9,258.9z"/>
			</g>
			<g>
				<path class="st4" d="M286.2,311.8c0.4-1,11,5.6,22,0c7.6-3.9,0.9,3.1-5.5,4.6C296.4,317.8,285.7,313.1,286.2,311.8z"/>
			</g>
			<g class="st2">
				<g>
					<ellipse class="st6" cx="258.8" cy="281.1" rx="7.3" ry="2.8"/>
				</g>
				<g>
					<ellipse class="st6" cx="341.6" cy="281.1" rx="7.3" ry="2.8"/>
				</g>
			</g>
			<g>
				<path class="st1" d="M235.7,257.5c-2.5-4.2-5.1-10.2-13.8-8.2c-8.8,2-9.4,18.7-2,26.2c7.4,7.5,15.5,6.5,17.5,2.7
					C239.3,274.2,235.7,257.5,235.7,257.5z"/>
			</g>
			<g>
				<path class="st1" d="M361.5,257.5c2.5-4.2,5.1-10.2,13.8-8.2s9.4,18.7,2,26.2c-7.4,7.5-15.5,6.5-17.5,2.7
					C358,274.2,361.5,257.5,361.5,257.5z"/>
			</g>
			<g>
				<path class="st7" d="M460.2,492H139.8c0,0,18.4-50.6,34.2-74.3c1.5-2.2,2.9-4.2,4.3-5.9c3.8-4.6,11.8-8.6,21.3-12
					c15.7-5.7,35.4-9.7,46.9-11.7c5.8-1,9.5-1.6,9.5-1.6s22.7,15.9,43.9,15.5c29-0.5,43.9-15.5,43.9-15.5s2.6,0.4,6.8,1.1
					c16.9,2.9,60.2,11.5,70.9,24.2C438.1,431.4,460.2,492,460.2,492z"/>
			</g>
			<g>
				<path class="st0" d="M223.9,227.5l8.3,24.6c0,0,15.6-5.1,14.3-24.6c0,0,38.7,5.8,47.9-16.9c0,0,14.8,17.7,34.4,8.4
					c0,0,5.1,19.8,22,12.3c0,0-0.4,22,15.7,19.5c16.1-2.5-1.6-66.8-13.3-72.1c-11.7-5.2-58.4-6-86.9,6
					C237.6,196.9,223.9,227.5,223.9,227.5z"/>
			</g>
		</g>
		<g>
			<g>
				<path class="st9" d="M380.1,300.4c-1.5,0-2.9-0.2-4.4-0.7c-7.3-2.4-11.2-10.3-8.8-17.6c1.1-3.3,3.4-6.1,6.4-7.8
					c0.4-0.2,0.9-0.1,1.2,0.3c0.2,0.4,0.1,0.9-0.3,1.2c-2.7,1.5-4.7,3.9-5.6,6.8c-2.1,6.4,1.4,13.3,7.7,15.4
					c6.4,2.1,13.3-1.4,15.4-7.7c1-3.1,0.8-6.4-0.7-9.3c-1.5-2.9-4-5.1-7.1-6.1c-0.5-0.2-0.7-0.6-0.5-1.1c0.2-0.4,0.6-0.7,1.1-0.5
					c3.5,1.2,6.4,3.6,8.1,7c1.7,3.3,1.9,7.1,0.8,10.6C391.4,296.7,386,300.4,380.1,300.4z"/>
			</g>
			<g>
				<circle class="st9" cx="374.7" cy="273.9" r="2.1"/>
			</g>
		</g>
		<g>
			<g>
				<path class="st9" d="M217.7,300.4c-5.8,0-11.3-3.7-13.2-9.5c-2.4-7.3,1.5-15.2,8.8-17.6c0.4-0.2,0.9,0.1,1.1,0.5
					c0.1,0.5-0.1,0.9-0.5,1.1c-6.4,2.1-9.9,9-7.7,15.4c2.1,6.4,9,9.9,15.4,7.7c3.1-1,5.6-3.2,7.1-6.1c1.5-2.9,1.7-6.2,0.7-9.3
					c-1-2.9-3-5.3-5.6-6.8c-0.4-0.2-0.6-0.8-0.3-1.2c0.2-0.4,0.8-0.6,1.2-0.3c3,1.7,5.3,4.5,6.4,7.8c1.2,3.5,0.9,7.3-0.8,10.6
					c-1.7,3.3-4.5,5.8-8.1,7C220.6,300.2,219.2,300.4,217.7,300.4z"/>
			</g>
			<g>
				<circle class="st9" cx="223.2" cy="273.9" r="2.1"/>
			</g>
		</g>
	</g>
</g>
<g id="Girl_02">
</g>
<g id="Girl_03">
</g>
<g id="Girl_04">
</g>
<g id="Girl_05">
</g>
<g id="Boy_01">
</g>
<g id="Boy_02">
</g>
<g id="Boy_03">
</g>
<g id="Boy_04">
</g>
<g id="Boy_05">
</g>
<g id="Girl_06">
</g>
<g id="Girl_07">
</g>
<g id="Girl_08">
</g>
<g id="Girl_09">
</g>
<g id="Girl_10">
</g>
<g id="Boy_06">
</g>
<g id="Boy_07">
</g>
<g id="Boy_08">
</g>
<g id="Boy_09">
</g>
<g id="Boy_10">
</g>
</svg>
