<?xml version="1.0" encoding="utf-8"?>
<!-- Generator: Adobe Illustrator 22.0.0, SVG Export Plug-In . SVG Version: 6.00 Build 0)  -->
<svg version="1.1" xmlns="http://www.w3.org/2000/svg" xmlns:xlink="http://www.w3.org/1999/xlink" x="0px" y="0px"
	 viewBox="0 0 600 600" style="enable-background:new 0 0 600 600;" xml:space="preserve">
<style type="text/css">
	.st0{fill:#35312F;}
	.st1{fill:#F4A671;}
	.st2{opacity:0.25;}
	.st3{fill:#C66940;}
	.st4{fill:#3F3832;}
	.st5{opacity:0.5;fill:#C66940;}
	.st6{fill:#FF3B3B;}
	.st7{fill:#D6D351;}
	.st8{fill:none;stroke:#EFBD41;stroke-width:0.5;stroke-miterlimit:10;}
	.st9{fill:#EFBD41;}
	.st10{opacity:0.25;fill:#FF3B3B;}
	.st11{fill:#6678CE;}
	.st12{fill:#FFFFFF;}
	.st13{fill:#EFCB59;}
	.st14{fill:#E5A83C;}
	.st15{fill:#FCDEB4;}
	.st16{fill:#E29823;}
	.st17{fill:#A55E2F;}
	.st18{fill:#ABD4ED;}
	.st19{fill:#54719B;}
	.st20{fill:#DD5150;}
	.st21{fill:#FCA518;}
	.st22{fill:#7C3C28;}
	.st23{fill:#E8EAF3;}
	.st24{fill:#EF8484;}
	.st25{fill:#4D628C;}
	.st26{fill:#6981A8;}
	.st27{fill:#C4BE47;}
	.st28{fill:#60422B;}
	.st29{fill:#D36737;}
	.st30{fill:#C6BF44;}
	.st31{fill:#996D3C;}
	.st32{fill:#F9A61A;}
	.st33{fill:#665431;}
	.st34{fill:#CC6140;}
	.st35{fill:#49564A;}
	.st36{fill:#E2774D;}
	.st37{opacity:0.25;fill:#C66940;}
	.st38{fill:#E5BB67;}
	.st39{fill:#756052;}
	.st40{fill:#E89874;}
	.st41{fill:#965640;}
	.st42{fill:#995F3F;}
	.st43{fill:#E5B155;}
	.st44{fill:#C94845;}
	.st45{fill:#913A3A;}
	.st46{fill:#5B483B;}
	.st47{fill:#373F47;}
	.st48{fill:#EAB3A4;}
	.st49{fill:#3A3733;}
	.st50{fill:#527064;}
	.st51{fill:#C7BCE8;}
	.st52{fill:#B78C69;}
	.st53{fill:#D3A479;}
	.st54{fill:#4F4D49;}
	.st55{fill:#A89F91;}
	.st56{fill:#F7AAA1;}
	.st57{fill:#726358;}
	.st58{fill:#AFADAA;}
	.st59{fill:#585D7F;}
	.st60{fill:#686E8E;}
	.st61{fill:#AF754A;}
	.st62{fill:#A55E73;}
	.st63{fill:#CC503B;}
	.st64{fill:#EFE4CA;}
	.st65{fill:#E0CEA9;}
	.st66{fill:#475B5E;}
	.st67{fill:#5F7B82;}
	.st68{fill:#73969B;}
</style>
<g id="Girl_01">
</g>
<g id="Girl_02">
</g>
<g id="Girl_03">
</g>
<g id="Girl_04">
</g>
<g id="Girl_05">
	<g>
		<g>
			<path class="st0" d="M226.5,172.5c-11.6-0.6-16.3,11.8-15.4,22.4c1,10.5,4.8,17.7-3.3,21c-8.1,3.3-22.9,6.3-16.7,22.2
				c6.2,15.9,20.5,21.2,14.3,28.3c-6.2,7.2-17.2,3.8-26.7,18.6c-9.5,14.8-3.3,25.8,5.7,29.1c9.1,3.3,24.8,3.6,19.6,9.9
				s-24.8,10.1-30.1,33c-5.2,22.9,11.9,44.4,35.8,50.1c23.9,5.7,191.8,3.8,201.8,0c10-3.8,26.7-11.9,21.9-35.3
				c-4.8-23.4-21-21.5-16.7-29.6c4.3-8.1,21-6.7,20-24.3c-1-17.6-10-27.7-21.9-41.5c-11.9-13.8,3.8-17.6,4.8-33.9
				c1-16.2-9.5-28.1-25.3-36.7c-15.7-8.6,13.8-9.5,7.2-24.8c-6.7-15.3-23.9-3.8-24.8-15.7c-1-11.9-8.1-36.7-26.2-42
				c-18.1-5.2-32,14.8-41,15.7c-9.1,1-16.5-8-35.3-9.5c-21.5-1.8-29.1,8.6-32.9,23.4C238.6,162.9,235.2,173,226.5,172.5z"/>
		</g>
		<g>
			<path class="st1" d="M372.7,379.1c-18.5,16-72.7,14.4-72.7,14.4s-54.2,1.6-72.7-14.4c0,0,40.3-5.9,48.3-19.5
				c2.6-4.5,4.2-10.5,5-16.5c1.8-12.4,0.9-25.1,0.9-25.1h37c0,0-1,12.6,0.9,25.1c0.9,6.1,2.4,12.1,5,16.5
				C332.4,373.2,372.7,379.1,372.7,379.1z"/>
		</g>
		<g class="st2">
			<path class="st3" d="M319.4,343.1c-7,2.9-13.7,4.4-19.4,4.4s-12.3-1.5-19.4-4.4c1.8-12.4,0.9-25.1,0.9-25.1h37
				C318.5,318,317.5,330.6,319.4,343.1z"/>
		</g>
		<g>
			<path class="st1" d="M361.8,206.2c-16.4-33-62.9-33-62.9-33s-46.5,0-62.9,33c-8.2,16.6-5.8,85,10.6,101.8
				c16.3,16.9,37.7,27,52.3,27c14.5,0,36-10.1,52.3-27C367.6,291.1,370,222.8,361.8,206.2z"/>
		</g>
		<g>
			<g>
				<g>
					<g>
						<g>
							<path class="st4" d="M276.2,247.2c0,3.8-2.6,6.9-5.7,6.9s-5.7-3.1-5.7-6.9c0-3.8,2.6-6.9,5.7-6.9S276.2,243.4,276.2,247.2z"
								/>
						</g>
						<g>
							<path class="st4" d="M262.5,242.8c0.8,0.6,5.4-2.8,8.4-2c2.3,0.6,4.1,2.1,4,2c-0.1-0.1-0.7-2.1-3.3-3
								c-2.6-0.9-4.8-0.2-6.1,0.3C264.1,240.6,261.7,242.2,262.5,242.8z"/>
						</g>
						<g>
							<path class="st4" d="M261.8,239.3c0.6,1.3,1.3,2.7,2,2.7c0.7,0,0.7-0.3,0.4-0.5c-0.2-0.1-1.9-2.2-2.2-2.9
								C261.7,237.8,261.5,238.6,261.8,239.3z"/>
						</g>
						<g>
							<path class="st4" d="M263.8,238.6c0.6,1.3,1.3,2.7,2,2.7c0.7,0,0.7-0.3,0.4-0.5c-0.2-0.1-1.9-2.2-2.2-2.9
								C263.8,237.2,263.6,238,263.8,238.6z"/>
						</g>
					</g>
					<g>
						<path class="st4" d="M258.2,228.3c1.8-0.3,10.6-1.3,13.6-1.6c4.1-0.4,7.5,1.9,8.3,1.5c0.8-0.4,0.8-1.3,0.6-2.1
							c-0.2-0.8-5.8-2.7-7.2-2.7c-4.5,0-12.7,2.1-15.7,3.3C255,227.9,256.5,228.7,258.2,228.3z"/>
					</g>
				</g>
			</g>
			<g>
				<g>
					<g>
						<g>
							<path class="st4" d="M322.8,247.2c0,3.8,2.6,6.9,5.7,6.9c3.2,0,5.7-3.1,5.7-6.9c0-3.8-2.6-6.9-5.7-6.9
								C325.3,240.3,322.8,243.4,322.8,247.2z"/>
						</g>
						<g>
							<path class="st4" d="M336.5,242.8c-0.8,0.6-5.4-2.8-8.4-2c-2.3,0.6-4.1,2.1-4,2c0.1-0.1,0.7-2.1,3.3-3
								c2.6-0.9,4.8-0.2,6.1,0.3C334.8,240.6,337.3,242.2,336.5,242.8z"/>
						</g>
						<g>
							<path class="st4" d="M337.2,239.3c-0.6,1.3-1.3,2.7-2,2.7c-0.7,0-0.7-0.3-0.4-0.5c0.2-0.1,1.9-2.2,2.2-2.9
								S337.5,238.6,337.2,239.3z"/>
						</g>
						<g>
							<path class="st4" d="M335.1,238.6c-0.6,1.3-1.3,2.7-2,2.7c-0.7,0-0.7-0.3-0.4-0.5c0.2-0.1,1.9-2.2,2.2-2.9
								C335.2,237.2,335.4,238,335.1,238.6z"/>
						</g>
					</g>
					<g>
						<path class="st4" d="M340.7,228.3c-1.8-0.3-10.6-1.3-13.6-1.6c-4.1-0.4-7.5,1.9-8.3,1.5c-0.8-0.4-0.8-1.3-0.6-2.1
							c0.2-0.8,5.8-2.7,7.2-2.7c4.5,0,12.7,2.1,15.7,3.3C344,227.9,342.5,228.7,340.7,228.3z"/>
					</g>
				</g>
			</g>
		</g>
		<g>
			<path class="st5" d="M299.9,244.4c3,0-9.2,17.2-6.8,30.9c0.7,3.9,8.3,2.8,10.5,3c2.3,0.2-0.8,1.7-3,1.9c-2.3,0.2-8.5-0.1-9.4-2.6
				C288.6,270.5,297.6,244.4,299.9,244.4z"/>
		</g>
		<g>
			<g>
				<path class="st10" d="M266.1,266.6c0,1.6-3.3,2.8-7.3,2.8c-4,0-7.3-1.3-7.3-2.8c0-1.6,3.3-2.8,7.3-2.8
					C262.9,263.8,266.1,265,266.1,266.6z"/>
			</g>
			<g>
				<path class="st10" d="M348.9,266.6c0,1.6-3.3,2.8-7.3,2.8s-7.3-1.3-7.3-2.8c0-1.6,3.3-2.8,7.3-2.8S348.9,265,348.9,266.6z"/>
			</g>
		</g>
		<g>
			<path class="st1" d="M235.7,243c-2.5-4.2-5.1-10.2-13.8-8.2c-8.8,2-9.4,18.7-2,26.2c7.4,7.5,15.5,6.5,17.5,2.7
				C239.3,259.7,235.7,243,235.7,243z"/>
		</g>
		<g>
			<path class="st0" d="M222.3,234.8c0,0,4.2,7.4,13,2.5c8.8-4.9,6.2-32,17.9-44.5c11.7-12.5,40.3-17.2,48.7-15.8
				c8.4,1.4,23.5,3.5,22.4,17.5c-1.1,14-0.4,24.2,11.6,32.6c11.9,8.4,16.8-0.7,22.4,6.3c5.6,7,9.5,15.1,16.8,8.8
				c7.4-6.3-1.4-47.3-22.4-63.1c-21-15.8-36.1-18.6-68.7-15.1c-32.6,3.5-48.7,26.3-55.7,41.4C221.3,220.4,222.3,234.8,222.3,234.8z"
				/>
		</g>
		<g>
			<path class="st20" d="M460.2,477.5H139.8c0,0,18.4-50.6,34.2-74.3c1.5-2.2,2.9-4.2,4.3-5.9c3.8-4.6,11.8-8.6,21.3-12
				c15.7-5.7,35.4-9.7,46.9-11.7c5.8-1,9.5-1.6,9.5-1.6s22.7,15.9,43.9,15.5c29-0.5,43.9-15.5,43.9-15.5s2.6,0.4,6.8,1.1
				c16.9,2.9,60.2,11.5,70.9,24.2C438.1,416.9,460.2,477.5,460.2,477.5z"/>
		</g>
		<g>
			<path class="st21" d="M350.7,373.1c-2.2,3-5.3,6.5-9,9.4c-8.1,6-34.7,18.6-55.4,13.5c-17.1-4.2-34.2-17.8-39.6-22.4
				c5.8-1,9.5-1.6,9.5-1.6s22.7,15.9,43.9,15.5c29-0.5,43.9-15.5,43.9-15.5S346.4,372.3,350.7,373.1z"/>
		</g>
		<g>
			<g>
				
					<ellipse transform="matrix(0.1593 -0.9872 0.9872 0.1593 -206.6022 590.2899)" class="st21" cx="243.3" cy="416.5" rx="17" ry="17"/>
			</g>
			<g>
				<path class="st21" d="M276.9,477.5h-33.4c-1.3-7.6,2.6-15.3,10-18.5c8.6-3.7,18.6,0.3,22.3,8.9
					C277.2,471.1,277.5,474.4,276.9,477.5z"/>
			</g>
			<g>
				<path class="st21" d="M200.1,388.9c0,9.4-7.6,16.9-16.9,16.9c-3.3,0-6.5-1-9.1-2.7c1.5-2.2,2.9-4.2,4.3-5.9
					c3.8-4.6,11.8-8.6,21.3-12C200,386.4,200.1,387.7,200.1,388.9z"/>
			</g>
			<g>
				<circle class="st21" cx="192.6" cy="450.4" r="17"/>
			</g>
			<g>
				
					<ellipse transform="matrix(0.9255 -0.3788 0.3788 0.9255 -141.5764 151.2528)" class="st21" cx="313.7" cy="435.5" rx="17" ry="17"/>
			</g>
			<g>
				<circle class="st21" cx="371" cy="401.6" r="17"/>
			</g>
			<g>
				<path class="st21" d="M383.3,467.3c0,3.8-1.3,7.4-3.4,10.2h-27.1c-2.1-2.8-3.4-6.3-3.4-10.2c0-9.4,7.6-16.9,16.9-16.9
					C375.7,450.4,383.3,457.9,383.3,467.3z"/>
			</g>
			<g>
				<circle class="st21" cx="410.6" cy="430.2" r="17"/>
			</g>
			<g>
				<path class="st21" d="M457.6,474.6c0,1-0.1,1.9-0.3,2.9H424c-0.2-0.9-0.3-1.9-0.3-2.9c0-9.4,7.6-17,16.9-17
					C450,457.6,457.6,465.2,457.6,474.6z"/>
			</g>
		</g>
		<g>
			<path class="st22" d="M308.4,302.4c-0.7,0.6-1.4,1-2.3,1.3c-5.9,2.1-15.6,1.1-19-1.7c-0.1-0.1-0.3-0.2-0.4-0.3
				c-4.3-4.2-5.1-11.7-3.5-10.8c0.2,0.1,0.4,0.2,0.7,0.3c7.5,3.6,20.9,2.5,26.4,0.6c0.1,0,0.2-0.1,0.3-0.1
				C314.1,290.3,312.8,298.7,308.4,302.4z"/>
		</g>
		<g>
			<path class="st23" d="M310.3,291.7c0,1.3-0.8,3.1-1.3,3.7c-1,1.2-6.6,1.6-10.9,1.6c-3.4,0-10.5-0.9-12-1.9c-1-0.7-2.1-2.5-2.2-4
				C291.4,294.8,304.8,293.7,310.3,291.7z"/>
		</g>
		<g>
			<path class="st24" d="M308.4,302.4c-0.7,0.6-1.4,1-2.3,1.3c-5.9,2.1-15.6,1.1-19-1.7c1.5-1.1,5-1.3,8.2-1.6
				C300.3,299.8,306.8,300.6,308.4,302.4z"/>
		</g>
	</g>
</g>
<g id="Boy_01">
</g>
<g id="Boy_02">
</g>
<g id="Boy_03">
</g>
<g id="Boy_04">
</g>
<g id="Boy_05">
</g>
<g id="Girl_06">
</g>
<g id="Girl_07">
</g>
<g id="Girl_08">
</g>
<g id="Girl_09">
</g>
<g id="Girl_10">
</g>
<g id="Boy_06">
</g>
<g id="Boy_07">
</g>
<g id="Boy_08">
</g>
<g id="Boy_09">
</g>
<g id="Boy_10">
</g>
</svg>
