<?xml version="1.0" encoding="utf-8"?>
<!-- Generator: Adobe Illustrator 22.0.0, SVG Export Plug-In . SVG Version: 6.00 Build 0)  -->
<svg version="1.1" xmlns="http://www.w3.org/2000/svg" xmlns:xlink="http://www.w3.org/1999/xlink" x="0px" y="0px"
	 viewBox="0 0 600 600" style="enable-background:new 0 0 600 600;" xml:space="preserve">
<style type="text/css">
	.st0{fill:#35312F;}
	.st1{fill:#F4A671;}
	.st2{opacity:0.25;}
	.st3{fill:#C66940;}
	.st4{fill:#3F3832;}
	.st5{opacity:0.5;fill:#C66940;}
	.st6{fill:#FF3B3B;}
	.st7{fill:#D6D351;}
	.st8{fill:none;stroke:#EFBD41;stroke-width:0.5;stroke-miterlimit:10;}
	.st9{fill:#EFBD41;}
	.st10{opacity:0.25;fill:#FF3B3B;}
	.st11{fill:#6678CE;}
	.st12{fill:#FFFFFF;}
	.st13{fill:#EFCB59;}
	.st14{fill:#E5A83C;}
	.st15{fill:#FCDEB4;}
	.st16{fill:#E29823;}
	.st17{fill:#A55E2F;}
	.st18{fill:#ABD4ED;}
	.st19{fill:#54719B;}
	.st20{fill:#DD5150;}
	.st21{fill:#FCA518;}
	.st22{fill:#7C3C28;}
	.st23{fill:#E8EAF3;}
	.st24{fill:#EF8484;}
	.st25{fill:#4D628C;}
	.st26{fill:#6981A8;}
	.st27{fill:#C4BE47;}
	.st28{fill:#60422B;}
	.st29{fill:#D36737;}
	.st30{fill:#C6BF44;}
	.st31{fill:#996D3C;}
	.st32{fill:#F9A61A;}
	.st33{fill:#665431;}
	.st34{fill:#CC6140;}
	.st35{fill:#49564A;}
	.st36{fill:#E2774D;}
	.st37{opacity:0.25;fill:#C66940;}
	.st38{fill:#E5BB67;}
	.st39{fill:#756052;}
	.st40{fill:#E89874;}
	.st41{fill:#965640;}
	.st42{fill:#995F3F;}
	.st43{fill:#E5B155;}
	.st44{fill:#C94845;}
	.st45{fill:#913A3A;}
	.st46{fill:#5B483B;}
	.st47{fill:#373F47;}
	.st48{fill:#EAB3A4;}
	.st49{fill:#3A3733;}
	.st50{fill:#527064;}
	.st51{fill:#C7BCE8;}
	.st52{fill:#B78C69;}
	.st53{fill:#D3A479;}
	.st54{fill:#4F4D49;}
	.st55{fill:#A89F91;}
	.st56{fill:#F7AAA1;}
	.st57{fill:#726358;}
	.st58{fill:#AFADAA;}
	.st59{fill:#585D7F;}
	.st60{fill:#686E8E;}
	.st61{fill:#AF754A;}
	.st62{fill:#A55E73;}
	.st63{fill:#CC503B;}
	.st64{fill:#EFE4CA;}
	.st65{fill:#E0CEA9;}
	.st66{fill:#475B5E;}
	.st67{fill:#5F7B82;}
	.st68{fill:#73969B;}
</style>
<g id="Girl_01">
</g>
<g id="Girl_02">
</g>
<g id="Girl_03">
</g>
<g id="Girl_04">
</g>
<g id="Girl_05">
</g>
<g id="Boy_01">
</g>
<g id="Boy_02">
</g>
<g id="Boy_03">
</g>
<g id="Boy_04">
</g>
<g id="Boy_05">
</g>
<g id="Girl_06">
	<g>
		<g>
			<path class="st4" d="M263.8,135.4c-8.9-1-23.1-3.7-38.5,14.1c-15.4,17.8-23.8,72.9-28.5,102.7c-4.7,29.8-22,113.4,3.1,146.2
				c25.1,32.8,174.4,31.6,192.8,0c18.3-31.6,2.3-188.5-10.5-224.2c-5.5-15.3-23.7-43.6-44.6-49.4C294.6,113,263.8,135.4,263.8,135.4
				z"/>
		</g>
		<g>
			<path class="st1" d="M449.6,452.9c-1.3-3.2-2.8-6.5-4.2-9.9c-2.9-6.7-6.1-13.5-9.3-20c-1.1-2.2-2.2-4.4-3.4-6.5
				c-3.9-7.2-7.8-13.5-11.5-17.8c-10.7-12.7-53.9-21.3-70.7-24.1c-4.1-0.7-6.6-1.1-6.7-1.1c-8.5-3-16.4-7.1-19.5-12.3
				c-2.6-4.4-4.2-10.4-5-16.5c-1.8-12.4-0.9-25-0.9-25h-36.9c0,0,1,12.6-0.9,25c-0.9,6.1-2.4,12-5,16.5c-3.1,5.2-11,9.3-19.5,12.3
				c-0.3,0-3.9,0.6-9.4,1.6c-11.4,2.1-31.1,6.1-46.7,11.7c-9.5,3.4-17.4,7.4-21.3,12c-1.4,1.7-2.9,3.6-4.3,5.9
				c-2.6,4-5.4,8.7-8,13.8c-3.1,5.9-6.2,12.2-9,18.6c-4.2,9.2-8,18.4-10.9,25.8c-1.4,3.4-2.5,6.4-3.5,8.9c-1.7,4.4-2.6,7-2.6,7
				h319.3C459.6,478.5,455.5,467.3,449.6,452.9z"/>
		</g>
		<g class="st2">
			<path class="st3" d="M319.3,344.6c-7,2.9-13.7,4.4-19.3,4.4s-12.3-1.5-19.3-4.4c1.8-12.4,0.9-25,0.9-25h36.9
				C318.4,319.6,317.5,332.2,319.3,344.6z"/>
		</g>
		<g>
			<path class="st1" d="M361.7,208.1c-16.3-32.9-62.6-32.9-62.6-32.9s-46.3,0-62.6,32.9c-8.2,16.6-5.8,84.7,10.5,101.5
				c16.3,16.8,37.6,26.9,52.1,26.9c14.5,0,35.8-10.1,52.1-26.9C367.5,292.8,369.9,224.7,361.7,208.1z"/>
		</g>
		<g>
			<g>
				<g>
					<path class="st4" d="M262.7,245.6c0.8,0.6,5.2-1.9,8.2-1.1c2.3,0.6,3.9,1.4,4.5,0.7c0.6-0.8-1-1.7-3.6-2.6
						c-2.6-0.9-4.8-0.2-6.1,0.3C264.3,243.4,261.8,245,262.7,245.6z"/>
				</g>
				<g>
					<path class="st4" d="M261.9,242c0.6,1.3,1.3,2.6,2,2.6c0.7,0,0.7-0.3,0.4-0.5c-0.2-0.1-1.9-2.2-2.2-2.9S261.7,241.4,261.9,242z
						"/>
				</g>
				<g>
					<path class="st4" d="M264,241.4c0.6,1.3,1.3,2.6,2,2.6c0.7,0,0.7-0.3,0.4-0.5c-0.2-0.1-1.9-2.2-2.2-2.9
						C263.9,239.9,263.7,240.8,264,241.4z"/>
				</g>
			</g>
			<g>
				<path class="st4" d="M258.4,231.8c1.8-0.3,11.4-3.4,14.3-3.6c4.1-0.4,6.7,2.4,7.5,2s0.8-1.3,0.6-2.1c-0.2-0.8-5.8-2.7-7.2-2.7
					c-4.5,0-12.7,3.7-15.6,4.8C255.1,231.4,256.6,232.1,258.4,231.8z"/>
			</g>
			<g>
				<path class="st4" d="M340.8,231.8c-1.8-0.3-11.4-3.4-14.3-3.6c-4.1-0.4-6.7,2.4-7.5,2c-0.8-0.4-0.8-1.3-0.6-2.1
					c0.2-0.8,5.8-2.7,7.2-2.7c4.5,0,12.7,3.7,15.6,4.8C344,231.4,342.5,232.1,340.8,231.8z"/>
			</g>
			<g>
				<g>
					<path class="st4" d="M335.2,245.6c-0.8,0.6-5.2-1.9-8.2-1.1c-2.3,0.6-3.9,1.4-4.5,0.7c-0.6-0.8,1-1.7,3.6-2.6
						c2.6-0.9,4.8-0.2,6.1,0.3C333.6,243.4,336.1,245,335.2,245.6z"/>
				</g>
				<g>
					<path class="st4" d="M336,242.1c-0.6,1.3-1.3,2.6-2,2.6c-0.7,0-0.7-0.3-0.4-0.5c0.2-0.1,1.9-2.2,2.2-2.9S336.2,241.4,336,242.1
						z"/>
				</g>
				<g>
					<path class="st4" d="M333.9,241.4c-0.6,1.3-1.3,2.6-2,2.6c-0.7,0-0.7-0.3-0.4-0.5c0.2-0.1,1.9-2.2,2.2-2.9
						C334,240,334.2,240.8,333.9,241.4z"/>
				</g>
			</g>
		</g>
		<g>
			<path class="st5" d="M299.9,246.3c3,0-9.1,17.2-6.8,30.8c0.7,3.9,8.3,2.8,10.5,3c2.3,0.2-0.8,1.7-3,1.9c-2.3,0.2-8.4-0.1-9.4-2.6
				C288.6,272.3,297.6,246.3,299.9,246.3z"/>
		</g>
		<g>
			<path class="st4" d="M286.3,299c0.4-1,10.9,5.6,21.9,0c7.6-3.9,0.9,3.1-5.5,4.6C296.4,305,285.7,300.3,286.3,299z"/>
		</g>
		<g>
			<g>
				<path class="st10" d="M266.3,268.4c0,1.5-3.3,2.8-7.3,2.8c-4,0-7.3-1.3-7.3-2.8c0-1.5,3.3-2.8,7.3-2.8
					C263,265.6,266.3,266.8,266.3,268.4z"/>
			</g>
			<g>
				<path class="st10" d="M348.8,268.4c0,1.5-3.3,2.8-7.3,2.8c-4,0-7.3-1.3-7.3-2.8c0-1.5,3.3-2.8,7.3-2.8
					C345.5,265.6,348.8,266.8,348.8,268.4z"/>
			</g>
		</g>
		<g>
			<path class="st1" d="M234.7,243.2c-2.5-4.2-5-10.1-13.8-8.1c-8.8,2-9.4,18.6-2,26.1c7.4,7.5,15.5,6.5,17.4,2.6
				C238.3,259.9,234.7,243.2,234.7,243.2z"/>
		</g>
		<g>
			<path class="st1" d="M363,243.2c2.5-4.2,5-10.1,13.8-8.1c8.8,2,9.4,18.6,2,26.1c-7.4,7.5-15.5,6.5-17.4,2.6
				C359.5,259.9,363,243.2,363,243.2z"/>
		</g>
		<g>
			<path class="st4" d="M231.9,204.4c0,0-1.7,16.4,1,18.8c2.6,2.4,12.8-2.9,18.8-3.4c6-0.5,7.1-23.1,7.3-19.3
				c0.2,3.9,0,14.9,7.5,16.4c7.6,1.4,42.2,1.4,47.1-2.4s4.7-19.3,5.7-16.4c1,2.9,1.3,15.4,3.6,16.4c2.2,1,5.3-17.3,5.7-14.5
				c0.4,2.9,1.5,14,4.1,15.9c2.6,1.9,25.7,8.2,33.7,4.8c7.9-3.4-2.7-25-10.4-33.7c-7.7-8.7-47-22.6-65.2-18.8
				C272.6,172.1,235,195.3,231.9,204.4z"/>
		</g>
		<g>
			<g>
				<path class="st4" d="M269.4,270.1c-12.1,0-21.9-8.7-21.9-19.4c0-10.7,9.8-19.4,21.9-19.4c12.1,0,21.9,8.7,21.9,19.4
					C291.4,261.4,281.5,270.1,269.4,270.1z M269.4,233c-11.2,0-20.2,7.9-20.2,17.7c0,9.8,9.1,17.7,20.2,17.7
					c11.2,0,20.2-7.9,20.2-17.7C289.6,240.9,280.6,233,269.4,233z"/>
			</g>
			<g>
				<path class="st4" d="M329.3,270.1c-12.1,0-21.9-8.7-21.9-19.4c0-10.7,9.8-19.4,21.9-19.4c12.1,0,21.9,8.7,21.9,19.4
					C351.2,261.4,341.4,270.1,329.3,270.1z M329.3,233c-11.2,0-20.2,7.9-20.2,17.7c0,9.8,9.1,17.7,20.2,17.7
					c11.2,0,20.2-7.9,20.2-17.7C349.5,240.9,340.4,233,329.3,233z"/>
			</g>
		</g>
		<g>
			
				<rect x="298.5" y="232.4" transform="matrix(3.912705e-03 -1 1 3.912705e-03 55.1105 541.4792)" class="st4" width="1.7" height="21.4"/>
		</g>
		<g>
			<g>
				<path class="st4" d="M249,245.9c-0.1,0-0.2,0-0.4-0.1l-16.5-7c-0.4-0.2-1.1-1-0.9-1.5c0.2-0.4,0.7-0.6,1.1-0.4l17,7.4
					c0.4,0.2,0.6,0.7,0.4,1.1C249.6,245.8,249.3,245.9,249,245.9z"/>
			</g>
			<g>
				<path class="st4" d="M349.1,245.7c-0.3,0-0.6-0.2-0.8-0.5c-0.2-0.4,0-0.9,0.4-1.2l17.6-7.8c0.4-0.2,0.2,0,0.4,0.5
					c0.2,0.4-0.2,1.2-0.6,1.5l-16.6,7.4C349.4,245.6,349.3,245.7,349.1,245.7z"/>
			</g>
		</g>
		<g>
			<g>
				<path class="st3" d="M413.6,478.5H186.7c0,0,21.6-91.9,23.6-95.2c0.4-0.7,1.9-1.3,4.1-2c1.2-0.4,2.7-0.8,4.3-1.2
					c9.9-2.4,24.8-4.5,24.8-4.5s0.5,4.9,3.9,11.3c1.9,3.6,4.7,7.6,8.9,11.5c6.4,5.9,16,11.5,30.2,14.5c4.1,0.9,8.7,1.5,13.7,1.9
					c2-0.1,3.9-0.3,5.7-0.6c5.1-0.7,9.7-1.6,13.9-2.8c13.4-3.9,22-10.1,27.5-16.4c8.6-9.8,9.6-19.4,9.6-19.4s31.2,4.4,33.2,7.7
					c0.5,0.9,2.4,8,5,18.1c1.2,4.7,2.5,10.1,3.9,15.7c1.5,6.4,3.2,13.2,4.8,19.9c1.6,6.7,3.2,13.3,4.6,19.2v0
					C411.4,469.1,413.6,478.5,413.6,478.5z"/>
			</g>
			<g>
				<path class="st40" d="M234.8,414c-1.8,12.6-8.7,16.7-13.5,9.6c-8.6-12.8-11.3-32.6-6.9-42.2c0,0,0-0.1,0.1-0.1
					c1.2-0.4,2.7-0.8,4.3-1.2C225.4,383.7,236.1,404.1,234.8,414z"/>
			</g>
			<g>
				<path class="st40" d="M256.3,398.4c-8,2.8-12.9-0.4-10.6-7.2c0.5-1.4,1-2.9,1.7-4.3C249.2,390.4,252.1,394.5,256.3,398.4z"/>
			</g>
			<g>
				<path class="st40" d="M224.2,470.5c-0.4,3.3-1.2,6-2.3,8.1h-12.1c-7.9-12.7-10.2-31.5-6.1-40.6
					C208.2,428.3,226,457.9,224.2,470.5z"/>
			</g>
			<g>
				<path class="st40" d="M235.1,447.6c4.8-14.6,18.8-28.9,29-31.3c10.2-2.4-2.2,29.8-13.2,36.1
					C239.9,458.8,232.4,455.8,235.1,447.6z"/>
			</g>
			<g>
				<path class="st40" d="M308.6,428.4c-1.8,12.6-8.7,16.7-13.5,9.6c-4.8-7.2-7.8-16.5-8.7-25.1c4.1,0.9,8.7,1.5,13.7,1.9
					c2-0.1,3.9-0.3,5.7-0.6C307.9,419.5,309.1,424.7,308.6,428.4z"/>
			</g>
			<g>
				<path class="st40" d="M347.2,395c-3.3,6.6-7.7,12.9-11.9,15.3c-7.7,4.4-13.7,4.3-15.6,1.1C333.1,407.6,341.7,401.3,347.2,395z"
					/>
			</g>
			<g>
				<path class="st40" d="M297.8,478.5h-20.1c-2.6-9.9-2.7-20.2,0-26.2C281.4,444.1,295,464.6,297.8,478.5z"/>
			</g>
			<g>
				<path class="st40" d="M256.9,478.5h-11.1c0.3-1.5,0.7-2.8,1.3-4C248.9,470.6,252.9,473.2,256.9,478.5z"/>
			</g>
			<g>
				<path class="st40" d="M309,462.1c4.8-14.6,18.8-28.9,29-31.3c10.2-2.4-2.2,29.8-13.2,36.1C313.8,473.2,306.3,470.3,309,462.1z"
					/>
			</g>
			<g>
				<path class="st40" d="M367.3,441.4c-8.6-12.7-11.3-32.6-7-42.1c4.3-9.6,22.2,20,20.4,32.6C379,444.5,372.1,448.6,367.3,441.4z"
					/>
			</g>
			<g>
				<path class="st40" d="M398.9,417.1c-5.9,0.9-9.1-2.2-7.3-8c0.9-2.6,2-5.2,3.3-7.7C396.2,406.1,397.5,411.5,398.9,417.1z"/>
			</g>
			<g>
				<path class="st40" d="M369,478.5h-20c-1.8-8.8-1.6-17.4,0.9-22.8C353.2,448.2,365,465,369,478.5z"/>
			</g>
			<g>
				<path class="st40" d="M408.3,456.2C408.3,456.2,408.3,456.2,408.3,456.2c-3.2,6.2-7.4,11.9-11.3,14.1c-11,6.4-18.5,3.4-15.8-4.8
					c3.8-11.7,13.6-23.2,22.6-28.5C405.3,443.7,406.9,450.3,408.3,456.2z"/>
			</g>
		</g>
	</g>
</g>
<g id="Girl_07">
</g>
<g id="Girl_08">
</g>
<g id="Girl_09">
</g>
<g id="Girl_10">
</g>
<g id="Boy_06">
</g>
<g id="Boy_07">
</g>
<g id="Boy_08">
</g>
<g id="Boy_09">
</g>
<g id="Boy_10">
</g>
</svg>
