<?xml version="1.0" encoding="utf-8"?>
<!-- Generator: Adobe Illustrator 22.0.0, SVG Export Plug-In . SVG Version: 6.00 Build 0)  -->
<svg version="1.1" xmlns="http://www.w3.org/2000/svg" xmlns:xlink="http://www.w3.org/1999/xlink" x="0px" y="0px"
	 viewBox="0 0 600 600" style="enable-background:new 0 0 600 600;" xml:space="preserve">
<style type="text/css">
	.st0{fill:#35312F;}
	.st1{fill:#F4A671;}
	.st2{opacity:0.25;}
	.st3{fill:#C66940;}
	.st4{fill:#3F3832;}
	.st5{opacity:0.5;fill:#C66940;}
	.st6{fill:#FF3B3B;}
	.st7{fill:#D6D351;}
	.st8{fill:none;stroke:#EFBD41;stroke-width:0.5;stroke-miterlimit:10;}
	.st9{fill:#EFBD41;}
	.st10{opacity:0.25;fill:#FF3B3B;}
	.st11{fill:#6678CE;}
	.st12{fill:#FFFFFF;}
	.st13{fill:#EFCB59;}
	.st14{fill:#E5A83C;}
	.st15{fill:#FCDEB4;}
	.st16{fill:#E29823;}
	.st17{fill:#A55E2F;}
	.st18{fill:#ABD4ED;}
	.st19{fill:#54719B;}
	.st20{fill:#DD5150;}
	.st21{fill:#FCA518;}
	.st22{fill:#7C3C28;}
	.st23{fill:#E8EAF3;}
	.st24{fill:#EF8484;}
	.st25{fill:#4D628C;}
	.st26{fill:#6981A8;}
	.st27{fill:#C4BE47;}
	.st28{fill:#60422B;}
	.st29{fill:#D36737;}
	.st30{fill:#C6BF44;}
	.st31{fill:#996D3C;}
	.st32{fill:#F9A61A;}
	.st33{fill:#665431;}
	.st34{fill:#CC6140;}
	.st35{fill:#49564A;}
	.st36{fill:#E2774D;}
	.st37{opacity:0.25;fill:#C66940;}
	.st38{fill:#E5BB67;}
	.st39{fill:#756052;}
	.st40{fill:#E89874;}
	.st41{fill:#965640;}
	.st42{fill:#995F3F;}
	.st43{fill:#E5B155;}
	.st44{fill:#C94845;}
	.st45{fill:#913A3A;}
	.st46{fill:#5B483B;}
	.st47{fill:#373F47;}
	.st48{fill:#EAB3A4;}
	.st49{fill:#3A3733;}
	.st50{fill:#527064;}
	.st51{fill:#C7BCE8;}
	.st52{fill:#B78C69;}
	.st53{fill:#D3A479;}
	.st54{fill:#4F4D49;}
	.st55{fill:#A89F91;}
	.st56{fill:#F7AAA1;}
	.st57{fill:#726358;}
	.st58{fill:#AFADAA;}
	.st59{fill:#585D7F;}
	.st60{fill:#686E8E;}
	.st61{fill:#AF754A;}
	.st62{fill:#A55E73;}
	.st63{fill:#CC503B;}
	.st64{fill:#EFE4CA;}
	.st65{fill:#E0CEA9;}
	.st66{fill:#475B5E;}
	.st67{fill:#5F7B82;}
	.st68{fill:#73969B;}
</style>
<g id="Girl_01">
</g>
<g id="Girl_02">
</g>
<g id="Girl_03">
</g>
<g id="Girl_04">
</g>
<g id="Girl_05">
</g>
<g id="Boy_01">
</g>
<g id="Boy_02">
</g>
<g id="Boy_03">
</g>
<g id="Boy_04">
</g>
<g id="Boy_05">
</g>
<g id="Girl_06">
</g>
<g id="Girl_07">
</g>
<g id="Girl_08">
</g>
<g id="Girl_09">
</g>
<g id="Girl_10">
	<g>
		<g>
			<g>
				<path class="st49" d="M390.1,410.5c-26.6,4.6-135.8,0-174.5-6.6c-38.7-6.6-54.4-20.6-62.4-51.5c-8-30.9,16-34.9,24.6-50.2
					c2.7-4.8,2.5-11.2,1.1-18.4c-3-15.5-11.4-34.5-6.4-48.5c7.3-20.3,26.6-19.5,30.6-45.5c4-25.9,21.3-49.9,59-60.5
					c37.7-10.7,67.3,16,72.5,27.2c0,0,32.7-1.6,42.7,8.6c27.3,27.9,0.7,45.7,15.3,55.7c14.6,10,23.9,23.8,20.6,48.7
					c-1.6,11.6-2.7,20.3-3.4,27c-1.9,19.7,0.5,23.7,9.7,39.5C436.6,365.6,416.7,406,390.1,410.5z"/>
				<path class="st50" d="M390.1,410.5c-26.6,4.6-135.8,0-174.5-6.6c-38.7-6.6-54.4-20.6-62.4-51.5c-8-30.9,16-34.9,24.6-50.2
					c2.7-4.8,2.5-11.2,1.1-18.4c4.1-0.5,7.3,0.4,8,3.3c2.6,10.3-11.2,49.7,0,52.3c11.1,2.6,30-15.3,35.1-9.8
					c5.1,5.5,4.7,24.7,16.5,22.8c11.8-1.9,42.7-55.9,47.8-42.2c5.1,13.7,6.9,51.2,25.2,51.4c18.3,0.2,22.1-24,29.7-21.4
					c7.6,2.6,24.8,22.3,29.1,15.4c4.3-6.9-1.9-30.9,11.5-29.2c13.4,1.7,19.4,27.4,26.2,21.4c5.8-5.1-4.3-44.2,1.7-51.3
					c-1.9,19.7,0.5,23.7,9.7,39.5C436.6,365.6,416.7,406,390.1,410.5z"/>
				<path class="st1" d="M412.6,381.4c-18.3,15.9-112.6,8.4-112.6,8.4s-81,7.8-99.4-8.1c0,0,67.2-12,75.2-25.4
					c2.6-4.4,4.1-10.4,5-16.4c1.8-12.3,0.9-24.8,0.9-24.8h36.7c0,0-1,12.5,0.9,24.8c0.9,6,2.4,12,5,16.4
					C332.1,369.7,412.6,381.4,412.6,381.4z"/>
				<path class="st37" d="M319.2,339.9c-7,2.9-13.6,4.4-19.2,4.4c-5.6,0-12.2-1.5-19.2-4.4c1.8-12.3,0.9-24.8,0.9-24.8h36.7
					C318.3,315,317.4,327.6,319.2,339.9z"/>
				<path class="st1" d="M361.2,204.2c-16.2-32.7-62.3-32.7-62.3-32.7s-46.1,0-62.3,32.7c-8.2,16.5-5.7,84.2,10.5,100.9
					c16.2,16.7,37.4,26.7,51.8,26.7s35.6-10,51.8-26.7C366.9,288.4,369.4,220.7,361.2,204.2z"/>
				<g>
					<g>
						<g>
							<g>
								<path class="st4" d="M276.4,244.9c0,3.8-2.5,6.8-5.7,6.8c-3.1,0-5.7-3.1-5.7-6.8s2.5-6.8,5.7-6.8
									C273.9,238.1,276.4,241.1,276.4,244.9z"/>
								<path class="st4" d="M262.8,240.6c0.8,0.6,5.4-2.8,8.3-2c2.3,0.6,4,2.1,4,2s-0.7-2-3.3-3c-2.6-0.9-4.7-0.2-6,0.3
									S262,240,262.8,240.6z"/>
								<path class="st4" d="M262.1,237c0.5,1.2,1.3,2.6,1.9,2.6c0.6,0,0.7-0.3,0.4-0.5c-0.2-0.1-1.8-2.2-2.2-2.9
									C262.1,235.6,261.9,236.4,262.1,237z"/>
								<path class="st4" d="M264.2,236.4c0.5,1.2,1.3,2.6,1.9,2.6s0.7-0.3,0.4-0.5s-1.8-2.2-2.2-2.9
									C264.1,234.9,263.9,235.7,264.2,236.4z"/>
							</g>
							<path class="st4" d="M258.6,227.8c1.8-0.3,11.3-3.3,14.2-3.6c4.1-0.4,6.7,2.4,7.5,2c0.8-0.4,0.8-1.3,0.6-2.1
								c-0.2-0.8-5.7-2.7-7.2-2.7c-4.5,0-12.6,3.6-15.5,4.8C255.4,227.3,256.9,228.1,258.6,227.8z"/>
						</g>
					</g>
					<g>
						<g>
							<g>
								<path class="st4" d="M322.7,244.9c0,3.8,2.5,6.8,5.7,6.8s5.7-3.1,5.7-6.8s-2.5-6.8-5.7-6.8S322.7,241.1,322.7,244.9z"/>
								<path class="st4" d="M336.3,240.6c-0.8,0.6-5.4-2.8-8.3-2c-2.3,0.6-4,2.1-4,2s0.7-2,3.3-3c2.6-0.9,4.7-0.2,6,0.3
									C334.7,238.3,337.1,240,336.3,240.6z"/>
								<path class="st4" d="M337,237c-0.5,1.2-1.3,2.6-1.9,2.6c-0.6,0-0.7-0.3-0.4-0.5c0.2-0.1,1.8-2.2,2.2-2.9
									C337.1,235.6,337.3,236.4,337,237z"/>
								<path class="st4" d="M335,236.4c-0.5,1.2-1.3,2.6-1.9,2.6s-0.7-0.3-0.4-0.5s1.8-2.2,2.2-2.9
									C335.1,234.9,335.3,235.7,335,236.4z"/>
							</g>
							<path class="st4" d="M340.5,227.8c-1.8-0.3-11.3-3.3-14.2-3.6c-4.1-0.4-6.7,2.4-7.5,2c-0.8-0.4-0.8-1.3-0.6-2.1
								c0.2-0.8,5.7-2.7,7.2-2.7c4.5,0,12.6,3.6,15.5,4.8C343.8,227.3,342.3,228.1,340.5,227.8z"/>
						</g>
					</g>
				</g>
				<path class="st5" d="M297.6,275.6c2.3,0.3,4.9,0,6,0.1c2.2,0.2-0.7,1.7-3,1.9c-2.2,0.2-8.4-0.1-9.3-2.6
					c-2.6-7,6.3-32.9,8.6-32.9c3,0-9.1,17.1-6.7,30.6C293.5,274.6,295.5,275.4,297.6,275.6"/>
				<path class="st4" d="M286.4,294.5c0.4-1,10.9,5.6,21.8,0c7.6-3.8,0.9,3.1-5.4,4.6C296.4,300.5,285.8,295.8,286.4,294.5z"/>
				<g>
					<path class="st10" d="M266.5,264.1c0,1.5-3.2,2.8-7.3,2.8s-7.3-1.2-7.3-2.8c0-1.5,3.2-2.8,7.3-2.8S266.5,262.5,266.5,264.1z"/>
					<path class="st10" d="M348.5,264.1c0,1.5-3.2,2.8-7.3,2.8s-7.3-1.2-7.3-2.8c0-1.5,3.2-2.8,7.3-2.8S348.5,262.5,348.5,264.1z"/>
				</g>
				<path class="st1" d="M236.3,240.7c-2.4-4.1-5-10.1-13.7-8.1s-9.3,18.5-2,25.9c7.4,7.4,15.4,6.5,17.3,2.6
					C239.8,257.3,236.3,240.7,236.3,240.7z"/>
				<path class="st1" d="M361,240.7c2.4-4.1,5-10.1,13.7-8.1s9.3,18.5,2,25.9c-7.4,7.4-15.4,6.5-17.3,2.6
					C357.5,257.3,361,240.7,361,240.7z"/>
				<path class="st51" d="M458.7,473.1H141.3c0,0,18.2-50.2,33.9-73.6c1.5-2.2,2.9-4.2,4.3-5.9c3.8-4.5,11.7-8.5,21.1-11.9
					c11.2-4.1,51.3,8.5,99.4,8.1c45.3-0.4,106.3-15.8,116.9-6.1C435.6,400.9,458.7,473.1,458.7,473.1z"/>
				<path class="st49" d="M219,208.1l13.1,26.5c0,0,69,0.1,91.9-39.7c0,0,22.1,48.5,41.2,39.7c19.1-8.8-6.3-51.1-16.7-55
					c-10.4-3.9-61.4-15.6-73.4-13.2C263.1,169,219,208.1,219,208.1z"/>
			</g>
		</g>
	</g>
</g>
<g id="Boy_06">
</g>
<g id="Boy_07">
</g>
<g id="Boy_08">
</g>
<g id="Boy_09">
</g>
<g id="Boy_10">
</g>
</svg>
