<?xml version="1.0" encoding="utf-8"?>
<!-- Generator: Adobe Illustrator 22.0.0, SVG Export Plug-In . SVG Version: 6.00 Build 0)  -->
<svg version="1.1" xmlns="http://www.w3.org/2000/svg" xmlns:xlink="http://www.w3.org/1999/xlink" x="0px" y="0px"
	 viewBox="0 0 600 600" style="enable-background:new 0 0 600 600;" xml:space="preserve">
<style type="text/css">
	.st0{fill:#35312F;}
	.st1{fill:#F4A671;}
	.st2{opacity:0.25;}
	.st3{fill:#C66940;}
	.st4{fill:#3F3832;}
	.st5{opacity:0.5;fill:#C66940;}
	.st6{fill:#FF3B3B;}
	.st7{fill:#D6D351;}
	.st8{fill:none;stroke:#EFBD41;stroke-width:0.5;stroke-miterlimit:10;}
	.st9{fill:#EFBD41;}
	.st10{opacity:0.25;fill:#FF3B3B;}
	.st11{fill:#6678CE;}
	.st12{fill:#FFFFFF;}
	.st13{fill:#EFCB59;}
	.st14{fill:#E5A83C;}
	.st15{fill:#FCDEB4;}
	.st16{fill:#E29823;}
	.st17{fill:#A55E2F;}
	.st18{fill:#ABD4ED;}
	.st19{fill:#54719B;}
	.st20{fill:#DD5150;}
	.st21{fill:#FCA518;}
	.st22{fill:#7C3C28;}
	.st23{fill:#E8EAF3;}
	.st24{fill:#EF8484;}
	.st25{fill:#4D628C;}
	.st26{fill:#6981A8;}
	.st27{fill:#C4BE47;}
	.st28{fill:#60422B;}
	.st29{fill:#D36737;}
	.st30{fill:#C6BF44;}
	.st31{fill:#996D3C;}
	.st32{fill:#F9A61A;}
	.st33{fill:#665431;}
	.st34{fill:#CC6140;}
	.st35{fill:#49564A;}
	.st36{fill:#E2774D;}
	.st37{opacity:0.25;fill:#C66940;}
	.st38{fill:#E5BB67;}
	.st39{fill:#756052;}
	.st40{fill:#E89874;}
	.st41{fill:#965640;}
	.st42{fill:#995F3F;}
	.st43{fill:#E5B155;}
	.st44{fill:#C94845;}
	.st45{fill:#913A3A;}
	.st46{fill:#5B483B;}
	.st47{fill:#373F47;}
	.st48{fill:#EAB3A4;}
	.st49{fill:#3A3733;}
	.st50{fill:#527064;}
	.st51{fill:#C7BCE8;}
	.st52{fill:#B78C69;}
	.st53{fill:#D3A479;}
	.st54{fill:#4F4D49;}
	.st55{fill:#A89F91;}
	.st56{fill:#F7AAA1;}
	.st57{fill:#726358;}
	.st58{fill:#AFADAA;}
	.st59{fill:#585D7F;}
	.st60{fill:#686E8E;}
	.st61{fill:#AF754A;}
	.st62{fill:#A55E73;}
	.st63{fill:#CC503B;}
	.st64{fill:#EFE4CA;}
	.st65{fill:#E0CEA9;}
	.st66{fill:#475B5E;}
	.st67{fill:#5F7B82;}
	.st68{fill:#73969B;}
</style>
<g id="Girl_01">
</g>
<g id="Girl_02">
</g>
<g id="Girl_03">
</g>
<g id="Girl_04">
	<g>
		<g>
			<path class="st17" d="M328.7,158.7c-2.3-8.7-19.6-33.6-56.1-27.4c-36.5,6.2-52.9,24.5-61.5,52.5c-7.1,22.9-8.1,56.5-17.7,65.6
				c-9.6,9.1-29.2,6.5-36.4,36c-4.4,18.2,8.4,63,50.2,74.5c41.8,11.5,115.8,4.1,143.8-32.9c21.5-28.4,32.4-69.5,33.6-87.7
				c1.6-23.7,3.6-55.6-16.3-74.1C349.7,148.1,328.7,158.7,328.7,158.7z"/>
		</g>
		<g>
			<path class="st1" d="M372.7,371.2c-18.5,16-72.7,14.4-72.7,14.4s-54.2,1.6-72.7-14.4c0,0,40.3-5.9,48.3-19.5
				c2.6-4.5,4.2-10.5,5-16.5c1.8-12.4,0.9-25.1,0.9-25.1h37c0,0-1,12.6,0.9,25.1c0.9,6.1,2.4,12.1,5,16.5
				C332.4,365.3,372.7,371.2,372.7,371.2z"/>
		</g>
		<g class="st2">
			<path class="st3" d="M319.4,335.2c-7,2.9-13.7,4.4-19.4,4.4c-5.7,0-12.3-1.5-19.4-4.4c1.8-12.4,0.9-25.1,0.9-25.1h37
				C318.5,310.2,317.5,322.8,319.4,335.2z"/>
		</g>
		<g>
			<path class="st1" d="M361.8,198.3c-16.4-33-62.9-33-62.9-33s-46.5,0-62.9,33c-8.2,16.6-5.8,85,10.6,101.8
				c16.3,16.9,37.7,27,52.3,27s36-10.1,52.3-27C367.6,283.3,370,214.9,361.8,198.3z"/>
		</g>
		<g>
			<path class="st5" d="M299.9,236.6c3,0-9.2,17.2-6.8,30.9c0.7,3.9,8.3,2.8,10.5,3c2.3,0.2-0.8,1.7-3,1.9c-2.3,0.2-8.5-0.1-9.4-2.6
				C288.6,262.7,297.6,236.6,299.9,236.6z"/>
		</g>
		<g>
			<g>
				<ellipse class="st10" cx="258.8" cy="258.7" rx="7.3" ry="2.8"/>
			</g>
			<g>
				<ellipse class="st10" cx="341.6" cy="258.7" rx="7.3" ry="2.8"/>
			</g>
		</g>
		<g>
			<path class="st1" d="M235.7,235.1c-2.5-4.2-5.1-10.2-13.8-8.2s-9.4,18.7-2,26.2c7.4,7.5,15.5,6.5,17.5,2.7
				C239.3,251.9,235.7,235.1,235.7,235.1z"/>
		</g>
		<g>
			<path class="st1" d="M363.4,235.1c2.5-4.2,5.1-10.2,13.8-8.2s9.4,18.7,2,26.2c-7.4,7.5-15.5,6.5-17.5,2.7
				C359.8,251.9,363.4,235.1,363.4,235.1z"/>
		</g>
		<g>
			<path class="st18" d="M460.2,469.6H139.8c0,0,18.4-50.6,34.2-74.3c1.5-2.2,2.9-4.2,4.3-5.9c3.8-4.6,11.8-8.6,21.3-12
				c15.7-5.7,35.4-9.7,46.9-11.7c5.8-1,9.5-1.6,9.5-1.6s22.7,17.3,43.9,16.9c29-0.5,43.9-16.9,43.9-16.9s2.6,0.4,6.8,1.1
				c16.9,2.9,60.2,11.5,70.9,24.2C438.1,409,460.2,469.6,460.2,469.6z"/>
		</g>
		<g>
			<path class="st17" d="M223.2,213.4l8.2,16.3c0,0,18-25.4,44.7-28.9c26.7-3.6,41.8-3.6,48.1-19.4c0,0,15.4,0,17.4,10.6
				c1.5,8.1,3.4,19.1,7.3,27.3c3.6,7.6,9,12.8,17.4,11c15.6-3.3-10.2-48.9-20.1-56.8c-9.9-7.9-43.4-15.4-67.8-13.4
				C254,162.1,224.6,199.9,223.2,213.4z"/>
		</g>
		<g>
			<path class="st17" d="M367.7,259.9c-1.7-2-0.8,3.7-2.3,9.2c-1.4,5.5-5,11.4-14.3,18.6c-9.3,7.2-19.7,6.6-24.9,13.5
				c-2.9,3.7-3.2,9-11.4,9.8c-6.8,0.6-11.4-0.5-9.5,0.9c1.9,1.4,10.8,2.1,17.2-1.6c6.6-3.8,3.1-7.8,10.3-10.8
				c10.4-4.3,23.6-7.8,29.7-16.8C368.5,273.6,368.5,260.8,367.7,259.9z"/>
		</g>
		<g>
			<path class="st19" d="M250.7,365l8.1-1.9L300,381c0,0-1.7,19.3-9.3,23C283.2,407.7,250.5,376,250.7,365z"/>
		</g>
		<g>
			<path class="st19" d="M348.9,365l-8.1-1.9L299.6,381c0,0,1.7,19.3,9.3,23C316.4,407.7,349.1,376,348.9,365z"/>
		</g>
		<g>
			<circle class="st19" cx="300" cy="415.2" r="3.4"/>
		</g>
		<g>
			<circle class="st19" cx="300" cy="437.3" r="3.4"/>
		</g>
		<g>
			<path class="st19" d="M303.4,459.5c0,1.9-1.5,3.4-3.4,3.4s-3.4-1.5-3.4-3.4c0-1.9,1.5-3.4,3.4-3.4S303.4,457.6,303.4,459.5z"/>
		</g>
		<g>
			<g>
				<g>
					<g>
						<g>
							<ellipse class="st4" cx="271" cy="239.4" rx="5.7" ry="6.9"/>
						</g>
						<g>
							<path class="st4" d="M263,235c0.8,0.6,5.4-2.8,8.4-2c2.3,0.6,4.1,2.1,4,2c-0.1-0.1-0.7-2.1-3.3-3c-2.6-0.9-4.8-0.2-6.1,0.3
								C264.7,232.7,262.2,234.4,263,235z"/>
						</g>
						<g>
							<path class="st4" d="M262.3,231.4c0.6,1.3,1.3,2.7,2,2.7c0.7,0,0.7-0.3,0.4-0.5c-0.2-0.1-1.9-2.2-2.2-2.9
								C262.2,230,262,230.8,262.3,231.4z"/>
						</g>
						<g>
							<path class="st4" d="M264.3,230.8c0.6,1.3,1.3,2.7,2,2.7c0.7,0,0.7-0.3,0.4-0.5c-0.2-0.1-1.9-2.2-2.2-2.9
								C264.3,229.3,264.1,230.1,264.3,230.8z"/>
						</g>
					</g>
					<g>
						<path class="st4" d="M258.8,220.5c1.8-0.3,10.6-1.3,13.6-1.6c4.1-0.4,7.5,1.9,8.3,1.5c0.8-0.4,0.8-1.3,0.6-2.1
							c-0.2-0.8-5.8-2.7-7.2-2.7c-4.5,0-12.7,2.1-15.7,3.3C255.5,220,257,220.8,258.8,220.5z"/>
					</g>
				</g>
			</g>
			<g>
				<g>
					<g>
						<g>
							<ellipse class="st4" cx="329" cy="239.4" rx="5.7" ry="6.9"/>
						</g>
						<g>
							<path class="st4" d="M337,235c-0.8,0.6-5.4-2.8-8.4-2c-2.3,0.6-4.1,2.1-4,2c0.1-0.1,0.7-2.1,3.3-3c2.6-0.9,4.8-0.2,6.1,0.3
								C335.3,232.7,337.8,234.4,337,235z"/>
						</g>
						<g>
							<path class="st4" d="M337.7,231.4c-0.6,1.3-1.3,2.7-2,2.7c-0.7,0-0.7-0.3-0.4-0.5c0.2-0.1,1.9-2.2,2.2-2.9
								C337.8,230,338,230.8,337.7,231.4z"/>
						</g>
						<g>
							<path class="st4" d="M335.7,230.8c-0.6,1.3-1.3,2.7-2,2.7c-0.7,0-0.7-0.3-0.4-0.5c0.2-0.1,1.9-2.2,2.2-2.9
								C335.7,229.3,335.9,230.1,335.7,230.8z"/>
						</g>
					</g>
					<g>
						<path class="st4" d="M341.2,220.5c-1.8-0.3-10.6-1.3-13.6-1.6c-4.1-0.4-7.5,1.9-8.3,1.5c-0.8-0.4-0.8-1.3-0.6-2.1
							c0.2-0.8,5.8-2.7,7.2-2.7c4.5,0,12.7,2.1,15.7,3.3C344.5,220,343,220.8,341.2,220.5z"/>
					</g>
				</g>
			</g>
		</g>
		<path class="st5" d="M298.9,294.3c-3.4,0-6.6-1.8-8.7-3.2c-4.6-3.2-9.1-8.6-8.3-10.2c0.1-0.3,0.5-0.7,1.4-0.3
			c5.6,2.2,21.1,3.8,29.7-0.2c1-0.5,2.2-0.9,2.6,0c0.9,1.8-5,7.7-8.6,10.4l0,0C303.9,293.1,301.1,294.3,298.9,294.3z"/>
		<path class="st12" d="M306,290c-2.4,1.7-4.9,2.9-7.1,2.9c-2.6,0-5.3-1.1-7.6-2.6c-5.4-3.4-9.1-8.9-6.6-8c5,1.8,19.2,3.1,27.1-0.2
			C316.4,280.1,311.6,286,306,290z"/>
	</g>
</g>
<g id="Girl_05">
</g>
<g id="Boy_01">
</g>
<g id="Boy_02">
</g>
<g id="Boy_03">
</g>
<g id="Boy_04">
</g>
<g id="Boy_05">
</g>
<g id="Girl_06">
</g>
<g id="Girl_07">
</g>
<g id="Girl_08">
</g>
<g id="Girl_09">
</g>
<g id="Girl_10">
</g>
<g id="Boy_06">
</g>
<g id="Boy_07">
</g>
<g id="Boy_08">
</g>
<g id="Boy_09">
</g>
<g id="Boy_10">
</g>
</svg>
