<svg xmlns="http://www.w3.org/2000/svg" viewBox="0 0 64 64"><g data-name="Layer 22"><path fill="#c7e2fc" d="M55,56H21v2a4,4,0,0,1-4,4h0a4,4,0,0,1-4-4V6A4,4,0,0,0,9,2H49a6,6,0,0,1,6,6Z"/><path fill="#dbedfd" d="M48,11.5A38.117,38.117,0,0,0,46.8,2H9a4,4,0,0,1,4,4V49.8A38.7,38.7,0,0,0,48,11.5Z"/><path fill="#95aabd" d="M55 56H21v2a4 4 0 0 1-4 4H55a4 4 0 0 0 4-4V56zM9 2H9a4 4 0 0 1 4 4v8a0 0 0 0 1 0 0H5a0 0 0 0 1 0 0V6A4 4 0 0 1 9 2z"/><polygon fill="#3d98f7" points="22 19 22 26 26 26 26 23 31 23 31 39 27 39 27 43 39 43 39 39 35 39 35 23 40 23 40 26 44 26 44 19 22 19"/><path fill="#64adf9" d="M35,39V23h5v3h4V19H22v7h4V23h5V39H27v4h4.423a39.057,39.057,0,0,0,4.859-4Z"/><path d="M58,55H55V8a7.008,7.008,0,0,0-7-7H8A5.006,5.006,0,0,0,3,6v8a1,1,0,0,0,1,1h7V58a5.006,5.006,0,0,0,5,5H54a5.006,5.006,0,0,0,5-5V56A1,1,0,0,0,58,55ZM11,13H5V6a3,3,0,0,1,6,0Zm8,43v2a3,3,0,0,1-6,0V6a4.948,4.948,0,0,0-1.026-3H48a5.006,5.006,0,0,1,5,5V55H20A1,1,0,0,0,19,56Zm38,2a3,3,0,0,1-3,3H20a4.98,4.98,0,0,0,1-3V57H57Z"/><path d="M22,27h4a1,1,0,0,0,1-1V24h3V38H27a1,1,0,0,0-1,1v4a1,1,0,0,0,1,1H39a1,1,0,0,0,1-1V39a1,1,0,0,0-1-1H36V24h3v2a1,1,0,0,0,1,1h4a1,1,0,0,0,1-1V19a1,1,0,0,0-1-1H22a1,1,0,0,0-1,1v7A1,1,0,0,0,22,27Zm1-7H43v5H41V23a1,1,0,0,0-1-1H35a1,1,0,0,0-1,1V39a1,1,0,0,0,1,1h3v2H28V40h3a1,1,0,0,0,1-1V23a1,1,0,0,0-1-1H26a1,1,0,0,0-1,1v2H23Z"/></g></svg>